%TF.GenerationSoftware,KiCad,Pcbnew,9.0.4*%
%TF.CreationDate,2026-05-31T13:44:59-07:00*%
%TF.ProjectId,controller_v2,636f6e74-726f-46c6-9c65-725f76322e6b,rev?*%
%TF.SameCoordinates,Original*%
%TF.FileFunction,Copper,L1,Top*%
%TF.FilePolarity,Positive*%
%FSLAX46Y46*%
G04 Gerber Fmt 4.6, Leading zero omitted, Abs format (unit mm)*
G04 Created by KiCad (PCBNEW 9.0.4) date 2026-05-31 13:44:59*
%MOMM*%
%LPD*%
G01*
G04 APERTURE LIST*
G04 Aperture macros list*
%AMRoundRect*
0 Rectangle with rounded corners*
0 $1 Rounding radius*
0 $2 $3 $4 $5 $6 $7 $8 $9 X,Y pos of 4 corners*
0 Add a 4 corners polygon primitive as box body*
4,1,4,$2,$3,$4,$5,$6,$7,$8,$9,$2,$3,0*
0 Add four circle primitives for the rounded corners*
1,1,$1+$1,$2,$3*
1,1,$1+$1,$4,$5*
1,1,$1+$1,$6,$7*
1,1,$1+$1,$8,$9*
0 Add four rect primitives between the rounded corners*
20,1,$1+$1,$2,$3,$4,$5,0*
20,1,$1+$1,$4,$5,$6,$7,0*
20,1,$1+$1,$6,$7,$8,$9,0*
20,1,$1+$1,$8,$9,$2,$3,0*%
%AMOutline5P*
0 Free polygon, 5 corners , with rotation*
0 The origin of the aperture is its center*
0 number of corners: always 5*
0 $1 to $10 corner X, Y*
0 $11 Rotation angle, in degrees counterclockwise*
0 create outline with 5 corners*
4,1,5,$1,$2,$3,$4,$5,$6,$7,$8,$9,$10,$1,$2,$11*%
%AMOutline6P*
0 Free polygon, 6 corners , with rotation*
0 The origin of the aperture is its center*
0 number of corners: always 6*
0 $1 to $12 corner X, Y*
0 $13 Rotation angle, in degrees counterclockwise*
0 create outline with 6 corners*
4,1,6,$1,$2,$3,$4,$5,$6,$7,$8,$9,$10,$11,$12,$1,$2,$13*%
%AMOutline7P*
0 Free polygon, 7 corners , with rotation*
0 The origin of the aperture is its center*
0 number of corners: always 7*
0 $1 to $14 corner X, Y*
0 $15 Rotation angle, in degrees counterclockwise*
0 create outline with 7 corners*
4,1,7,$1,$2,$3,$4,$5,$6,$7,$8,$9,$10,$11,$12,$13,$14,$1,$2,$15*%
%AMOutline8P*
0 Free polygon, 8 corners , with rotation*
0 The origin of the aperture is its center*
0 number of corners: always 8*
0 $1 to $16 corner X, Y*
0 $17 Rotation angle, in degrees counterclockwise*
0 create outline with 8 corners*
4,1,8,$1,$2,$3,$4,$5,$6,$7,$8,$9,$10,$11,$12,$13,$14,$15,$16,$1,$2,$17*%
G04 Aperture macros list end*
%TA.AperFunction,SMDPad,CuDef*%
%ADD10RoundRect,0.200000X-0.200000X-0.275000X0.200000X-0.275000X0.200000X0.275000X-0.200000X0.275000X0*%
%TD*%
%TA.AperFunction,SMDPad,CuDef*%
%ADD11R,0.580000X0.250000*%
%TD*%
%TA.AperFunction,SMDPad,CuDef*%
%ADD12R,0.350000X0.630000*%
%TD*%
%TA.AperFunction,SMDPad,CuDef*%
%ADD13RoundRect,0.150000X-0.150000X-0.425000X0.150000X-0.425000X0.150000X0.425000X-0.150000X0.425000X0*%
%TD*%
%TA.AperFunction,SMDPad,CuDef*%
%ADD14RoundRect,0.075000X-0.075000X-0.500000X0.075000X-0.500000X0.075000X0.500000X-0.075000X0.500000X0*%
%TD*%
%TA.AperFunction,HeatsinkPad*%
%ADD15O,1.000000X2.100000*%
%TD*%
%TA.AperFunction,HeatsinkPad*%
%ADD16O,1.000000X1.800000*%
%TD*%
%TA.AperFunction,SMDPad,CuDef*%
%ADD17RoundRect,0.250000X-1.500000X-0.550000X1.500000X-0.550000X1.500000X0.550000X-1.500000X0.550000X0*%
%TD*%
%TA.AperFunction,SMDPad,CuDef*%
%ADD18RoundRect,0.225000X0.250000X-0.225000X0.250000X0.225000X-0.250000X0.225000X-0.250000X-0.225000X0*%
%TD*%
%TA.AperFunction,SMDPad,CuDef*%
%ADD19RoundRect,0.225000X-0.250000X0.225000X-0.250000X-0.225000X0.250000X-0.225000X0.250000X0.225000X0*%
%TD*%
%TA.AperFunction,SMDPad,CuDef*%
%ADD20RoundRect,0.225000X-0.225000X-0.250000X0.225000X-0.250000X0.225000X0.250000X-0.225000X0.250000X0*%
%TD*%
%TA.AperFunction,SMDPad,CuDef*%
%ADD21RoundRect,0.150000X-0.150000X0.512500X-0.150000X-0.512500X0.150000X-0.512500X0.150000X0.512500X0*%
%TD*%
%TA.AperFunction,ComponentPad*%
%ADD22C,1.600000*%
%TD*%
%TA.AperFunction,ComponentPad*%
%ADD23O,2.000000X1.000000*%
%TD*%
%TA.AperFunction,SMDPad,CuDef*%
%ADD24RoundRect,0.150000X-0.512500X-0.150000X0.512500X-0.150000X0.512500X0.150000X-0.512500X0.150000X0*%
%TD*%
%TA.AperFunction,SMDPad,CuDef*%
%ADD25RoundRect,0.250000X-0.250000X-0.475000X0.250000X-0.475000X0.250000X0.475000X-0.250000X0.475000X0*%
%TD*%
%TA.AperFunction,SMDPad,CuDef*%
%ADD26RoundRect,0.250000X-1.950000X-1.000000X1.950000X-1.000000X1.950000X1.000000X-1.950000X1.000000X0*%
%TD*%
%TA.AperFunction,SMDPad,CuDef*%
%ADD27RoundRect,0.250000X-0.525000X-0.400000X0.525000X-0.400000X0.525000X0.400000X-0.525000X0.400000X0*%
%TD*%
%TA.AperFunction,SMDPad,CuDef*%
%ADD28R,1.520000X1.780000*%
%TD*%
%TA.AperFunction,SMDPad,CuDef*%
%ADD29RoundRect,0.225000X0.225000X0.250000X-0.225000X0.250000X-0.225000X-0.250000X0.225000X-0.250000X0*%
%TD*%
%TA.AperFunction,SMDPad,CuDef*%
%ADD30RoundRect,0.200000X0.200000X0.275000X-0.200000X0.275000X-0.200000X-0.275000X0.200000X-0.275000X0*%
%TD*%
%TA.AperFunction,SMDPad,CuDef*%
%ADD31RoundRect,0.250000X-1.000000X-0.650000X1.000000X-0.650000X1.000000X0.650000X-1.000000X0.650000X0*%
%TD*%
%TA.AperFunction,SMDPad,CuDef*%
%ADD32RoundRect,0.250000X-0.312500X-1.450000X0.312500X-1.450000X0.312500X1.450000X-0.312500X1.450000X0*%
%TD*%
%TA.AperFunction,SMDPad,CuDef*%
%ADD33RoundRect,0.375000X-0.625000X-0.375000X0.625000X-0.375000X0.625000X0.375000X-0.625000X0.375000X0*%
%TD*%
%TA.AperFunction,SMDPad,CuDef*%
%ADD34RoundRect,0.500000X-0.500000X-1.400000X0.500000X-1.400000X0.500000X1.400000X-0.500000X1.400000X0*%
%TD*%
%TA.AperFunction,SMDPad,CuDef*%
%ADD35RoundRect,0.218750X0.218750X0.256250X-0.218750X0.256250X-0.218750X-0.256250X0.218750X-0.256250X0*%
%TD*%
%TA.AperFunction,SMDPad,CuDef*%
%ADD36RoundRect,0.250000X0.375000X0.625000X-0.375000X0.625000X-0.375000X-0.625000X0.375000X-0.625000X0*%
%TD*%
%TA.AperFunction,SMDPad,CuDef*%
%ADD37R,0.800000X0.400000*%
%TD*%
%TA.AperFunction,SMDPad,CuDef*%
%ADD38R,0.400000X0.800000*%
%TD*%
%TA.AperFunction,HeatsinkPad*%
%ADD39Outline5P,-0.600000X0.204000X-0.204000X0.600000X0.600000X0.600000X0.600000X-0.600000X-0.600000X-0.600000X0.000000*%
%TD*%
%TA.AperFunction,HeatsinkPad*%
%ADD40R,1.200000X1.200000*%
%TD*%
%TA.AperFunction,SMDPad,CuDef*%
%ADD41R,0.800000X0.800000*%
%TD*%
%TA.AperFunction,SMDPad,CuDef*%
%ADD42R,1.250000X3.000000*%
%TD*%
%TA.AperFunction,HeatsinkPad*%
%ADD43C,3.000000*%
%TD*%
%TA.AperFunction,SMDPad,CuDef*%
%ADD44RoundRect,0.150000X-0.625000X0.150000X-0.625000X-0.150000X0.625000X-0.150000X0.625000X0.150000X0*%
%TD*%
%TA.AperFunction,SMDPad,CuDef*%
%ADD45RoundRect,0.250000X-0.650000X0.350000X-0.650000X-0.350000X0.650000X-0.350000X0.650000X0.350000X0*%
%TD*%
%TA.AperFunction,ViaPad*%
%ADD46C,0.600000*%
%TD*%
%TA.AperFunction,Conductor*%
%ADD47C,0.600000*%
%TD*%
%TA.AperFunction,Conductor*%
%ADD48C,0.200000*%
%TD*%
G04 APERTURE END LIST*
D10*
%TO.P,R8,1*%
%TO.N,Net-(J4-Pad2)*%
X107000000Y-78500000D03*
%TO.P,R8,2*%
%TO.N,Net-(R8-Pad2)*%
X108650000Y-78500000D03*
%TD*%
D11*
%TO.P,U3,1*%
%TO.N,/USBC_DP*%
X112900000Y-90100000D03*
%TO.P,U3,2*%
%TO.N,/USBC_DM*%
X112900000Y-90600000D03*
%TO.P,U3,3*%
%TO.N,/USBA_DP*%
X112900000Y-91100000D03*
%TO.P,U3,4*%
%TO.N,/USBA_DM*%
X112900000Y-91600000D03*
D12*
%TO.P,U3,5*%
%TO.N,GND*%
X113500000Y-91700000D03*
D11*
%TO.P,U3,6*%
X114100000Y-91600000D03*
%TO.P,U3,7*%
%TO.N,/USB_DM*%
X114100000Y-91100000D03*
%TO.P,U3,8*%
%TO.N,/USB_DP*%
X114100000Y-90600000D03*
%TO.P,U3,9*%
%TO.N,/USB_SEL*%
X114100000Y-90100000D03*
D12*
%TO.P,U3,10*%
%TO.N,+3.3V*%
X113500000Y-90000000D03*
%TD*%
D13*
%TO.P,J1,A1,GND*%
%TO.N,GND*%
X119300000Y-103425000D03*
%TO.P,J1,A4,VBUS*%
%TO.N,Net-(F1-Pad1)*%
X120100000Y-103425000D03*
D14*
%TO.P,J1,A5,CC1*%
%TO.N,Net-(J1-CC1)*%
X121250000Y-103425000D03*
%TO.P,J1,A6,D+*%
%TO.N,/USBC_DP*%
X122250000Y-103425000D03*
%TO.P,J1,A7,D-*%
%TO.N,/USBC_DM*%
X122750000Y-103425000D03*
%TO.P,J1,A8,SBU1*%
%TO.N,unconnected-(J1-SBU1-PadA8)*%
X123750000Y-103425000D03*
D13*
%TO.P,J1,A9,VBUS*%
%TO.N,Net-(F1-Pad1)*%
X124900000Y-103425000D03*
%TO.P,J1,A12,GND*%
%TO.N,GND*%
X125700000Y-103425000D03*
%TO.P,J1,B1,GND*%
X125700000Y-103425000D03*
%TO.P,J1,B4,VBUS*%
%TO.N,Net-(F1-Pad1)*%
X124900000Y-103425000D03*
D14*
%TO.P,J1,B5,CC2*%
%TO.N,Net-(J1-CC2)*%
X124250000Y-103425000D03*
%TO.P,J1,B6,D+*%
%TO.N,/USBC_DP*%
X123250000Y-103425000D03*
%TO.P,J1,B7,D-*%
%TO.N,/USBC_DM*%
X121750000Y-103425000D03*
%TO.P,J1,B8,SBU2*%
%TO.N,unconnected-(J1-SBU2-PadB8)*%
X120750000Y-103425000D03*
D13*
%TO.P,J1,B9,VBUS*%
%TO.N,Net-(F1-Pad1)*%
X120100000Y-103425000D03*
%TO.P,J1,B12,GND*%
%TO.N,GND*%
X119300000Y-103425000D03*
D15*
%TO.P,J1,S1,SHIELD*%
X118180000Y-104000000D03*
D16*
X118180000Y-108180000D03*
D15*
X126820000Y-104000000D03*
D16*
X126820000Y-108180000D03*
%TD*%
D17*
%TO.P,C1,1*%
%TO.N,+5V*%
X139700000Y-82250000D03*
%TO.P,C1,2*%
%TO.N,GND*%
X145300000Y-82250000D03*
%TD*%
D18*
%TO.P,C17,1*%
%TO.N,GND*%
X116000000Y-87775000D03*
%TO.P,C17,2*%
%TO.N,+3.3V*%
X116000000Y-86225000D03*
%TD*%
D10*
%TO.P,R10,1*%
%TO.N,GND*%
X109175000Y-92000000D03*
%TO.P,R10,2*%
%TO.N,/USB_SEL*%
X110825000Y-92000000D03*
%TD*%
D19*
%TO.P,C7,1*%
%TO.N,+5V*%
X114750000Y-99225000D03*
%TO.P,C7,2*%
%TO.N,GND*%
X114750000Y-100775000D03*
%TD*%
D20*
%TO.P,C13,1*%
%TO.N,/EN*%
X130225000Y-67000000D03*
%TO.P,C13,2*%
%TO.N,GND*%
X131775000Y-67000000D03*
%TD*%
D21*
%TO.P,U2,1*%
%TO.N,GND*%
X112450000Y-94862500D03*
%TO.P,U2,2*%
%TO.N,/LED_DATA_3V3*%
X111500000Y-94862500D03*
%TO.P,U2,3,GND*%
%TO.N,GND*%
X110550000Y-94862500D03*
%TO.P,U2,4*%
%TO.N,Net-(R7-Pad1)*%
X110550000Y-97137500D03*
%TO.P,U2,5,VCC*%
%TO.N,+5V*%
X112450000Y-97137500D03*
%TD*%
D22*
%TO.P,J4,*%
%TO.N,*%
X103900000Y-83500000D03*
X110900000Y-83500000D03*
D23*
%TO.P,J4,2,2*%
%TO.N,Net-(J4-Pad2)*%
X105500000Y-81100000D03*
%TO.P,J4,3,3*%
%TO.N,Net-(J4-Pad3)*%
X108500000Y-81100000D03*
%TO.P,J4,4,4*%
%TO.N,unconnected-(J4-Pad4)*%
X112500000Y-81100000D03*
%TO.P,J4,5,5*%
%TO.N,unconnected-(J4-Pad5)*%
X113500000Y-85900000D03*
%TD*%
D24*
%TO.P,D3,1,I/O1*%
%TO.N,Net-(J3-D-)*%
X142862500Y-92050000D03*
%TO.P,D3,2,GND*%
%TO.N,GND*%
X142862500Y-93000000D03*
%TO.P,D3,3,I/O2*%
%TO.N,Net-(J3-D+)*%
X142862500Y-93950000D03*
%TO.P,D3,4,I/O2*%
%TO.N,/USBA_DP*%
X145137500Y-93950000D03*
%TO.P,D3,5,VBUS*%
%TO.N,Net-(D3-VBUS)*%
X145137500Y-93000000D03*
%TO.P,D3,6,I/O1*%
%TO.N,/USBA_DM*%
X145137500Y-92050000D03*
%TD*%
D25*
%TO.P,C2,1*%
%TO.N,+5V*%
X124550000Y-95000000D03*
%TO.P,C2,2*%
%TO.N,GND*%
X126450000Y-95000000D03*
%TD*%
D26*
%TO.P,C3,1*%
%TO.N,+5V*%
X107100000Y-106250000D03*
%TO.P,C3,2*%
%TO.N,GND*%
X114500000Y-106250000D03*
%TD*%
D27*
%TO.P,SW2,1,1*%
%TO.N,GND*%
X147000000Y-66000000D03*
X154960000Y-66000000D03*
%TO.P,SW2,2,2*%
%TO.N,/BOOT*%
X147000000Y-70500000D03*
X154960000Y-70500000D03*
%TD*%
D28*
%TO.P,U5,1*%
%TO.N,Net-(J4-Pad3)*%
X127500000Y-86040000D03*
%TO.P,U5,2*%
%TO.N,Net-(R8-Pad2)*%
X127500000Y-83500000D03*
%TO.P,U5,3*%
%TO.N,unconnected-(U5-Pad3)*%
X127500000Y-80960000D03*
%TO.P,U5,4*%
%TO.N,/MIDI_RX*%
X118490000Y-80960000D03*
%TO.P,U5,5*%
%TO.N,GND*%
X118490000Y-83500000D03*
%TO.P,U5,6*%
%TO.N,+3.3V*%
X118490000Y-86040000D03*
%TD*%
D29*
%TO.P,C4,1*%
%TO.N,+3.3V*%
X111000000Y-64000000D03*
%TO.P,C4,2*%
%TO.N,GND*%
X109450000Y-64000000D03*
%TD*%
D30*
%TO.P,R11,1*%
%TO.N,/BOOT*%
X111075000Y-67000000D03*
%TO.P,R11,2*%
%TO.N,+3.3V*%
X109425000Y-67000000D03*
%TD*%
D31*
%TO.P,D1,1,A1*%
%TO.N,GND*%
X117500000Y-94500000D03*
%TO.P,D1,2,A2*%
%TO.N,+5V*%
X121500000Y-94500000D03*
%TD*%
D10*
%TO.P,R1,1*%
%TO.N,GND*%
X122675000Y-99925000D03*
%TO.P,R1,2*%
%TO.N,Net-(J1-CC1)*%
X124325000Y-99925000D03*
%TD*%
%TO.P,R3,1*%
%TO.N,+3.3V*%
X130175000Y-71000000D03*
%TO.P,R3,2*%
%TO.N,/EN*%
X131825000Y-71000000D03*
%TD*%
D20*
%TO.P,C16,1*%
%TO.N,GND*%
X109225000Y-89000000D03*
%TO.P,C16,2*%
%TO.N,+3.3V*%
X110775000Y-89000000D03*
%TD*%
D10*
%TO.P,R4,1*%
%TO.N,/STATUS*%
X133175000Y-75000000D03*
%TO.P,R4,2*%
%TO.N,Net-(D2-A)*%
X134825000Y-75000000D03*
%TD*%
D32*
%TO.P,F1,1*%
%TO.N,Net-(F1-Pad1)*%
X116362500Y-99925000D03*
%TO.P,F1,2*%
%TO.N,+5V*%
X120637500Y-99925000D03*
%TD*%
D33*
%TO.P,U4,1,GND*%
%TO.N,GND*%
X129350000Y-90200000D03*
%TO.P,U4,2,VO*%
%TO.N,+3.3V*%
X129350000Y-92500000D03*
D34*
X135650000Y-92500000D03*
D33*
%TO.P,U4,3,VI*%
%TO.N,+5V*%
X129350000Y-94800000D03*
%TD*%
D25*
%TO.P,C15,1*%
%TO.N,+3.3V*%
X130550000Y-99925000D03*
%TO.P,C15,2*%
%TO.N,GND*%
X132450000Y-99925000D03*
%TD*%
D35*
%TO.P,D2,1,K*%
%TO.N,GND*%
X139787500Y-75000000D03*
%TO.P,D2,2,A*%
%TO.N,Net-(D2-A)*%
X138212500Y-75000000D03*
%TD*%
D36*
%TO.P,F2,1*%
%TO.N,Net-(D3-VBUS)*%
X140900000Y-90000000D03*
%TO.P,F2,2*%
%TO.N,+5V*%
X138100000Y-90000000D03*
%TD*%
D37*
%TO.P,U1,1,GND*%
%TO.N,GND*%
X113000000Y-62450000D03*
%TO.P,U1,2,GND*%
X113000000Y-63300000D03*
%TO.P,U1,3,3V3*%
%TO.N,+3.3V*%
X113000000Y-64150000D03*
%TO.P,U1,4,IO0*%
%TO.N,/BOOT*%
X113000000Y-65000000D03*
%TO.P,U1,5,IO1*%
%TO.N,unconnected-(U1-IO1-Pad5)*%
X113000000Y-65850000D03*
%TO.P,U1,6,IO2*%
%TO.N,unconnected-(U1-IO2-Pad6)*%
X113000000Y-66700000D03*
%TO.P,U1,7,IO3*%
%TO.N,unconnected-(U1-IO3-Pad7)*%
X113000000Y-67550000D03*
%TO.P,U1,8,IO4*%
%TO.N,/LED_DATA_3V3*%
X113000000Y-68400000D03*
%TO.P,U1,9,IO5*%
%TO.N,/MIDI_RX*%
X113000000Y-69250000D03*
%TO.P,U1,10,IO6*%
%TO.N,unconnected-(U1-IO6-Pad10)*%
X113000000Y-70100000D03*
%TO.P,U1,11,IO7*%
%TO.N,unconnected-(U1-IO7-Pad11)*%
X113000000Y-70950000D03*
%TO.P,U1,12,IO8*%
%TO.N,unconnected-(U1-IO8-Pad12)*%
X113000000Y-71800000D03*
%TO.P,U1,13,IO9*%
%TO.N,/STATUS*%
X113000000Y-72650000D03*
%TO.P,U1,14,IO10*%
%TO.N,/USB_SEL*%
X113000000Y-73500000D03*
%TO.P,U1,15,IO11*%
%TO.N,unconnected-(U1-IO11-Pad15)*%
X113000000Y-74350000D03*
D38*
%TO.P,U1,16,IO12*%
%TO.N,unconnected-(U1-IO12-Pad16)*%
X114050000Y-75400000D03*
%TO.P,U1,17,IO13*%
%TO.N,unconnected-(U1-IO13-Pad17)*%
X114900000Y-75400000D03*
%TO.P,U1,18,IO14*%
%TO.N,unconnected-(U1-IO14-Pad18)*%
X115750000Y-75400000D03*
%TO.P,U1,19,IO15*%
%TO.N,unconnected-(U1-IO15-Pad19)*%
X116600000Y-75400000D03*
%TO.P,U1,20,IO16*%
%TO.N,unconnected-(U1-IO16-Pad20)*%
X117450000Y-75400000D03*
%TO.P,U1,21,IO17*%
%TO.N,unconnected-(U1-IO17-Pad21)*%
X118300000Y-75400000D03*
%TO.P,U1,22,IO18*%
%TO.N,unconnected-(U1-IO18-Pad22)*%
X119150000Y-75400000D03*
%TO.P,U1,23,USB_D-*%
%TO.N,/USB_DM*%
X120000000Y-75400000D03*
%TO.P,U1,24,USB_D+*%
%TO.N,/USB_DP*%
X120850000Y-75400000D03*
%TO.P,U1,25,IO21*%
%TO.N,unconnected-(U1-IO21-Pad25)*%
X121700000Y-75400000D03*
%TO.P,U1,26,IO26*%
%TO.N,unconnected-(U1-IO26-Pad26)*%
X122550000Y-75400000D03*
%TO.P,U1,27,IO47*%
%TO.N,unconnected-(U1-IO47-Pad27)*%
X123400000Y-75400000D03*
%TO.P,U1,28,IO33*%
%TO.N,unconnected-(U1-IO33-Pad28)*%
X124250000Y-75400000D03*
%TO.P,U1,29,IO34*%
%TO.N,unconnected-(U1-IO34-Pad29)*%
X125100000Y-75400000D03*
%TO.P,U1,30,IO48*%
%TO.N,unconnected-(U1-IO48-Pad30)*%
X125950000Y-75400000D03*
D37*
%TO.P,U1,31,IO35*%
%TO.N,unconnected-(U1-IO35-Pad31)*%
X127000000Y-74350000D03*
%TO.P,U1,32,IO36*%
%TO.N,unconnected-(U1-IO36-Pad32)*%
X127000000Y-73500000D03*
%TO.P,U1,33,IO37*%
%TO.N,unconnected-(U1-IO37-Pad33)*%
X127000000Y-72650000D03*
%TO.P,U1,34,IO38*%
%TO.N,unconnected-(U1-IO38-Pad34)*%
X127000000Y-71800000D03*
%TO.P,U1,35,IO39*%
%TO.N,unconnected-(U1-IO39-Pad35)*%
X127000000Y-70950000D03*
%TO.P,U1,36,IO40*%
%TO.N,unconnected-(U1-IO40-Pad36)*%
X127000000Y-70100000D03*
%TO.P,U1,37,IO41*%
%TO.N,unconnected-(U1-IO41-Pad37)*%
X127000000Y-69250000D03*
%TO.P,U1,38,IO42*%
%TO.N,unconnected-(U1-IO42-Pad38)*%
X127000000Y-68400000D03*
%TO.P,U1,39,TXD0*%
%TO.N,unconnected-(U1-TXD0-Pad39)*%
X127000000Y-67550000D03*
%TO.P,U1,40,RXD0*%
%TO.N,unconnected-(U1-RXD0-Pad40)*%
X127000000Y-66700000D03*
%TO.P,U1,41,IO45*%
%TO.N,unconnected-(U1-IO45-Pad41)*%
X127000000Y-65850000D03*
%TO.P,U1,42,GND*%
%TO.N,GND*%
X127000000Y-65000000D03*
%TO.P,U1,43,GND*%
X127000000Y-64150000D03*
%TO.P,U1,44,IO46*%
%TO.N,unconnected-(U1-IO46-Pad44)*%
X127000000Y-63300000D03*
%TO.P,U1,45,EN*%
%TO.N,/EN*%
X127000000Y-62450000D03*
D38*
%TO.P,U1,46,GND*%
%TO.N,GND*%
X125950000Y-61400000D03*
%TO.P,U1,47,GND*%
X125100000Y-61400000D03*
%TO.P,U1,48,GND*%
X124250000Y-61400000D03*
%TO.P,U1,49,GND*%
X123400000Y-61400000D03*
%TO.P,U1,50,GND*%
X122550000Y-61400000D03*
%TO.P,U1,51,GND*%
X121700000Y-61400000D03*
%TO.P,U1,52,GND*%
X120850000Y-61400000D03*
%TO.P,U1,53,GND*%
X120000000Y-61400000D03*
%TO.P,U1,54,GND*%
X119150000Y-61400000D03*
%TO.P,U1,55,GND*%
X118300000Y-61400000D03*
%TO.P,U1,56,GND*%
X117450000Y-61400000D03*
%TO.P,U1,57,GND*%
X116600000Y-61400000D03*
%TO.P,U1,58,GND*%
X115750000Y-61400000D03*
%TO.P,U1,59,GND*%
X114900000Y-61400000D03*
%TO.P,U1,60,GND*%
X114050000Y-61400000D03*
D39*
%TO.P,U1,61,GND*%
X118350000Y-66750000D03*
D40*
X118350000Y-68400000D03*
X118350000Y-70050000D03*
X120000000Y-66750000D03*
X120000000Y-68400000D03*
X120000000Y-70050000D03*
X121650000Y-66750000D03*
X121650000Y-68400000D03*
X121650000Y-70050000D03*
D41*
%TO.P,U1,62,GND*%
X113000000Y-61400000D03*
%TO.P,U1,63,GND*%
X113000000Y-75400000D03*
%TO.P,U1,64,GND*%
X127000000Y-75400000D03*
%TO.P,U1,65,GND*%
X127000000Y-61400000D03*
%TD*%
D27*
%TO.P,SW1,1,1*%
%TO.N,/EN*%
X136040000Y-66000000D03*
X144000000Y-66000000D03*
%TO.P,SW1,2,2*%
%TO.N,GND*%
X136040000Y-70500000D03*
X144000000Y-70500000D03*
%TD*%
D10*
%TO.P,R2,1*%
%TO.N,Net-(J1-CC2)*%
X126675000Y-99925000D03*
%TO.P,R2,2*%
%TO.N,GND*%
X128325000Y-99925000D03*
%TD*%
D42*
%TO.P,J3,1,VBUS*%
%TO.N,Net-(D3-VBUS)*%
X140000000Y-97120000D03*
%TO.P,J3,2,D-*%
%TO.N,Net-(J3-D-)*%
X142500000Y-97120000D03*
%TO.P,J3,3,D+*%
%TO.N,Net-(J3-D+)*%
X144500000Y-97120000D03*
%TO.P,J3,4,GND*%
%TO.N,GND*%
X147000000Y-97120000D03*
D43*
%TO.P,J3,5,Shield*%
X136930000Y-100800000D03*
X150070000Y-100800000D03*
%TD*%
D44*
%TO.P,J2,1,Pin_1*%
%TO.N,+5V*%
X105500000Y-94500000D03*
%TO.P,J2,2,Pin_2*%
%TO.N,GND*%
X105500000Y-95500000D03*
%TO.P,J2,3,Pin_3*%
%TO.N,Net-(J2-Pin_3)*%
X105500000Y-96500000D03*
%TO.P,J2,4,Pin_4*%
%TO.N,unconnected-(J2-Pin_4-Pad4)*%
X105500000Y-97500000D03*
D45*
%TO.P,J2,MP*%
%TO.N,N/C*%
X101625000Y-93200000D03*
X101625000Y-98800000D03*
%TD*%
D30*
%TO.P,R7,1*%
%TO.N,Net-(R7-Pad1)*%
X109325000Y-98000000D03*
%TO.P,R7,2*%
%TO.N,Net-(J2-Pin_3)*%
X107675000Y-98000000D03*
%TD*%
D18*
%TO.P,C18,1*%
%TO.N,Net-(D3-VBUS)*%
X140000000Y-94275000D03*
%TO.P,C18,2*%
%TO.N,GND*%
X140000000Y-92725000D03*
%TD*%
D46*
%TO.N,GND*%
X143000000Y-70500000D03*
X147000000Y-97500000D03*
X118500000Y-83500000D03*
X127000000Y-75500000D03*
X109000000Y-92000000D03*
X132500000Y-100000000D03*
X143000000Y-93000000D03*
X145300000Y-82250000D03*
X140000000Y-93000000D03*
X109000000Y-89000000D03*
X112451000Y-95000000D03*
X110500000Y-95000000D03*
X105500000Y-95500000D03*
X113000000Y-75500000D03*
X131500000Y-67000000D03*
X125700000Y-103425000D03*
X135000000Y-70500000D03*
X114750000Y-100750000D03*
X113590002Y-91675002D03*
X122500000Y-100000000D03*
X119300000Y-103425000D03*
X139500000Y-75000000D03*
X118000000Y-94500000D03*
X120000000Y-66750000D03*
X147000000Y-66000000D03*
X127000000Y-64000000D03*
X155000000Y-66000000D03*
X128500000Y-100000000D03*
X113000000Y-63350000D03*
X127000000Y-65000000D03*
X114750000Y-106250000D03*
X126500000Y-95500000D03*
X116000000Y-88000000D03*
X129500000Y-90500000D03*
X109500000Y-64250000D03*
%TO.N,+3.3V*%
X130500000Y-100000000D03*
X135650000Y-92500000D03*
X130000000Y-71000000D03*
X109425000Y-67000000D03*
%TO.N,/USBA_DP*%
X145137500Y-93950000D03*
X111981336Y-91028630D03*
%TO.N,/USBA_DM*%
X112556704Y-91722153D03*
X145000000Y-92000000D03*
%TO.N,/USBC_DP*%
X112824998Y-89974998D03*
X122518580Y-102370791D03*
%TO.N,/USBC_DM*%
X121749999Y-104314352D03*
X112000000Y-90000000D03*
%TO.N,/USB_SEL*%
X114175002Y-90024998D03*
X113000000Y-73500000D03*
%TO.N,/BOOT*%
X113000000Y-65000000D03*
X147000000Y-70500000D03*
%TO.N,/USB_DM*%
X115073240Y-91430227D03*
X120000000Y-75500000D03*
%TO.N,/USB_DP*%
X115400000Y-90700000D03*
X121000000Y-75500000D03*
%TD*%
D47*
%TO.N,GND*%
X129350000Y-90200000D02*
X129350000Y-90350000D01*
X113000000Y-75400000D02*
X113000000Y-75500000D01*
X128325000Y-99925000D02*
X128425000Y-99925000D01*
D48*
X112450000Y-94862500D02*
X112650000Y-94662500D01*
D47*
X122575000Y-99925000D02*
X122500000Y-100000000D01*
D48*
X114750000Y-100775000D02*
X114750000Y-100750000D01*
D47*
X127000000Y-75400000D02*
X127000000Y-75500000D01*
D48*
X109450000Y-64200000D02*
X109500000Y-64250000D01*
D47*
X109175000Y-92000000D02*
X109000000Y-92000000D01*
X140000000Y-92725000D02*
X140000000Y-93000000D01*
X118490000Y-83500000D02*
X118500000Y-83500000D01*
D48*
X112650000Y-94662500D02*
X112650000Y-94325132D01*
D47*
X109225000Y-89000000D02*
X109000000Y-89000000D01*
X132450000Y-99950000D02*
X132500000Y-100000000D01*
X142862500Y-93000000D02*
X143000000Y-93000000D01*
X147000000Y-97120000D02*
X147000000Y-97500000D01*
X113000000Y-63300000D02*
X113000000Y-63350000D01*
D48*
X113524998Y-91675002D02*
X113500000Y-91700000D01*
D47*
X132450000Y-99925000D02*
X132450000Y-99950000D01*
X116000000Y-87775000D02*
X116000000Y-88000000D01*
D48*
X112451000Y-95000000D02*
X112451000Y-95145256D01*
D47*
X113000000Y-61400000D02*
X127000000Y-61400000D01*
X118350000Y-66850000D02*
X118500000Y-67000000D01*
X129350000Y-90350000D02*
X129500000Y-90500000D01*
X110550000Y-94862500D02*
X110550000Y-94950000D01*
X117500000Y-94500000D02*
X118000000Y-94500000D01*
X121650000Y-66750000D02*
X121650000Y-70050000D01*
X135040000Y-70500000D02*
X135000000Y-70500000D01*
X122675000Y-99925000D02*
X122575000Y-99925000D01*
D48*
X114500000Y-106250000D02*
X114750000Y-106250000D01*
X114100000Y-91675002D02*
X113524998Y-91675002D01*
X113500000Y-91700000D02*
X113565004Y-91700000D01*
X112650000Y-94325132D02*
X112624868Y-94300000D01*
X114100000Y-91600000D02*
X114100000Y-91675002D01*
D47*
X112450000Y-94999000D02*
X112451000Y-95000000D01*
X113000000Y-63350000D02*
X113000000Y-61400000D01*
X154960000Y-66000000D02*
X155000000Y-66000000D01*
X110550000Y-94950000D02*
X110500000Y-95000000D01*
X118350000Y-68400000D02*
X120000000Y-68400000D01*
X127000000Y-64150000D02*
X127000000Y-64000000D01*
D48*
X113565004Y-91700000D02*
X113590002Y-91675002D01*
D47*
X139787500Y-75000000D02*
X139500000Y-75000000D01*
X118350000Y-66750000D02*
X121650000Y-66750000D01*
X126450000Y-95000000D02*
X126450000Y-95450000D01*
X128425000Y-99925000D02*
X128500000Y-100000000D01*
X131775000Y-67000000D02*
X131500000Y-67000000D01*
D48*
X109450000Y-64000000D02*
X109450000Y-64200000D01*
D47*
X118350000Y-66750000D02*
X118350000Y-70050000D01*
X126450000Y-95450000D02*
X126500000Y-95500000D01*
D48*
X114000000Y-91700000D02*
X114100000Y-91600000D01*
D47*
X121650000Y-70050000D02*
X118350000Y-70050000D01*
%TO.N,+5V*%
X111750000Y-101600000D02*
X107100000Y-106250000D01*
X120637500Y-99925000D02*
X123031250Y-97531250D01*
X112101000Y-97748942D02*
X111750000Y-98099942D01*
X137250000Y-90850000D02*
X137250000Y-94222900D01*
X120862500Y-97137500D02*
X121500000Y-96500000D01*
X138100000Y-90000000D02*
X137250000Y-90850000D01*
X113251000Y-96336500D02*
X112450000Y-97137500D01*
X138100000Y-83850000D02*
X139700000Y-82250000D01*
X106301000Y-93699000D02*
X112873810Y-93699000D01*
X121500000Y-94500000D02*
X121500000Y-96000000D01*
X130550000Y-96000000D02*
X129350000Y-94800000D01*
X138100000Y-90000000D02*
X138100000Y-83850000D01*
X112450000Y-97137500D02*
X112101000Y-97486500D01*
X112873810Y-93699000D02*
X113251000Y-94076190D01*
X127500000Y-97000000D02*
X129350000Y-95150000D01*
X137250000Y-94222900D02*
X135472900Y-96000000D01*
X129350000Y-95150000D02*
X129350000Y-94800000D01*
X111750000Y-98099942D02*
X111750000Y-101600000D01*
X121500000Y-96000000D02*
X123031250Y-97531250D01*
X114750000Y-99225000D02*
X114750000Y-97137500D01*
X124550000Y-96012500D02*
X123562500Y-97000000D01*
X114000000Y-97137500D02*
X114750000Y-97137500D01*
X123562500Y-97000000D02*
X127500000Y-97000000D01*
X114750000Y-97137500D02*
X120862500Y-97137500D01*
X124550000Y-95000000D02*
X124550000Y-96012500D01*
X135472900Y-96000000D02*
X130550000Y-96000000D01*
X112101000Y-97486500D02*
X112101000Y-97748942D01*
X112450000Y-97137500D02*
X114000000Y-97137500D01*
X105500000Y-94500000D02*
X106301000Y-93699000D01*
X123031250Y-97531250D02*
X123562500Y-97000000D01*
X113251000Y-94076190D02*
X113251000Y-96336500D01*
X121500000Y-96500000D02*
X121500000Y-96000000D01*
%TO.N,+3.3V*%
X119500000Y-90500000D02*
X118490000Y-89490000D01*
X126750000Y-91750000D02*
X125500000Y-90500000D01*
X140726000Y-74439558D02*
X140726000Y-75560442D01*
X125500000Y-90500000D02*
X119500000Y-90500000D01*
D48*
X113500000Y-90000000D02*
X113500000Y-88725000D01*
D47*
X116000000Y-86225000D02*
X118305000Y-86225000D01*
X111000000Y-64925000D02*
X109425000Y-66500000D01*
X118490000Y-89490000D02*
X118490000Y-86040000D01*
X130550000Y-99925000D02*
X130550000Y-99950000D01*
X130175000Y-71000000D02*
X133199000Y-74024000D01*
X135873942Y-75976000D02*
X129000000Y-82849942D01*
X129000000Y-88000000D02*
X128000000Y-88000000D01*
X109425000Y-66500000D02*
X109425000Y-67000000D01*
X129350000Y-92500000D02*
X135650000Y-92500000D01*
X127500000Y-92500000D02*
X126750000Y-91750000D01*
X118305000Y-86225000D02*
X118490000Y-86040000D01*
X133199000Y-74024000D02*
X140310442Y-74024000D01*
X140726000Y-75560442D02*
X140310442Y-75976000D01*
X111150000Y-64150000D02*
X111000000Y-64000000D01*
X140310442Y-75976000D02*
X135873942Y-75976000D01*
X130175000Y-71000000D02*
X130000000Y-71000000D01*
X140310442Y-74024000D02*
X140726000Y-74439558D01*
X129350000Y-92500000D02*
X127500000Y-92500000D01*
X129000000Y-82849942D02*
X129000000Y-88000000D01*
X128000000Y-88000000D02*
X125500000Y-90500000D01*
D48*
X113500000Y-88725000D02*
X113612500Y-88612500D01*
D47*
X110775000Y-89000000D02*
X113225000Y-89000000D01*
X113612500Y-88612500D02*
X116000000Y-86225000D01*
X130550000Y-99950000D02*
X130500000Y-100000000D01*
X111000000Y-64925000D02*
X111000000Y-64000000D01*
X113000000Y-64150000D02*
X111150000Y-64150000D01*
X113225000Y-89000000D02*
X113612500Y-88612500D01*
D48*
%TO.N,/EN*%
X133000000Y-70000000D02*
X133000000Y-68000000D01*
X130225000Y-67000000D02*
X130225000Y-65075000D01*
X136040000Y-66000000D02*
X144000000Y-66000000D01*
X136020000Y-66020000D02*
X136040000Y-66000000D01*
X130225000Y-65075000D02*
X130300000Y-65000000D01*
X135020000Y-66020000D02*
X135040000Y-66000000D01*
X133000000Y-68000000D02*
X133040000Y-68000000D01*
X134040000Y-65000000D02*
X135040000Y-66000000D01*
X130300000Y-65000000D02*
X134040000Y-65000000D01*
X133040000Y-68000000D02*
X135020000Y-66020000D01*
X127600000Y-62450000D02*
X127000000Y-62450000D01*
X132000000Y-71000000D02*
X133000000Y-70000000D01*
X130225000Y-65075000D02*
X127600000Y-62450000D01*
X135020000Y-66020000D02*
X136020000Y-66020000D01*
X131825000Y-71000000D02*
X132000000Y-71000000D01*
%TO.N,Net-(D2-A)*%
X134825000Y-75000000D02*
X138212500Y-75000000D01*
%TO.N,Net-(F1-Pad1)*%
X120100000Y-103008032D02*
X117016968Y-99925000D01*
X123783824Y-105000000D02*
X124900000Y-103883824D01*
X121000000Y-105000000D02*
X123783824Y-105000000D01*
X124900000Y-103883824D02*
X124900000Y-103425000D01*
X120100000Y-103425000D02*
X120100000Y-103008032D01*
X117016968Y-99925000D02*
X116362500Y-99925000D01*
X120100000Y-104100000D02*
X121000000Y-105000000D01*
X124900000Y-103425000D02*
X124900000Y-102850001D01*
X120100000Y-103425000D02*
X120100000Y-104100000D01*
D47*
%TO.N,Net-(D3-VBUS)*%
X140000000Y-94275000D02*
X141000000Y-93275000D01*
X146301000Y-90801000D02*
X145000000Y-89500000D01*
X141400000Y-89500000D02*
X140900000Y-90000000D01*
X141000000Y-90100000D02*
X140900000Y-90000000D01*
X145137500Y-93000000D02*
X145774810Y-93000000D01*
X145000000Y-89500000D02*
X141400000Y-89500000D01*
X146301000Y-92473810D02*
X146301000Y-90801000D01*
X140000000Y-97120000D02*
X140000000Y-94275000D01*
X141000000Y-93275000D02*
X141000000Y-90100000D01*
X145774810Y-93000000D02*
X146301000Y-92473810D01*
D48*
%TO.N,/USBA_DP*%
X112052706Y-91100000D02*
X111981336Y-91028630D01*
X112900000Y-91100000D02*
X112052706Y-91100000D01*
%TO.N,Net-(J1-CC1)*%
X121250000Y-102600000D02*
X121250000Y-103425000D01*
X123925000Y-99925000D02*
X121250000Y-102600000D01*
X124325000Y-99925000D02*
X123925000Y-99925000D01*
%TO.N,Net-(J1-CC2)*%
X126675000Y-99925000D02*
X124250000Y-102350000D01*
X124250000Y-102350000D02*
X124250000Y-103425000D01*
%TO.N,Net-(J2-Pin_3)*%
X106175000Y-96500000D02*
X107675000Y-98000000D01*
X105500000Y-96500000D02*
X106175000Y-96500000D01*
%TO.N,Net-(J3-D-)*%
X142200001Y-92050000D02*
X142862500Y-92050000D01*
X142500000Y-97120000D02*
X141899000Y-96519000D01*
X141899000Y-92351001D02*
X142200001Y-92050000D01*
X141899000Y-96519000D02*
X141899000Y-92351001D01*
%TO.N,Net-(R7-Pad1)*%
X110550000Y-97137500D02*
X110187500Y-97137500D01*
X110187500Y-97137500D02*
X109325000Y-98000000D01*
%TO.N,/USBA_DM*%
X145137500Y-92050000D02*
X145050000Y-92050000D01*
X112900000Y-91600000D02*
X112678857Y-91600000D01*
X145050000Y-92050000D02*
X145000000Y-92000000D01*
X112678857Y-91600000D02*
X112556704Y-91722153D01*
%TO.N,Net-(J3-D+)*%
X144500000Y-97120000D02*
X144500000Y-96500000D01*
X144500000Y-96500000D02*
X142862500Y-94862500D01*
X142862500Y-94862500D02*
X142862500Y-93950000D01*
%TO.N,/USBC_DP*%
X122549000Y-102401211D02*
X122518580Y-102370791D01*
X122982824Y-102549000D02*
X123250000Y-102816176D01*
X122250000Y-102816176D02*
X122517176Y-102549000D01*
X122517176Y-102549000D02*
X122549000Y-102549000D01*
X122250000Y-103425000D02*
X122250000Y-102816176D01*
X112900000Y-90050000D02*
X112824998Y-89974998D01*
X112900000Y-90100000D02*
X112900000Y-90050000D01*
X123250000Y-102816176D02*
X123250000Y-103425000D01*
X122549000Y-102549000D02*
X122982824Y-102549000D01*
X122549000Y-102549000D02*
X122549000Y-102401211D01*
%TO.N,/USBC_DM*%
X112600000Y-90600000D02*
X112526000Y-90526000D01*
X121750000Y-103425000D02*
X121749999Y-104314352D01*
X121750000Y-103425000D02*
X121750000Y-104033824D01*
X112309000Y-90526000D02*
X112309000Y-90309000D01*
X122482824Y-104301000D02*
X122750000Y-104033824D01*
X112309000Y-90309000D02*
X112000000Y-90000000D01*
X112526000Y-90526000D02*
X112309000Y-90526000D01*
X121750000Y-104033824D02*
X122017176Y-104301000D01*
X122750000Y-104033824D02*
X122750000Y-103425000D01*
X112900000Y-90600000D02*
X112600000Y-90600000D01*
X122017176Y-104301000D02*
X122482824Y-104301000D01*
%TO.N,Net-(J4-Pad2)*%
X105500000Y-79000000D02*
X105500000Y-81100000D01*
X106000000Y-78500000D02*
X105500000Y-79000000D01*
X107000000Y-78500000D02*
X106000000Y-78500000D01*
%TO.N,Net-(J4-Pad3)*%
X109400000Y-82000000D02*
X114738000Y-82000000D01*
X126151000Y-84691000D02*
X127500000Y-86040000D01*
X114738000Y-82000000D02*
X117429000Y-84691000D01*
X117429000Y-84691000D02*
X126151000Y-84691000D01*
X108500000Y-81100000D02*
X109400000Y-82000000D01*
%TO.N,/STATUS*%
X133175000Y-75000000D02*
X131175000Y-77000000D01*
X109500000Y-75950000D02*
X112800000Y-72650000D01*
X131175000Y-77000000D02*
X109500000Y-77000000D01*
X112800000Y-72650000D02*
X113000000Y-72650000D01*
X109500000Y-77000000D02*
X109500000Y-75950000D01*
%TO.N,Net-(R8-Pad2)*%
X129000000Y-82000000D02*
X129000000Y-78500000D01*
X129000000Y-78500000D02*
X108650000Y-78500000D01*
X127500000Y-83500000D02*
X129000000Y-82000000D01*
%TO.N,/USB_SEL*%
X114100000Y-90100000D02*
X114175002Y-90024998D01*
X116000000Y-93000000D02*
X116000000Y-90100000D01*
X110825000Y-92000000D02*
X111825000Y-93000000D01*
X111825000Y-93000000D02*
X116000000Y-93000000D01*
X116000000Y-90100000D02*
X114100000Y-90100000D01*
%TO.N,/BOOT*%
X111075000Y-67000000D02*
X111075000Y-66525000D01*
X111075000Y-66525000D02*
X112600000Y-65000000D01*
X147000000Y-70500000D02*
X154960000Y-70500000D01*
X112600000Y-65000000D02*
X113000000Y-65000000D01*
%TO.N,/LED_DATA_3V3*%
X105359032Y-98776000D02*
X104424000Y-97840968D01*
X104199000Y-81431785D02*
X104199000Y-77001000D01*
X104424000Y-85576000D02*
X106383608Y-83616393D01*
X104424000Y-97840968D02*
X104424000Y-85576000D01*
X111500000Y-94862500D02*
X111500000Y-97500000D01*
X104199000Y-77001000D02*
X112800000Y-68400000D01*
X111500000Y-97500000D02*
X110224000Y-98776000D01*
X106383608Y-83616393D02*
X104199000Y-81431785D01*
X112800000Y-68400000D02*
X113000000Y-68400000D01*
X110224000Y-98776000D02*
X105359032Y-98776000D01*
%TO.N,/USB_DM*%
X114100000Y-91100000D02*
X114743013Y-91100000D01*
X114743013Y-91100000D02*
X115073240Y-91430227D01*
X120000000Y-75400000D02*
X120000000Y-75500000D01*
%TO.N,/USB_DP*%
X120900000Y-75400000D02*
X121000000Y-75500000D01*
X115400000Y-90700000D02*
X114807582Y-90700000D01*
X114807582Y-90700000D02*
X114707582Y-90600000D01*
X114707582Y-90600000D02*
X114100000Y-90600000D01*
X120850000Y-75400000D02*
X120900000Y-75400000D01*
%TO.N,/MIDI_RX*%
X112648000Y-69250000D02*
X113000000Y-69250000D01*
X107949000Y-73949000D02*
X112648000Y-69250000D01*
X107949000Y-78988064D02*
X107949000Y-73949000D01*
X118490000Y-80960000D02*
X116806000Y-79276000D01*
X108236936Y-79276000D02*
X107949000Y-78988064D01*
X116806000Y-79276000D02*
X108236936Y-79276000D01*
%TD*%
M02*
