%TF.GenerationSoftware,KiCad,Pcbnew,9.0.4*%
%TF.CreationDate,2026-05-31T13:44:59-07:00*%
%TF.ProjectId,controller_v2,636f6e74-726f-46c6-9c65-725f76322e6b,rev?*%
%TF.SameCoordinates,Original*%
%TF.FileFunction,Paste,Top*%
%TF.FilePolarity,Positive*%
%FSLAX46Y46*%
G04 Gerber Fmt 4.6, Leading zero omitted, Abs format (unit mm)*
G04 Created by KiCad (PCBNEW 9.0.4) date 2026-05-31 13:44:59*
%MOMM*%
%LPD*%
G01*
G04 APERTURE LIST*
G04 Aperture macros list*
%AMRoundRect*
0 Rectangle with rounded corners*
0 $1 Rounding radius*
0 $2 $3 $4 $5 $6 $7 $8 $9 X,Y pos of 4 corners*
0 Add a 4 corners polygon primitive as box body*
4,1,4,$2,$3,$4,$5,$6,$7,$8,$9,$2,$3,0*
0 Add four circle primitives for the rounded corners*
1,1,$1+$1,$2,$3*
1,1,$1+$1,$4,$5*
1,1,$1+$1,$6,$7*
1,1,$1+$1,$8,$9*
0 Add four rect primitives between the rounded corners*
20,1,$1+$1,$2,$3,$4,$5,0*
20,1,$1+$1,$4,$5,$6,$7,0*
20,1,$1+$1,$6,$7,$8,$9,0*
20,1,$1+$1,$8,$9,$2,$3,0*%
%AMOutline5P*
0 Free polygon, 5 corners , with rotation*
0 The origin of the aperture is its center*
0 number of corners: always 5*
0 $1 to $10 corner X, Y*
0 $11 Rotation angle, in degrees counterclockwise*
0 create outline with 5 corners*
4,1,5,$1,$2,$3,$4,$5,$6,$7,$8,$9,$10,$1,$2,$11*%
%AMOutline6P*
0 Free polygon, 6 corners , with rotation*
0 The origin of the aperture is its center*
0 number of corners: always 6*
0 $1 to $12 corner X, Y*
0 $13 Rotation angle, in degrees counterclockwise*
0 create outline with 6 corners*
4,1,6,$1,$2,$3,$4,$5,$6,$7,$8,$9,$10,$11,$12,$1,$2,$13*%
%AMOutline7P*
0 Free polygon, 7 corners , with rotation*
0 The origin of the aperture is its center*
0 number of corners: always 7*
0 $1 to $14 corner X, Y*
0 $15 Rotation angle, in degrees counterclockwise*
0 create outline with 7 corners*
4,1,7,$1,$2,$3,$4,$5,$6,$7,$8,$9,$10,$11,$12,$13,$14,$1,$2,$15*%
%AMOutline8P*
0 Free polygon, 8 corners , with rotation*
0 The origin of the aperture is its center*
0 number of corners: always 8*
0 $1 to $16 corner X, Y*
0 $17 Rotation angle, in degrees counterclockwise*
0 create outline with 8 corners*
4,1,8,$1,$2,$3,$4,$5,$6,$7,$8,$9,$10,$11,$12,$13,$14,$15,$16,$1,$2,$17*%
G04 Aperture macros list end*
%ADD10RoundRect,0.200000X-0.200000X-0.275000X0.200000X-0.275000X0.200000X0.275000X-0.200000X0.275000X0*%
%ADD11R,0.580000X0.250000*%
%ADD12R,0.350000X0.630000*%
%ADD13RoundRect,0.150000X-0.150000X-0.425000X0.150000X-0.425000X0.150000X0.425000X-0.150000X0.425000X0*%
%ADD14RoundRect,0.075000X-0.075000X-0.500000X0.075000X-0.500000X0.075000X0.500000X-0.075000X0.500000X0*%
%ADD15O,1.000000X2.100000*%
%ADD16O,1.000000X1.800000*%
%ADD17RoundRect,0.250000X-1.500000X-0.550000X1.500000X-0.550000X1.500000X0.550000X-1.500000X0.550000X0*%
%ADD18RoundRect,0.225000X0.250000X-0.225000X0.250000X0.225000X-0.250000X0.225000X-0.250000X-0.225000X0*%
%ADD19RoundRect,0.225000X-0.250000X0.225000X-0.250000X-0.225000X0.250000X-0.225000X0.250000X0.225000X0*%
%ADD20RoundRect,0.225000X-0.225000X-0.250000X0.225000X-0.250000X0.225000X0.250000X-0.225000X0.250000X0*%
%ADD21RoundRect,0.150000X-0.150000X0.512500X-0.150000X-0.512500X0.150000X-0.512500X0.150000X0.512500X0*%
%ADD22RoundRect,0.150000X-0.512500X-0.150000X0.512500X-0.150000X0.512500X0.150000X-0.512500X0.150000X0*%
%ADD23RoundRect,0.250000X-0.250000X-0.475000X0.250000X-0.475000X0.250000X0.475000X-0.250000X0.475000X0*%
%ADD24RoundRect,0.250000X-1.950000X-1.000000X1.950000X-1.000000X1.950000X1.000000X-1.950000X1.000000X0*%
%ADD25RoundRect,0.250000X-0.525000X-0.400000X0.525000X-0.400000X0.525000X0.400000X-0.525000X0.400000X0*%
%ADD26R,1.520000X1.780000*%
%ADD27RoundRect,0.225000X0.225000X0.250000X-0.225000X0.250000X-0.225000X-0.250000X0.225000X-0.250000X0*%
%ADD28RoundRect,0.200000X0.200000X0.275000X-0.200000X0.275000X-0.200000X-0.275000X0.200000X-0.275000X0*%
%ADD29RoundRect,0.250000X-1.000000X-0.650000X1.000000X-0.650000X1.000000X0.650000X-1.000000X0.650000X0*%
%ADD30RoundRect,0.250000X-0.312500X-1.450000X0.312500X-1.450000X0.312500X1.450000X-0.312500X1.450000X0*%
%ADD31RoundRect,0.375000X-0.625000X-0.375000X0.625000X-0.375000X0.625000X0.375000X-0.625000X0.375000X0*%
%ADD32RoundRect,0.500000X-0.500000X-1.400000X0.500000X-1.400000X0.500000X1.400000X-0.500000X1.400000X0*%
%ADD33RoundRect,0.218750X0.218750X0.256250X-0.218750X0.256250X-0.218750X-0.256250X0.218750X-0.256250X0*%
%ADD34RoundRect,0.250000X0.375000X0.625000X-0.375000X0.625000X-0.375000X-0.625000X0.375000X-0.625000X0*%
%ADD35R,0.800000X0.400000*%
%ADD36R,0.400000X0.800000*%
%ADD37Outline5P,-0.600000X0.204000X-0.204000X0.600000X0.600000X0.600000X0.600000X-0.600000X-0.600000X-0.600000X0.000000*%
%ADD38R,1.200000X1.200000*%
%ADD39R,0.800000X0.800000*%
%ADD40R,1.250000X3.000000*%
%ADD41RoundRect,0.150000X-0.625000X0.150000X-0.625000X-0.150000X0.625000X-0.150000X0.625000X0.150000X0*%
%ADD42RoundRect,0.250000X-0.650000X0.350000X-0.650000X-0.350000X0.650000X-0.350000X0.650000X0.350000X0*%
G04 APERTURE END LIST*
D10*
%TO.C,R8*%
X107000000Y-78500000D03*
X108650000Y-78500000D03*
%TD*%
D11*
%TO.C,U3*%
X112900000Y-90100000D03*
X112900000Y-90600000D03*
X112900000Y-91100000D03*
X112900000Y-91600000D03*
D12*
X113500000Y-91700000D03*
D11*
X114100000Y-91600000D03*
X114100000Y-91100000D03*
X114100000Y-90600000D03*
X114100000Y-90100000D03*
D12*
X113500000Y-90000000D03*
%TD*%
D13*
%TO.C,J1*%
X119300000Y-103425000D03*
X120100000Y-103425000D03*
D14*
X121250000Y-103425000D03*
X122250000Y-103425000D03*
X122750000Y-103425000D03*
X123750000Y-103425000D03*
D13*
X124900000Y-103425000D03*
X125700000Y-103425000D03*
X125700000Y-103425000D03*
X124900000Y-103425000D03*
D14*
X124250000Y-103425000D03*
X123250000Y-103425000D03*
X121750000Y-103425000D03*
X120750000Y-103425000D03*
D13*
X120100000Y-103425000D03*
X119300000Y-103425000D03*
D15*
X118180000Y-104000000D03*
D16*
X118180000Y-108180000D03*
D15*
X126820000Y-104000000D03*
D16*
X126820000Y-108180000D03*
%TD*%
D17*
%TO.C,C1*%
X139700000Y-82250000D03*
X145300000Y-82250000D03*
%TD*%
D18*
%TO.C,C17*%
X116000000Y-87775000D03*
X116000000Y-86225000D03*
%TD*%
D10*
%TO.C,R10*%
X109175000Y-92000000D03*
X110825000Y-92000000D03*
%TD*%
D19*
%TO.C,C7*%
X114750000Y-99225000D03*
X114750000Y-100775000D03*
%TD*%
D20*
%TO.C,C13*%
X130225000Y-67000000D03*
X131775000Y-67000000D03*
%TD*%
D21*
%TO.C,U2*%
X112450000Y-94862500D03*
X111500000Y-94862500D03*
X110550000Y-94862500D03*
X110550000Y-97137500D03*
X112450000Y-97137500D03*
%TD*%
D22*
%TO.C,D3*%
X142862500Y-92050000D03*
X142862500Y-93000000D03*
X142862500Y-93950000D03*
X145137500Y-93950000D03*
X145137500Y-93000000D03*
X145137500Y-92050000D03*
%TD*%
D23*
%TO.C,C2*%
X124550000Y-95000000D03*
X126450000Y-95000000D03*
%TD*%
D24*
%TO.C,C3*%
X107100000Y-106250000D03*
X114500000Y-106250000D03*
%TD*%
D25*
%TO.C,SW2*%
X147000000Y-66000000D03*
X154960000Y-66000000D03*
X147000000Y-70500000D03*
X154960000Y-70500000D03*
%TD*%
D26*
%TO.C,U5*%
X127500000Y-86040000D03*
X127500000Y-83500000D03*
X127500000Y-80960000D03*
X118490000Y-80960000D03*
X118490000Y-83500000D03*
X118490000Y-86040000D03*
%TD*%
D27*
%TO.C,C4*%
X111000000Y-64000000D03*
X109450000Y-64000000D03*
%TD*%
D28*
%TO.C,R11*%
X111075000Y-67000000D03*
X109425000Y-67000000D03*
%TD*%
D29*
%TO.C,D1*%
X117500000Y-94500000D03*
X121500000Y-94500000D03*
%TD*%
D10*
%TO.C,R1*%
X122675000Y-99925000D03*
X124325000Y-99925000D03*
%TD*%
%TO.C,R3*%
X130175000Y-71000000D03*
X131825000Y-71000000D03*
%TD*%
D20*
%TO.C,C16*%
X109225000Y-89000000D03*
X110775000Y-89000000D03*
%TD*%
D10*
%TO.C,R4*%
X133175000Y-75000000D03*
X134825000Y-75000000D03*
%TD*%
D30*
%TO.C,F1*%
X116362500Y-99925000D03*
X120637500Y-99925000D03*
%TD*%
D31*
%TO.C,U4*%
X129350000Y-90200000D03*
X129350000Y-92500000D03*
D32*
X135650000Y-92500000D03*
D31*
X129350000Y-94800000D03*
%TD*%
D23*
%TO.C,C15*%
X130550000Y-99925000D03*
X132450000Y-99925000D03*
%TD*%
D33*
%TO.C,D2*%
X139787500Y-75000000D03*
X138212500Y-75000000D03*
%TD*%
D34*
%TO.C,F2*%
X140900000Y-90000000D03*
X138100000Y-90000000D03*
%TD*%
D35*
%TO.C,U1*%
X113000000Y-62450000D03*
X113000000Y-63300000D03*
X113000000Y-64150000D03*
X113000000Y-65000000D03*
X113000000Y-65850000D03*
X113000000Y-66700000D03*
X113000000Y-67550000D03*
X113000000Y-68400000D03*
X113000000Y-69250000D03*
X113000000Y-70100000D03*
X113000000Y-70950000D03*
X113000000Y-71800000D03*
X113000000Y-72650000D03*
X113000000Y-73500000D03*
X113000000Y-74350000D03*
D36*
X114050000Y-75400000D03*
X114900000Y-75400000D03*
X115750000Y-75400000D03*
X116600000Y-75400000D03*
X117450000Y-75400000D03*
X118300000Y-75400000D03*
X119150000Y-75400000D03*
X120000000Y-75400000D03*
X120850000Y-75400000D03*
X121700000Y-75400000D03*
X122550000Y-75400000D03*
X123400000Y-75400000D03*
X124250000Y-75400000D03*
X125100000Y-75400000D03*
X125950000Y-75400000D03*
D35*
X127000000Y-74350000D03*
X127000000Y-73500000D03*
X127000000Y-72650000D03*
X127000000Y-71800000D03*
X127000000Y-70950000D03*
X127000000Y-70100000D03*
X127000000Y-69250000D03*
X127000000Y-68400000D03*
X127000000Y-67550000D03*
X127000000Y-66700000D03*
X127000000Y-65850000D03*
X127000000Y-65000000D03*
X127000000Y-64150000D03*
X127000000Y-63300000D03*
X127000000Y-62450000D03*
D36*
X125950000Y-61400000D03*
X125100000Y-61400000D03*
X124250000Y-61400000D03*
X123400000Y-61400000D03*
X122550000Y-61400000D03*
X121700000Y-61400000D03*
X120850000Y-61400000D03*
X120000000Y-61400000D03*
X119150000Y-61400000D03*
X118300000Y-61400000D03*
X117450000Y-61400000D03*
X116600000Y-61400000D03*
X115750000Y-61400000D03*
X114900000Y-61400000D03*
X114050000Y-61400000D03*
D37*
X118350000Y-66750000D03*
D38*
X118350000Y-68400000D03*
X118350000Y-70050000D03*
X120000000Y-66750000D03*
X120000000Y-68400000D03*
X120000000Y-70050000D03*
X121650000Y-66750000D03*
X121650000Y-68400000D03*
X121650000Y-70050000D03*
D39*
X113000000Y-61400000D03*
X113000000Y-75400000D03*
X127000000Y-75400000D03*
X127000000Y-61400000D03*
%TD*%
D25*
%TO.C,SW1*%
X136040000Y-66000000D03*
X144000000Y-66000000D03*
X136040000Y-70500000D03*
X144000000Y-70500000D03*
%TD*%
D10*
%TO.C,R2*%
X126675000Y-99925000D03*
X128325000Y-99925000D03*
%TD*%
D40*
%TO.C,J3*%
X140000000Y-97120000D03*
X142500000Y-97120000D03*
X144500000Y-97120000D03*
X147000000Y-97120000D03*
%TD*%
D41*
%TO.C,J2*%
X105500000Y-94500000D03*
X105500000Y-95500000D03*
X105500000Y-96500000D03*
X105500000Y-97500000D03*
D42*
X101625000Y-93200000D03*
X101625000Y-98800000D03*
%TD*%
D28*
%TO.C,R7*%
X109325000Y-98000000D03*
X107675000Y-98000000D03*
%TD*%
D18*
%TO.C,C18*%
X140000000Y-94275000D03*
X140000000Y-92725000D03*
%TD*%
M02*
