%TF.GenerationSoftware,KiCad,Pcbnew,9.0.4*%
%TF.CreationDate,2026-05-31T13:44:59-07:00*%
%TF.ProjectId,controller_v2,636f6e74-726f-46c6-9c65-725f76322e6b,rev?*%
%TF.SameCoordinates,Original*%
%TF.FileFunction,Copper,L2,Bot*%
%TF.FilePolarity,Positive*%
%FSLAX46Y46*%
G04 Gerber Fmt 4.6, Leading zero omitted, Abs format (unit mm)*
G04 Created by KiCad (PCBNEW 9.0.4) date 2026-05-31 13:44:59*
%MOMM*%
%LPD*%
G01*
G04 APERTURE LIST*
%TA.AperFunction,HeatsinkPad*%
%ADD10O,1.000000X2.100000*%
%TD*%
%TA.AperFunction,HeatsinkPad*%
%ADD11O,1.000000X1.800000*%
%TD*%
%TA.AperFunction,ComponentPad*%
%ADD12C,1.600000*%
%TD*%
%TA.AperFunction,ComponentPad*%
%ADD13O,2.000000X1.000000*%
%TD*%
%TA.AperFunction,HeatsinkPad*%
%ADD14C,3.000000*%
%TD*%
%TA.AperFunction,ViaPad*%
%ADD15C,0.600000*%
%TD*%
%TA.AperFunction,Conductor*%
%ADD16C,0.200000*%
%TD*%
%TA.AperFunction,Conductor*%
%ADD17C,0.600000*%
%TD*%
G04 APERTURE END LIST*
D10*
%TO.P,J1,S1,SHIELD*%
%TO.N,GND*%
X118180000Y-104000000D03*
D11*
X118180000Y-108180000D03*
D10*
X126820000Y-104000000D03*
D11*
X126820000Y-108180000D03*
%TD*%
D12*
%TO.P,J4,*%
%TO.N,*%
X103900000Y-83500000D03*
X110900000Y-83500000D03*
D13*
%TO.P,J4,2,2*%
%TO.N,Net-(J4-Pad2)*%
X105500000Y-81100000D03*
%TO.P,J4,3,3*%
%TO.N,Net-(J4-Pad3)*%
X108500000Y-81100000D03*
%TO.P,J4,4,4*%
%TO.N,unconnected-(J4-Pad4)*%
X112500000Y-81100000D03*
%TO.P,J4,5,5*%
%TO.N,unconnected-(J4-Pad5)*%
X113500000Y-85900000D03*
%TD*%
D14*
%TO.P,J3,5,Shield*%
%TO.N,GND*%
X136930000Y-100800000D03*
X150070000Y-100800000D03*
%TD*%
D15*
%TO.N,GND*%
X143000000Y-70500000D03*
X147000000Y-97500000D03*
X118500000Y-83500000D03*
X127000000Y-75500000D03*
X109000000Y-92000000D03*
X132500000Y-100000000D03*
X143000000Y-93000000D03*
X145300000Y-82250000D03*
X140000000Y-93000000D03*
X109000000Y-89000000D03*
X112451000Y-95000000D03*
X110500000Y-95000000D03*
X105500000Y-95500000D03*
X113000000Y-75500000D03*
X131500000Y-67000000D03*
X125700000Y-103425000D03*
X135000000Y-70500000D03*
X114750000Y-100750000D03*
X113590002Y-91675002D03*
X122500000Y-100000000D03*
X119300000Y-103425000D03*
X139500000Y-75000000D03*
X118000000Y-94500000D03*
X120000000Y-66750000D03*
X147000000Y-66000000D03*
X127000000Y-64000000D03*
X155000000Y-66000000D03*
X128500000Y-100000000D03*
X113000000Y-63350000D03*
X127000000Y-65000000D03*
X114750000Y-106250000D03*
X126500000Y-95500000D03*
X116000000Y-88000000D03*
X129500000Y-90500000D03*
X109500000Y-64250000D03*
%TO.N,+3.3V*%
X130500000Y-100000000D03*
X135650000Y-92500000D03*
X130000000Y-71000000D03*
X109425000Y-67000000D03*
%TO.N,/USBA_DP*%
X145137500Y-93950000D03*
X111981336Y-91028630D03*
%TO.N,/USBA_DM*%
X112556704Y-91722153D03*
X145000000Y-92000000D03*
%TO.N,/USBC_DP*%
X112824998Y-89974998D03*
X122518580Y-102370791D03*
%TO.N,/USBC_DM*%
X121749999Y-104314352D03*
X112000000Y-90000000D03*
%TO.N,/USB_SEL*%
X114175002Y-90024998D03*
X113000000Y-73500000D03*
%TO.N,/BOOT*%
X113000000Y-65000000D03*
X147000000Y-70500000D03*
%TO.N,/USB_DM*%
X115073240Y-91430227D03*
X120000000Y-75500000D03*
%TO.N,/USB_DP*%
X115400000Y-90700000D03*
X121000000Y-75500000D03*
%TD*%
D16*
%TO.N,GND*%
X112677232Y-89048000D02*
X111605668Y-89048000D01*
X111605668Y-89048000D02*
X110397943Y-90255726D01*
X113590002Y-91675002D02*
X113590002Y-89960770D01*
X110397943Y-90255726D02*
X110397943Y-92946943D01*
X113590002Y-89960770D02*
X112677232Y-89048000D01*
X110397943Y-92946943D02*
X112451000Y-95000000D01*
D17*
%TO.N,+3.3V*%
X135650000Y-94850000D02*
X130500000Y-100000000D01*
X113925000Y-71000000D02*
X109925000Y-67000000D01*
X113925000Y-71000000D02*
X130000000Y-71000000D01*
X135650000Y-92500000D02*
X135650000Y-94850000D01*
X109925000Y-67000000D02*
X109425000Y-67000000D01*
D16*
%TO.N,/USBA_DP*%
X134000000Y-93000000D02*
X135500000Y-91500000D01*
X111981336Y-91028630D02*
X111955704Y-91054262D01*
X111955704Y-91054262D02*
X111955704Y-91971096D01*
X135500000Y-91500000D02*
X143932900Y-91500000D01*
X143966450Y-91533550D02*
X143966450Y-92966450D01*
X111955704Y-91971096D02*
X112984608Y-93000000D01*
X143932900Y-91500000D02*
X143966450Y-91533550D01*
X145087500Y-94000000D02*
X145137500Y-93950000D01*
X112984608Y-93000000D02*
X134000000Y-93000000D01*
X145000000Y-94000000D02*
X145087500Y-94000000D01*
X143966450Y-92966450D02*
X145000000Y-94000000D01*
%TO.N,/USBA_DM*%
X112556704Y-91722153D02*
X113334551Y-92500000D01*
X133500000Y-92500000D02*
X135000000Y-91000000D01*
X113334551Y-92500000D02*
X133500000Y-92500000D01*
X135000000Y-91000000D02*
X144000000Y-91000000D01*
X144000000Y-91000000D02*
X145000000Y-92000000D01*
%TO.N,/USBC_DP*%
X110748943Y-90401114D02*
X110748943Y-92748943D01*
X111751057Y-89399000D02*
X110748943Y-90401114D01*
X112824998Y-89974998D02*
X112249000Y-89399000D01*
X121148999Y-102848056D02*
X121148999Y-104424056D01*
X121148999Y-104424056D02*
X121148999Y-104563295D01*
X121998942Y-104915352D02*
X122518580Y-104395714D01*
X112249000Y-89399000D02*
X111751057Y-89399000D01*
X111000000Y-93000000D02*
X111300943Y-93000000D01*
X111300943Y-93000000D02*
X121148999Y-102848056D01*
X121501056Y-104915352D02*
X121998942Y-104915352D01*
X110748943Y-92748943D02*
X111000000Y-93000000D01*
X122518580Y-104395714D02*
X122518580Y-102370791D01*
X121148999Y-104563295D02*
X121501056Y-104915352D01*
%TO.N,/USBC_DM*%
X121749999Y-102749999D02*
X121749999Y-104314352D01*
X111380336Y-92380336D02*
X121749999Y-102749999D01*
X111380336Y-90619664D02*
X111380336Y-92380336D01*
X112000000Y-90000000D02*
X111380336Y-90619664D01*
%TO.N,/USB_SEL*%
X115000000Y-75500000D02*
X113000000Y-73500000D01*
X115000000Y-88000000D02*
X115000000Y-75500000D01*
X114175002Y-88824998D02*
X115000000Y-88000000D01*
X114175002Y-90024998D02*
X114175002Y-88824998D01*
%TO.N,/BOOT*%
X122000000Y-65000000D02*
X113000000Y-65000000D01*
X144051000Y-67551000D02*
X124551000Y-67551000D01*
X147000000Y-70500000D02*
X144051000Y-67551000D01*
X124551000Y-67551000D02*
X122000000Y-65000000D01*
%TO.N,/USB_DM*%
X115073240Y-91430227D02*
X115519716Y-91430227D01*
X115519716Y-91430227D02*
X120000000Y-86949943D01*
X120000000Y-86949943D02*
X120000000Y-75500000D01*
%TO.N,/USB_DP*%
X119500000Y-75849943D02*
X119399000Y-75748943D01*
X119399000Y-75748943D02*
X119399000Y-75251057D01*
X115400000Y-90700000D02*
X119500000Y-86600000D01*
X119751057Y-74899000D02*
X120399000Y-74899000D01*
X119500000Y-86600000D02*
X119500000Y-75849943D01*
X120399000Y-74899000D02*
X121000000Y-75500000D01*
X119399000Y-75251057D02*
X119751057Y-74899000D01*
%TD*%
%TA.AperFunction,Conductor*%
%TO.N,GND*%
G36*
X113518334Y-90516255D02*
G01*
X113562681Y-90544756D01*
X113664709Y-90646784D01*
X113664713Y-90646787D01*
X113795816Y-90734388D01*
X113795829Y-90734395D01*
X113914161Y-90783409D01*
X113941505Y-90794735D01*
X114089102Y-90824094D01*
X114096155Y-90825497D01*
X114096158Y-90825498D01*
X114096160Y-90825498D01*
X114253843Y-90825498D01*
X114253844Y-90825498D01*
X114260901Y-90824094D01*
X114330492Y-90830320D01*
X114385671Y-90873181D01*
X114408917Y-90939071D01*
X114392851Y-91007068D01*
X114388198Y-91014600D01*
X114363851Y-91051038D01*
X114363842Y-91051054D01*
X114303504Y-91196725D01*
X114303501Y-91196737D01*
X114272740Y-91351380D01*
X114272740Y-91509073D01*
X114303501Y-91663716D01*
X114303504Y-91663728D01*
X114330146Y-91728048D01*
X114337615Y-91797518D01*
X114306339Y-91859997D01*
X114246250Y-91895648D01*
X114215585Y-91899500D01*
X113634649Y-91899500D01*
X113605208Y-91890855D01*
X113575222Y-91884332D01*
X113570206Y-91880577D01*
X113567610Y-91879815D01*
X113546968Y-91863181D01*
X113391277Y-91707490D01*
X113357792Y-91646167D01*
X113357341Y-91644000D01*
X113330501Y-91509069D01*
X113326441Y-91488656D01*
X113326439Y-91488651D01*
X113266101Y-91342980D01*
X113266094Y-91342967D01*
X113178493Y-91211864D01*
X113178490Y-91211860D01*
X113066996Y-91100366D01*
X113066992Y-91100363D01*
X112935889Y-91012762D01*
X112935877Y-91012756D01*
X112916173Y-91004594D01*
X112861771Y-90960752D01*
X112839707Y-90894458D01*
X112856987Y-90826759D01*
X112908125Y-90779149D01*
X112939435Y-90768417D01*
X113058495Y-90744735D01*
X113204177Y-90684392D01*
X113335287Y-90596787D01*
X113335290Y-90596784D01*
X113387319Y-90544756D01*
X113448642Y-90511271D01*
X113518334Y-90516255D01*
G37*
%TD.AperFunction*%
%TA.AperFunction,Conductor*%
G36*
X156442539Y-55520185D02*
G01*
X156488294Y-55572989D01*
X156499500Y-55624500D01*
X156499500Y-110875500D01*
X156479815Y-110942539D01*
X156427011Y-110988294D01*
X156375500Y-110999500D01*
X100624500Y-110999500D01*
X100557461Y-110979815D01*
X100511706Y-110927011D01*
X100500500Y-110875500D01*
X100500500Y-108901577D01*
X101249500Y-108901577D01*
X101249500Y-109098422D01*
X101280290Y-109292826D01*
X101341117Y-109480029D01*
X101430476Y-109655405D01*
X101546172Y-109814646D01*
X101685354Y-109953828D01*
X101844595Y-110069524D01*
X101927455Y-110111743D01*
X102019970Y-110158882D01*
X102019972Y-110158882D01*
X102019975Y-110158884D01*
X102120317Y-110191487D01*
X102207173Y-110219709D01*
X102401578Y-110250500D01*
X102401583Y-110250500D01*
X102598422Y-110250500D01*
X102792826Y-110219709D01*
X102980025Y-110158884D01*
X103155405Y-110069524D01*
X103314646Y-109953828D01*
X103453828Y-109814646D01*
X103569524Y-109655405D01*
X103658884Y-109480025D01*
X103719709Y-109292826D01*
X103731645Y-109217466D01*
X103750500Y-109098422D01*
X103750500Y-108901577D01*
X103719709Y-108707173D01*
X103658882Y-108519970D01*
X103615553Y-108434933D01*
X103615552Y-108434931D01*
X103569525Y-108344596D01*
X103552144Y-108320674D01*
X103453828Y-108185354D01*
X103314646Y-108046172D01*
X103155405Y-107930476D01*
X103154471Y-107930000D01*
X102980029Y-107841117D01*
X102833011Y-107793348D01*
X102792826Y-107780290D01*
X102598422Y-107749500D01*
X102598417Y-107749500D01*
X102401583Y-107749500D01*
X102401578Y-107749500D01*
X102207173Y-107780290D01*
X102019970Y-107841117D01*
X101844594Y-107930476D01*
X101753741Y-107996485D01*
X101685354Y-108046172D01*
X101685352Y-108046174D01*
X101685351Y-108046174D01*
X101546174Y-108185351D01*
X101546174Y-108185352D01*
X101546172Y-108185354D01*
X101496485Y-108253741D01*
X101430476Y-108344594D01*
X101341117Y-108519970D01*
X101280290Y-108707173D01*
X101249500Y-108901577D01*
X100500500Y-108901577D01*
X100500500Y-107681504D01*
X117180000Y-107681504D01*
X117180000Y-107930000D01*
X117880000Y-107930000D01*
X117880000Y-108430000D01*
X117180000Y-108430000D01*
X117180000Y-108678495D01*
X117218427Y-108871681D01*
X117218430Y-108871693D01*
X117293807Y-109053671D01*
X117293814Y-109053684D01*
X117403248Y-109217462D01*
X117403251Y-109217466D01*
X117542533Y-109356748D01*
X117542537Y-109356751D01*
X117706315Y-109466185D01*
X117706328Y-109466192D01*
X117888308Y-109541569D01*
X117930000Y-109549862D01*
X117930000Y-108746988D01*
X117939940Y-108764205D01*
X117995795Y-108820060D01*
X118064204Y-108859556D01*
X118140504Y-108880000D01*
X118219496Y-108880000D01*
X118295796Y-108859556D01*
X118364205Y-108820060D01*
X118420060Y-108764205D01*
X118430000Y-108746988D01*
X118430000Y-109549862D01*
X118471690Y-109541569D01*
X118471692Y-109541569D01*
X118653671Y-109466192D01*
X118653684Y-109466185D01*
X118817462Y-109356751D01*
X118817466Y-109356748D01*
X118956748Y-109217466D01*
X118956751Y-109217462D01*
X119066185Y-109053684D01*
X119066192Y-109053671D01*
X119141569Y-108871693D01*
X119141572Y-108871681D01*
X119179999Y-108678495D01*
X119180000Y-108678492D01*
X119180000Y-108430000D01*
X118480000Y-108430000D01*
X118480000Y-107930000D01*
X119180000Y-107930000D01*
X119180000Y-107681508D01*
X119179999Y-107681504D01*
X125820000Y-107681504D01*
X125820000Y-107930000D01*
X126520000Y-107930000D01*
X126520000Y-108430000D01*
X125820000Y-108430000D01*
X125820000Y-108678495D01*
X125858427Y-108871681D01*
X125858430Y-108871693D01*
X125933807Y-109053671D01*
X125933814Y-109053684D01*
X126043248Y-109217462D01*
X126043251Y-109217466D01*
X126182533Y-109356748D01*
X126182537Y-109356751D01*
X126346315Y-109466185D01*
X126346328Y-109466192D01*
X126528308Y-109541569D01*
X126570000Y-109549862D01*
X126570000Y-108746988D01*
X126579940Y-108764205D01*
X126635795Y-108820060D01*
X126704204Y-108859556D01*
X126780504Y-108880000D01*
X126859496Y-108880000D01*
X126935796Y-108859556D01*
X127004205Y-108820060D01*
X127060060Y-108764205D01*
X127070000Y-108746988D01*
X127070000Y-109549862D01*
X127111690Y-109541569D01*
X127111692Y-109541569D01*
X127293671Y-109466192D01*
X127293684Y-109466185D01*
X127457462Y-109356751D01*
X127457466Y-109356748D01*
X127596748Y-109217466D01*
X127596751Y-109217462D01*
X127706185Y-109053684D01*
X127706192Y-109053671D01*
X127769191Y-108901577D01*
X153249500Y-108901577D01*
X153249500Y-109098422D01*
X153280290Y-109292826D01*
X153341117Y-109480029D01*
X153430476Y-109655405D01*
X153546172Y-109814646D01*
X153685354Y-109953828D01*
X153844595Y-110069524D01*
X153927455Y-110111743D01*
X154019970Y-110158882D01*
X154019972Y-110158882D01*
X154019975Y-110158884D01*
X154120317Y-110191487D01*
X154207173Y-110219709D01*
X154401578Y-110250500D01*
X154401583Y-110250500D01*
X154598422Y-110250500D01*
X154792826Y-110219709D01*
X154980025Y-110158884D01*
X155155405Y-110069524D01*
X155314646Y-109953828D01*
X155453828Y-109814646D01*
X155569524Y-109655405D01*
X155658884Y-109480025D01*
X155719709Y-109292826D01*
X155731645Y-109217466D01*
X155750500Y-109098422D01*
X155750500Y-108901577D01*
X155719709Y-108707173D01*
X155658882Y-108519970D01*
X155611743Y-108427455D01*
X155569524Y-108344595D01*
X155453828Y-108185354D01*
X155314646Y-108046172D01*
X155155405Y-107930476D01*
X155154471Y-107930000D01*
X154980029Y-107841117D01*
X154792826Y-107780290D01*
X154598422Y-107749500D01*
X154598417Y-107749500D01*
X154401583Y-107749500D01*
X154401578Y-107749500D01*
X154207173Y-107780290D01*
X154019970Y-107841117D01*
X153844594Y-107930476D01*
X153753741Y-107996485D01*
X153685354Y-108046172D01*
X153685352Y-108046174D01*
X153685351Y-108046174D01*
X153546174Y-108185351D01*
X153546174Y-108185352D01*
X153546172Y-108185354D01*
X153496485Y-108253741D01*
X153430476Y-108344594D01*
X153341117Y-108519970D01*
X153280290Y-108707173D01*
X153249500Y-108901577D01*
X127769191Y-108901577D01*
X127781569Y-108871693D01*
X127781572Y-108871683D01*
X127819999Y-108678495D01*
X127820000Y-108678492D01*
X127820000Y-108430000D01*
X127120000Y-108430000D01*
X127120000Y-107930000D01*
X127820000Y-107930000D01*
X127820000Y-107681508D01*
X127819999Y-107681504D01*
X127781572Y-107488318D01*
X127781569Y-107488306D01*
X127706192Y-107306328D01*
X127706185Y-107306315D01*
X127596751Y-107142537D01*
X127596748Y-107142533D01*
X127457466Y-107003251D01*
X127457462Y-107003248D01*
X127293684Y-106893814D01*
X127293671Y-106893807D01*
X127111691Y-106818429D01*
X127111683Y-106818427D01*
X127070000Y-106810135D01*
X127070000Y-107613011D01*
X127060060Y-107595795D01*
X127004205Y-107539940D01*
X126935796Y-107500444D01*
X126859496Y-107480000D01*
X126780504Y-107480000D01*
X126704204Y-107500444D01*
X126635795Y-107539940D01*
X126579940Y-107595795D01*
X126570000Y-107613011D01*
X126570000Y-106810136D01*
X126569999Y-106810135D01*
X126528316Y-106818427D01*
X126528308Y-106818429D01*
X126346328Y-106893807D01*
X126346315Y-106893814D01*
X126182537Y-107003248D01*
X126182533Y-107003251D01*
X126043251Y-107142533D01*
X126043248Y-107142537D01*
X125933814Y-107306315D01*
X125933807Y-107306328D01*
X125858430Y-107488306D01*
X125858427Y-107488318D01*
X125820000Y-107681504D01*
X119179999Y-107681504D01*
X119141572Y-107488318D01*
X119141569Y-107488306D01*
X119066192Y-107306328D01*
X119066185Y-107306315D01*
X118956751Y-107142537D01*
X118956748Y-107142533D01*
X118817466Y-107003251D01*
X118817462Y-107003248D01*
X118653684Y-106893814D01*
X118653671Y-106893807D01*
X118471691Y-106818429D01*
X118471683Y-106818427D01*
X118430000Y-106810135D01*
X118430000Y-107613011D01*
X118420060Y-107595795D01*
X118364205Y-107539940D01*
X118295796Y-107500444D01*
X118219496Y-107480000D01*
X118140504Y-107480000D01*
X118064204Y-107500444D01*
X117995795Y-107539940D01*
X117939940Y-107595795D01*
X117930000Y-107613011D01*
X117930000Y-106810136D01*
X117929999Y-106810135D01*
X117888316Y-106818427D01*
X117888308Y-106818429D01*
X117706328Y-106893807D01*
X117706315Y-106893814D01*
X117542537Y-107003248D01*
X117542533Y-107003251D01*
X117403251Y-107142533D01*
X117403248Y-107142537D01*
X117293814Y-107306315D01*
X117293807Y-107306328D01*
X117218430Y-107488306D01*
X117218427Y-107488318D01*
X117180000Y-107681504D01*
X100500500Y-107681504D01*
X100500500Y-103351504D01*
X117180000Y-103351504D01*
X117180000Y-103750000D01*
X117880000Y-103750000D01*
X117880000Y-104250000D01*
X117180000Y-104250000D01*
X117180000Y-104648495D01*
X117218427Y-104841681D01*
X117218430Y-104841693D01*
X117293807Y-105023671D01*
X117293814Y-105023684D01*
X117403248Y-105187462D01*
X117403251Y-105187466D01*
X117542533Y-105326748D01*
X117542537Y-105326751D01*
X117706315Y-105436185D01*
X117706328Y-105436192D01*
X117888308Y-105511569D01*
X117930000Y-105519862D01*
X117930000Y-104716988D01*
X117939940Y-104734205D01*
X117995795Y-104790060D01*
X118064204Y-104829556D01*
X118140504Y-104850000D01*
X118219496Y-104850000D01*
X118295796Y-104829556D01*
X118364205Y-104790060D01*
X118420060Y-104734205D01*
X118430000Y-104716988D01*
X118430000Y-105519862D01*
X118471690Y-105511569D01*
X118471692Y-105511569D01*
X118653671Y-105436192D01*
X118653684Y-105436185D01*
X118817462Y-105326751D01*
X118817466Y-105326748D01*
X118956748Y-105187466D01*
X118956751Y-105187462D01*
X119066185Y-105023684D01*
X119066187Y-105023680D01*
X119110871Y-104915802D01*
X119154712Y-104861399D01*
X119221006Y-104839333D01*
X119288705Y-104856612D01*
X119313114Y-104875573D01*
X119318036Y-104880495D01*
X119426464Y-104943095D01*
X119547399Y-104975500D01*
X119547401Y-104975500D01*
X119672599Y-104975500D01*
X119672601Y-104975500D01*
X119793536Y-104943095D01*
X119901964Y-104880495D01*
X119990495Y-104791964D01*
X120053095Y-104683536D01*
X120085500Y-104562601D01*
X120085500Y-104437399D01*
X120053095Y-104316464D01*
X119990495Y-104208036D01*
X119901964Y-104119505D01*
X119793536Y-104056905D01*
X119793537Y-104056905D01*
X119753224Y-104046103D01*
X119672601Y-104024500D01*
X119547399Y-104024500D01*
X119466775Y-104046103D01*
X119426463Y-104056905D01*
X119318037Y-104119504D01*
X119318034Y-104119506D01*
X119223860Y-104213681D01*
X119162537Y-104247166D01*
X119136179Y-104250000D01*
X118480000Y-104250000D01*
X118480000Y-103750000D01*
X119180000Y-103750000D01*
X119180000Y-103351508D01*
X119179999Y-103351504D01*
X119141572Y-103158318D01*
X119141569Y-103158306D01*
X119066192Y-102976328D01*
X119066185Y-102976315D01*
X118956751Y-102812537D01*
X118956748Y-102812533D01*
X118817466Y-102673251D01*
X118817462Y-102673248D01*
X118653684Y-102563814D01*
X118653671Y-102563807D01*
X118471691Y-102488429D01*
X118471683Y-102488427D01*
X118430000Y-102480135D01*
X118430000Y-103283011D01*
X118420060Y-103265795D01*
X118364205Y-103209940D01*
X118295796Y-103170444D01*
X118219496Y-103150000D01*
X118140504Y-103150000D01*
X118064204Y-103170444D01*
X117995795Y-103209940D01*
X117939940Y-103265795D01*
X117930000Y-103283011D01*
X117930000Y-102480136D01*
X117929999Y-102480135D01*
X117888316Y-102488427D01*
X117888308Y-102488429D01*
X117706328Y-102563807D01*
X117706315Y-102563814D01*
X117542537Y-102673248D01*
X117542533Y-102673251D01*
X117403251Y-102812533D01*
X117403248Y-102812537D01*
X117293814Y-102976315D01*
X117293807Y-102976328D01*
X117218430Y-103158306D01*
X117218427Y-103158318D01*
X117180000Y-103351504D01*
X100500500Y-103351504D01*
X100500500Y-92827997D01*
X110148441Y-92827997D01*
X110189366Y-92980728D01*
X110203539Y-93005276D01*
X110203538Y-93005276D01*
X110203539Y-93005277D01*
X110268418Y-93117652D01*
X110268424Y-93117660D01*
X110387292Y-93236528D01*
X110387298Y-93236533D01*
X110515139Y-93364374D01*
X110515149Y-93364385D01*
X110519479Y-93368715D01*
X110519480Y-93368716D01*
X110631284Y-93480520D01*
X110710105Y-93526027D01*
X110768215Y-93559577D01*
X110920942Y-93600500D01*
X110920943Y-93600500D01*
X111000846Y-93600500D01*
X111067885Y-93620185D01*
X111088527Y-93636819D01*
X120512180Y-103060472D01*
X120545665Y-103121795D01*
X120548499Y-103148153D01*
X120548499Y-104476625D01*
X120548498Y-104476643D01*
X120548498Y-104642349D01*
X120548497Y-104642349D01*
X120589422Y-104795080D01*
X120603595Y-104819628D01*
X120603594Y-104819628D01*
X120603595Y-104819629D01*
X120668474Y-104932004D01*
X120668478Y-104932009D01*
X120668479Y-104932011D01*
X120780283Y-105043815D01*
X120780284Y-105043816D01*
X121132340Y-105395872D01*
X121269271Y-105474929D01*
X121421999Y-105515853D01*
X121422002Y-105515853D01*
X121587710Y-105515853D01*
X121587726Y-105515852D01*
X121912273Y-105515852D01*
X121912289Y-105515853D01*
X121919885Y-105515853D01*
X122077996Y-105515853D01*
X122077999Y-105515853D01*
X122230727Y-105474929D01*
X122280846Y-105445991D01*
X122367658Y-105395872D01*
X122479462Y-105284068D01*
X122479462Y-105284066D01*
X122489670Y-105273859D01*
X122489672Y-105273856D01*
X122877086Y-104886442D01*
X122877091Y-104886438D01*
X122887294Y-104876234D01*
X122887296Y-104876234D01*
X122999100Y-104764430D01*
X123061794Y-104655840D01*
X123078157Y-104627499D01*
X123119080Y-104474771D01*
X123119080Y-104437399D01*
X124914500Y-104437399D01*
X124914500Y-104562601D01*
X124946905Y-104683536D01*
X125009505Y-104791964D01*
X125098036Y-104880495D01*
X125206464Y-104943095D01*
X125327399Y-104975500D01*
X125327401Y-104975500D01*
X125452599Y-104975500D01*
X125452601Y-104975500D01*
X125573536Y-104943095D01*
X125681964Y-104880495D01*
X125686883Y-104875575D01*
X125748202Y-104842089D01*
X125817894Y-104847070D01*
X125873830Y-104888939D01*
X125889127Y-104915802D01*
X125933807Y-105023671D01*
X125933814Y-105023684D01*
X126043248Y-105187462D01*
X126043251Y-105187466D01*
X126182533Y-105326748D01*
X126182537Y-105326751D01*
X126346315Y-105436185D01*
X126346328Y-105436192D01*
X126528308Y-105511569D01*
X126570000Y-105519862D01*
X126570000Y-104716988D01*
X126579940Y-104734205D01*
X126635795Y-104790060D01*
X126704204Y-104829556D01*
X126780504Y-104850000D01*
X126859496Y-104850000D01*
X126935796Y-104829556D01*
X127004205Y-104790060D01*
X127060060Y-104734205D01*
X127070000Y-104716988D01*
X127070000Y-105519862D01*
X127111690Y-105511569D01*
X127111692Y-105511569D01*
X127293671Y-105436192D01*
X127293684Y-105436185D01*
X127457462Y-105326751D01*
X127457466Y-105326748D01*
X127596748Y-105187466D01*
X127596751Y-105187462D01*
X127706185Y-105023684D01*
X127706192Y-105023671D01*
X127781569Y-104841693D01*
X127781572Y-104841681D01*
X127819999Y-104648495D01*
X127820000Y-104648492D01*
X127820000Y-104250000D01*
X127120000Y-104250000D01*
X127120000Y-103750000D01*
X127820000Y-103750000D01*
X127820000Y-103351508D01*
X127819999Y-103351504D01*
X127781572Y-103158318D01*
X127781569Y-103158306D01*
X127706192Y-102976328D01*
X127706185Y-102976315D01*
X127596751Y-102812537D01*
X127596748Y-102812533D01*
X127457466Y-102673251D01*
X127457462Y-102673248D01*
X127293684Y-102563814D01*
X127293671Y-102563807D01*
X127111691Y-102488429D01*
X127111683Y-102488427D01*
X127070000Y-102480135D01*
X127070000Y-103283011D01*
X127060060Y-103265795D01*
X127004205Y-103209940D01*
X126935796Y-103170444D01*
X126859496Y-103150000D01*
X126780504Y-103150000D01*
X126704204Y-103170444D01*
X126635795Y-103209940D01*
X126579940Y-103265795D01*
X126570000Y-103283011D01*
X126570000Y-102480136D01*
X126569999Y-102480135D01*
X126528316Y-102488427D01*
X126528308Y-102488429D01*
X126346328Y-102563807D01*
X126346315Y-102563814D01*
X126182537Y-102673248D01*
X126182533Y-102673251D01*
X126043251Y-102812533D01*
X126043248Y-102812537D01*
X125933814Y-102976315D01*
X125933807Y-102976328D01*
X125858430Y-103158306D01*
X125858427Y-103158318D01*
X125820000Y-103351504D01*
X125820000Y-103750000D01*
X126520000Y-103750000D01*
X126520000Y-104250000D01*
X125863821Y-104250000D01*
X125796782Y-104230315D01*
X125776140Y-104213681D01*
X125681965Y-104119506D01*
X125681964Y-104119505D01*
X125573536Y-104056905D01*
X125573537Y-104056905D01*
X125533224Y-104046103D01*
X125452601Y-104024500D01*
X125327399Y-104024500D01*
X125246775Y-104046103D01*
X125206463Y-104056905D01*
X125098037Y-104119504D01*
X125098034Y-104119506D01*
X125009506Y-104208034D01*
X125009504Y-104208037D01*
X124946905Y-104316463D01*
X124946905Y-104316464D01*
X124914500Y-104437399D01*
X123119080Y-104437399D01*
X123119080Y-104316657D01*
X123119080Y-102950556D01*
X123138765Y-102883517D01*
X123139978Y-102881665D01*
X123227970Y-102749976D01*
X123227970Y-102749975D01*
X123227974Y-102749970D01*
X123288317Y-102604288D01*
X123319080Y-102449633D01*
X123319080Y-102291949D01*
X123319080Y-102291946D01*
X123319079Y-102291944D01*
X123288318Y-102137301D01*
X123288317Y-102137294D01*
X123242369Y-102026365D01*
X123227977Y-101991618D01*
X123227970Y-101991605D01*
X123140369Y-101860502D01*
X123140366Y-101860498D01*
X123028872Y-101749004D01*
X123028868Y-101749001D01*
X122897765Y-101661400D01*
X122897752Y-101661393D01*
X122752081Y-101601055D01*
X122752069Y-101601052D01*
X122597425Y-101570291D01*
X122597422Y-101570291D01*
X122439738Y-101570291D01*
X122439735Y-101570291D01*
X122285090Y-101601052D01*
X122285078Y-101601055D01*
X122139407Y-101661393D01*
X122139394Y-101661400D01*
X122008291Y-101749001D01*
X122008287Y-101749004D01*
X121892483Y-101864809D01*
X121890875Y-101863201D01*
X121841520Y-101896818D01*
X121771676Y-101898687D01*
X121715734Y-101866499D01*
X113661416Y-93812181D01*
X113627931Y-93750858D01*
X113632915Y-93681166D01*
X113674787Y-93625233D01*
X113740251Y-93600816D01*
X113749097Y-93600500D01*
X133913331Y-93600500D01*
X133913347Y-93600501D01*
X133920943Y-93600501D01*
X134079054Y-93600501D01*
X134079057Y-93600501D01*
X134231785Y-93559577D01*
X134289895Y-93526027D01*
X134368716Y-93480520D01*
X134480520Y-93368716D01*
X134480520Y-93368714D01*
X134490720Y-93358515D01*
X134490723Y-93358510D01*
X134637822Y-93211412D01*
X134699142Y-93177930D01*
X134768834Y-93182914D01*
X134824767Y-93224786D01*
X134849184Y-93290250D01*
X134849500Y-93299096D01*
X134849500Y-94467059D01*
X134829815Y-94534098D01*
X134813181Y-94554740D01*
X129878213Y-99489707D01*
X129878210Y-99489711D01*
X129790609Y-99620814D01*
X129790602Y-99620827D01*
X129730264Y-99766498D01*
X129730261Y-99766510D01*
X129699500Y-99921153D01*
X129699500Y-100078846D01*
X129730261Y-100233489D01*
X129730264Y-100233501D01*
X129790602Y-100379172D01*
X129790609Y-100379185D01*
X129878210Y-100510288D01*
X129878213Y-100510292D01*
X129989707Y-100621786D01*
X129989711Y-100621789D01*
X130120814Y-100709390D01*
X130120827Y-100709397D01*
X130266498Y-100769735D01*
X130266503Y-100769737D01*
X130418639Y-100799999D01*
X130421153Y-100800499D01*
X130421156Y-100800500D01*
X130421158Y-100800500D01*
X130578844Y-100800500D01*
X130578845Y-100800499D01*
X130733497Y-100769737D01*
X130879179Y-100709394D01*
X130939775Y-100668905D01*
X134930000Y-100668905D01*
X134930000Y-100931094D01*
X134964220Y-101191009D01*
X134964222Y-101191020D01*
X135032075Y-101444255D01*
X135132404Y-101686471D01*
X135132409Y-101686482D01*
X135263488Y-101913516D01*
X135263494Y-101913524D01*
X135350080Y-102026365D01*
X135957912Y-101418532D01*
X136052829Y-101549175D01*
X136180825Y-101677171D01*
X136311465Y-101772086D01*
X135703633Y-102379917D01*
X135703633Y-102379918D01*
X135816475Y-102466505D01*
X135816483Y-102466511D01*
X136043517Y-102597590D01*
X136043528Y-102597595D01*
X136285744Y-102697924D01*
X136538979Y-102765777D01*
X136538990Y-102765779D01*
X136798905Y-102799999D01*
X136798920Y-102800000D01*
X137061080Y-102800000D01*
X137061094Y-102799999D01*
X137321009Y-102765779D01*
X137321020Y-102765777D01*
X137574255Y-102697924D01*
X137816471Y-102597595D01*
X137816482Y-102597590D01*
X138043516Y-102466511D01*
X138043534Y-102466499D01*
X138156365Y-102379919D01*
X138156365Y-102379917D01*
X137548534Y-101772086D01*
X137679175Y-101677171D01*
X137807171Y-101549175D01*
X137902086Y-101418534D01*
X138509917Y-102026365D01*
X138509919Y-102026365D01*
X138596499Y-101913534D01*
X138596511Y-101913516D01*
X138727590Y-101686482D01*
X138727595Y-101686471D01*
X138827924Y-101444255D01*
X138895777Y-101191020D01*
X138895779Y-101191009D01*
X138929999Y-100931094D01*
X138930000Y-100931080D01*
X138930000Y-100668919D01*
X138929999Y-100668905D01*
X148070000Y-100668905D01*
X148070000Y-100931094D01*
X148104220Y-101191009D01*
X148104222Y-101191020D01*
X148172075Y-101444255D01*
X148272404Y-101686471D01*
X148272409Y-101686482D01*
X148403488Y-101913516D01*
X148403494Y-101913524D01*
X148490080Y-102026365D01*
X149097912Y-101418532D01*
X149192829Y-101549175D01*
X149320825Y-101677171D01*
X149451465Y-101772086D01*
X148843633Y-102379917D01*
X148843633Y-102379918D01*
X148956475Y-102466505D01*
X148956483Y-102466511D01*
X149183517Y-102597590D01*
X149183528Y-102597595D01*
X149425744Y-102697924D01*
X149678979Y-102765777D01*
X149678990Y-102765779D01*
X149938905Y-102799999D01*
X149938920Y-102800000D01*
X150201080Y-102800000D01*
X150201094Y-102799999D01*
X150461009Y-102765779D01*
X150461020Y-102765777D01*
X150714255Y-102697924D01*
X150956471Y-102597595D01*
X150956482Y-102597590D01*
X151183516Y-102466511D01*
X151183534Y-102466499D01*
X151296365Y-102379919D01*
X151296365Y-102379917D01*
X150688534Y-101772086D01*
X150819175Y-101677171D01*
X150947171Y-101549175D01*
X151042086Y-101418534D01*
X151649917Y-102026365D01*
X151649919Y-102026365D01*
X151736499Y-101913534D01*
X151736511Y-101913516D01*
X151867590Y-101686482D01*
X151867595Y-101686471D01*
X151967924Y-101444255D01*
X152035777Y-101191020D01*
X152035779Y-101191009D01*
X152069999Y-100931094D01*
X152070000Y-100931080D01*
X152070000Y-100668919D01*
X152069999Y-100668905D01*
X152035779Y-100408990D01*
X152035777Y-100408979D01*
X151967924Y-100155744D01*
X151867595Y-99913528D01*
X151867590Y-99913517D01*
X151736511Y-99686483D01*
X151736505Y-99686475D01*
X151649918Y-99573633D01*
X151649917Y-99573633D01*
X151042085Y-100181465D01*
X150947171Y-100050825D01*
X150819175Y-99922829D01*
X150688532Y-99827912D01*
X151296365Y-99220080D01*
X151183524Y-99133494D01*
X151183516Y-99133488D01*
X150956482Y-99002409D01*
X150956471Y-99002404D01*
X150714255Y-98902075D01*
X150461020Y-98834222D01*
X150461009Y-98834220D01*
X150201094Y-98800000D01*
X149938905Y-98800000D01*
X149678990Y-98834220D01*
X149678979Y-98834222D01*
X149425744Y-98902075D01*
X149183528Y-99002404D01*
X149183517Y-99002409D01*
X148956471Y-99133496D01*
X148843633Y-99220079D01*
X148843633Y-99220080D01*
X149451466Y-99827913D01*
X149320825Y-99922829D01*
X149192829Y-100050825D01*
X149097913Y-100181466D01*
X148490080Y-99573633D01*
X148490079Y-99573633D01*
X148403496Y-99686471D01*
X148272409Y-99913517D01*
X148272404Y-99913528D01*
X148172075Y-100155744D01*
X148104222Y-100408979D01*
X148104220Y-100408990D01*
X148070000Y-100668905D01*
X138929999Y-100668905D01*
X138895779Y-100408990D01*
X138895777Y-100408979D01*
X138827924Y-100155744D01*
X138727595Y-99913528D01*
X138727590Y-99913517D01*
X138596511Y-99686483D01*
X138596505Y-99686475D01*
X138509918Y-99573633D01*
X138509917Y-99573633D01*
X137902085Y-100181465D01*
X137807171Y-100050825D01*
X137679175Y-99922829D01*
X137548532Y-99827912D01*
X138156365Y-99220080D01*
X138043524Y-99133494D01*
X138043516Y-99133488D01*
X137816482Y-99002409D01*
X137816471Y-99002404D01*
X137574255Y-98902075D01*
X137321020Y-98834222D01*
X137321009Y-98834220D01*
X137061094Y-98800000D01*
X136798905Y-98800000D01*
X136538990Y-98834220D01*
X136538979Y-98834222D01*
X136285744Y-98902075D01*
X136043528Y-99002404D01*
X136043517Y-99002409D01*
X135816471Y-99133496D01*
X135703633Y-99220079D01*
X135703633Y-99220080D01*
X136311466Y-99827913D01*
X136180825Y-99922829D01*
X136052829Y-100050825D01*
X135957913Y-100181466D01*
X135350080Y-99573633D01*
X135350079Y-99573633D01*
X135263496Y-99686471D01*
X135132409Y-99913517D01*
X135132404Y-99913528D01*
X135032075Y-100155744D01*
X134964222Y-100408979D01*
X134964220Y-100408990D01*
X134930000Y-100668905D01*
X130939775Y-100668905D01*
X131010289Y-100621789D01*
X131010292Y-100621786D01*
X131054906Y-100577173D01*
X132451727Y-99180352D01*
X136271786Y-95360292D01*
X136271789Y-95360289D01*
X136359394Y-95229179D01*
X136419737Y-95083497D01*
X136450500Y-94928842D01*
X136450500Y-94771157D01*
X136450500Y-92421158D01*
X136450500Y-92421155D01*
X136450499Y-92421153D01*
X136419738Y-92266510D01*
X136419737Y-92266503D01*
X136419732Y-92266492D01*
X136417969Y-92260676D01*
X136420720Y-92259841D01*
X136414497Y-92202641D01*
X136445691Y-92140122D01*
X136505734Y-92104392D01*
X136536555Y-92100500D01*
X143241950Y-92100500D01*
X143308989Y-92120185D01*
X143354744Y-92172989D01*
X143365950Y-92224500D01*
X143365950Y-92879780D01*
X143365949Y-92879798D01*
X143365949Y-93045504D01*
X143365948Y-93045504D01*
X143406874Y-93198239D01*
X143406875Y-93198240D01*
X143431335Y-93240605D01*
X143431336Y-93240607D01*
X143485925Y-93335159D01*
X143485931Y-93335167D01*
X143604799Y-93454035D01*
X143604805Y-93454040D01*
X144374009Y-94223244D01*
X144400889Y-94263472D01*
X144428104Y-94329175D01*
X144428109Y-94329185D01*
X144515710Y-94460288D01*
X144515713Y-94460292D01*
X144627207Y-94571786D01*
X144627211Y-94571789D01*
X144758314Y-94659390D01*
X144758327Y-94659397D01*
X144903998Y-94719735D01*
X144904003Y-94719737D01*
X145058653Y-94750499D01*
X145058656Y-94750500D01*
X145058658Y-94750500D01*
X145216344Y-94750500D01*
X145216345Y-94750499D01*
X145370997Y-94719737D01*
X145516679Y-94659394D01*
X145647789Y-94571789D01*
X145759289Y-94460289D01*
X145846894Y-94329179D01*
X145907237Y-94183497D01*
X145938000Y-94028842D01*
X145938000Y-93871158D01*
X145938000Y-93871155D01*
X145937999Y-93871153D01*
X145926269Y-93812181D01*
X145907237Y-93716503D01*
X145867341Y-93620185D01*
X145846897Y-93570827D01*
X145846890Y-93570814D01*
X145759289Y-93439711D01*
X145759286Y-93439707D01*
X145647792Y-93328213D01*
X145647788Y-93328210D01*
X145516681Y-93240607D01*
X145516672Y-93240602D01*
X145371001Y-93180264D01*
X145370989Y-93180261D01*
X145216345Y-93149500D01*
X145216342Y-93149500D01*
X145058658Y-93149500D01*
X145052567Y-93149500D01*
X145052567Y-93147969D01*
X145026590Y-93142319D01*
X144993801Y-93136093D01*
X144992024Y-93134799D01*
X144990891Y-93134553D01*
X144962637Y-93113402D01*
X144861416Y-93012181D01*
X144827931Y-92950858D01*
X144832915Y-92881166D01*
X144874787Y-92825233D01*
X144940251Y-92800816D01*
X144949097Y-92800500D01*
X145078844Y-92800500D01*
X145078845Y-92800499D01*
X145233497Y-92769737D01*
X145379179Y-92709394D01*
X145510289Y-92621789D01*
X145621789Y-92510289D01*
X145709394Y-92379179D01*
X145769737Y-92233497D01*
X145800500Y-92078842D01*
X145800500Y-91921158D01*
X145800500Y-91921155D01*
X145800499Y-91921153D01*
X145792276Y-91879815D01*
X145769737Y-91766503D01*
X145739829Y-91694297D01*
X145709397Y-91620827D01*
X145709390Y-91620814D01*
X145621789Y-91489711D01*
X145621786Y-91489707D01*
X145510292Y-91378213D01*
X145510288Y-91378210D01*
X145379185Y-91290609D01*
X145379172Y-91290602D01*
X145233501Y-91230264D01*
X145233491Y-91230261D01*
X145078151Y-91199362D01*
X145016241Y-91166977D01*
X145014662Y-91165426D01*
X144487590Y-90638355D01*
X144487588Y-90638352D01*
X144368717Y-90519481D01*
X144368709Y-90519475D01*
X144257929Y-90455517D01*
X144257928Y-90455516D01*
X144239552Y-90444907D01*
X144231785Y-90440423D01*
X144079057Y-90399499D01*
X143920943Y-90399499D01*
X143913347Y-90399499D01*
X143913331Y-90399500D01*
X134920939Y-90399500D01*
X134907398Y-90403128D01*
X134907399Y-90403129D01*
X134768214Y-90440423D01*
X134768209Y-90440426D01*
X134631290Y-90519475D01*
X134631282Y-90519481D01*
X134519478Y-90631286D01*
X133287584Y-91863181D01*
X133226261Y-91896666D01*
X133199903Y-91899500D01*
X116199039Y-91899500D01*
X116132000Y-91879815D01*
X116086245Y-91827011D01*
X116076301Y-91757853D01*
X116105326Y-91694297D01*
X116111358Y-91687819D01*
X118229830Y-89569347D01*
X120358506Y-87440671D01*
X120358511Y-87440667D01*
X120368714Y-87430463D01*
X120368716Y-87430463D01*
X120480520Y-87318659D01*
X120559577Y-87181727D01*
X120600500Y-87029000D01*
X120600500Y-76386555D01*
X120620185Y-76319516D01*
X120672989Y-76273761D01*
X120742147Y-76263817D01*
X120760411Y-76268840D01*
X120760676Y-76267969D01*
X120766492Y-76269732D01*
X120766503Y-76269737D01*
X120921153Y-76300499D01*
X120921156Y-76300500D01*
X120921158Y-76300500D01*
X121078844Y-76300500D01*
X121078845Y-76300499D01*
X121233497Y-76269737D01*
X121379179Y-76209394D01*
X121510289Y-76121789D01*
X121621789Y-76010289D01*
X121709394Y-75879179D01*
X121769737Y-75733497D01*
X121800500Y-75578842D01*
X121800500Y-75421158D01*
X121800500Y-75421155D01*
X121800499Y-75421153D01*
X121790209Y-75369423D01*
X121769737Y-75266503D01*
X121730593Y-75172000D01*
X121709397Y-75120827D01*
X121709390Y-75120814D01*
X121621789Y-74989711D01*
X121621786Y-74989707D01*
X121510292Y-74878213D01*
X121510288Y-74878210D01*
X121379185Y-74790609D01*
X121379172Y-74790602D01*
X121233501Y-74730264D01*
X121233491Y-74730261D01*
X121078149Y-74699361D01*
X121061392Y-74690595D01*
X121042914Y-74686576D01*
X121017877Y-74667833D01*
X121016238Y-74666976D01*
X121014660Y-74665425D01*
X120886590Y-74537355D01*
X120886588Y-74537352D01*
X120767717Y-74418481D01*
X120767716Y-74418480D01*
X120680904Y-74368360D01*
X120680904Y-74368359D01*
X120680900Y-74368358D01*
X120630785Y-74339423D01*
X120478057Y-74298499D01*
X120319943Y-74298499D01*
X120312347Y-74298499D01*
X120312331Y-74298500D01*
X119837727Y-74298500D01*
X119837711Y-74298499D01*
X119830115Y-74298499D01*
X119672000Y-74298499D01*
X119531793Y-74336067D01*
X119519268Y-74339424D01*
X119382344Y-74418477D01*
X119382339Y-74418481D01*
X119023217Y-74777603D01*
X119023214Y-74777605D01*
X119023215Y-74777606D01*
X118918480Y-74882341D01*
X118894697Y-74923535D01*
X118839423Y-75019272D01*
X118798499Y-75172000D01*
X118798499Y-75172002D01*
X118798499Y-75340103D01*
X118798500Y-75340116D01*
X118798500Y-75662273D01*
X118798499Y-75662291D01*
X118798499Y-75827997D01*
X118798498Y-75827997D01*
X118839423Y-75980728D01*
X118853596Y-76005276D01*
X118882887Y-76056009D01*
X118899500Y-76118009D01*
X118899500Y-86299902D01*
X118879815Y-86366941D01*
X118863181Y-86387583D01*
X115385339Y-89865425D01*
X115324016Y-89898910D01*
X115321850Y-89899361D01*
X115166508Y-89930261D01*
X115166503Y-89930263D01*
X115126711Y-89946745D01*
X115057242Y-89954212D01*
X114994763Y-89922937D01*
X114959111Y-89862847D01*
X114957649Y-89856406D01*
X114944739Y-89791501D01*
X114944737Y-89791496D01*
X114884399Y-89645825D01*
X114884392Y-89645812D01*
X114796400Y-89514123D01*
X114775522Y-89447445D01*
X114775502Y-89445232D01*
X114775502Y-89125094D01*
X114795187Y-89058055D01*
X114811817Y-89037417D01*
X115358506Y-88490727D01*
X115358511Y-88490724D01*
X115368714Y-88480520D01*
X115368716Y-88480520D01*
X115480520Y-88368716D01*
X115559577Y-88231784D01*
X115600500Y-88079057D01*
X115600500Y-75420943D01*
X115586695Y-75369423D01*
X115559577Y-75268215D01*
X115530639Y-75218095D01*
X115480520Y-75131284D01*
X115368716Y-75019480D01*
X115368715Y-75019479D01*
X115364385Y-75015149D01*
X115364374Y-75015139D01*
X113834574Y-73485339D01*
X113801089Y-73424016D01*
X113800638Y-73421849D01*
X113769738Y-73266510D01*
X113769737Y-73266503D01*
X113769735Y-73266498D01*
X113709397Y-73120827D01*
X113709390Y-73120814D01*
X113621789Y-72989711D01*
X113621786Y-72989707D01*
X113510292Y-72878213D01*
X113510288Y-72878210D01*
X113379185Y-72790609D01*
X113379172Y-72790602D01*
X113233501Y-72730264D01*
X113233489Y-72730261D01*
X113078845Y-72699500D01*
X113078842Y-72699500D01*
X112921158Y-72699500D01*
X112921155Y-72699500D01*
X112766510Y-72730261D01*
X112766498Y-72730264D01*
X112620827Y-72790602D01*
X112620814Y-72790609D01*
X112489711Y-72878210D01*
X112489707Y-72878213D01*
X112378213Y-72989707D01*
X112378210Y-72989711D01*
X112290609Y-73120814D01*
X112290602Y-73120827D01*
X112230264Y-73266498D01*
X112230261Y-73266510D01*
X112199500Y-73421153D01*
X112199500Y-73578846D01*
X112230261Y-73733489D01*
X112230264Y-73733501D01*
X112290602Y-73879172D01*
X112290609Y-73879185D01*
X112378210Y-74010288D01*
X112378213Y-74010292D01*
X112489707Y-74121786D01*
X112489711Y-74121789D01*
X112620814Y-74209390D01*
X112620827Y-74209397D01*
X112766498Y-74269735D01*
X112766503Y-74269737D01*
X112831147Y-74282595D01*
X112921849Y-74300638D01*
X112983760Y-74333023D01*
X112985339Y-74334574D01*
X114363181Y-75712416D01*
X114396666Y-75773739D01*
X114399500Y-75800097D01*
X114399500Y-84808270D01*
X114379815Y-84875309D01*
X114327011Y-84921064D01*
X114257853Y-84931008D01*
X114251309Y-84929887D01*
X114098544Y-84899500D01*
X114098541Y-84899500D01*
X112901459Y-84899500D01*
X112901457Y-84899500D01*
X112708170Y-84937947D01*
X112708160Y-84937950D01*
X112526092Y-85013364D01*
X112526079Y-85013371D01*
X112362218Y-85122860D01*
X112362214Y-85122863D01*
X112222863Y-85262214D01*
X112222860Y-85262218D01*
X112113371Y-85426079D01*
X112113364Y-85426092D01*
X112037950Y-85608160D01*
X112037947Y-85608170D01*
X111999500Y-85801456D01*
X111999500Y-85801459D01*
X111999500Y-85998541D01*
X111999500Y-85998543D01*
X111999499Y-85998543D01*
X112037947Y-86191829D01*
X112037950Y-86191839D01*
X112113364Y-86373907D01*
X112113371Y-86373920D01*
X112222860Y-86537781D01*
X112222863Y-86537785D01*
X112362214Y-86677136D01*
X112362218Y-86677139D01*
X112526079Y-86786628D01*
X112526092Y-86786635D01*
X112708160Y-86862049D01*
X112708165Y-86862051D01*
X112708169Y-86862051D01*
X112708170Y-86862052D01*
X112901456Y-86900500D01*
X112901459Y-86900500D01*
X114098543Y-86900500D01*
X114173564Y-86885576D01*
X114251309Y-86870112D01*
X114320900Y-86876339D01*
X114376077Y-86919201D01*
X114399322Y-86985091D01*
X114399500Y-86991729D01*
X114399500Y-87699902D01*
X114379815Y-87766941D01*
X114363181Y-87787583D01*
X113694483Y-88456280D01*
X113694481Y-88456283D01*
X113644363Y-88543092D01*
X113644361Y-88543094D01*
X113615427Y-88593207D01*
X113615426Y-88593208D01*
X113615425Y-88593213D01*
X113574501Y-88745941D01*
X113574501Y-88745943D01*
X113574501Y-88914044D01*
X113574502Y-88914057D01*
X113574502Y-89293061D01*
X113554817Y-89360100D01*
X113502013Y-89405855D01*
X113432855Y-89415799D01*
X113369299Y-89386774D01*
X113362821Y-89380742D01*
X113335290Y-89353211D01*
X113335286Y-89353208D01*
X113204183Y-89265607D01*
X113204170Y-89265600D01*
X113058499Y-89205262D01*
X113058489Y-89205259D01*
X112903147Y-89174359D01*
X112886390Y-89165593D01*
X112867912Y-89161574D01*
X112842875Y-89142831D01*
X112841236Y-89141974D01*
X112839658Y-89140423D01*
X112736590Y-89037355D01*
X112736588Y-89037352D01*
X112617717Y-88918481D01*
X112617716Y-88918480D01*
X112530904Y-88868360D01*
X112530904Y-88868359D01*
X112530900Y-88868358D01*
X112480785Y-88839423D01*
X112328057Y-88798499D01*
X112169943Y-88798499D01*
X112162347Y-88798499D01*
X112162331Y-88798500D01*
X111830114Y-88798500D01*
X111671999Y-88798500D01*
X111519272Y-88839423D01*
X111519271Y-88839423D01*
X111519269Y-88839424D01*
X111519266Y-88839425D01*
X111469153Y-88868359D01*
X111469152Y-88868360D01*
X111425746Y-88893420D01*
X111382342Y-88918479D01*
X111382339Y-88918481D01*
X110268425Y-90032395D01*
X110268423Y-90032397D01*
X110268423Y-90032398D01*
X110227176Y-90103840D01*
X110227175Y-90103840D01*
X110189367Y-90169326D01*
X110189366Y-90169327D01*
X110168904Y-90245693D01*
X110148442Y-90322057D01*
X110148442Y-90480171D01*
X110148442Y-90480173D01*
X110148443Y-90490167D01*
X110148443Y-92662273D01*
X110148442Y-92662291D01*
X110148442Y-92827997D01*
X110148441Y-92827997D01*
X100500500Y-92827997D01*
X100500500Y-83397648D01*
X102599500Y-83397648D01*
X102599500Y-83602351D01*
X102631522Y-83804534D01*
X102694781Y-83999223D01*
X102787715Y-84181613D01*
X102908028Y-84347213D01*
X103052786Y-84491971D01*
X103207749Y-84604556D01*
X103218390Y-84612287D01*
X103334607Y-84671503D01*
X103400776Y-84705218D01*
X103400778Y-84705218D01*
X103400781Y-84705220D01*
X103505137Y-84739127D01*
X103595465Y-84768477D01*
X103696557Y-84784488D01*
X103797648Y-84800500D01*
X103797649Y-84800500D01*
X104002351Y-84800500D01*
X104002352Y-84800500D01*
X104204534Y-84768477D01*
X104399219Y-84705220D01*
X104581610Y-84612287D01*
X104674590Y-84544732D01*
X104747213Y-84491971D01*
X104747215Y-84491968D01*
X104747219Y-84491966D01*
X104891966Y-84347219D01*
X104891968Y-84347215D01*
X104891971Y-84347213D01*
X104944732Y-84274590D01*
X105012287Y-84181610D01*
X105105220Y-83999219D01*
X105168477Y-83804534D01*
X105200500Y-83602352D01*
X105200500Y-83397648D01*
X109599500Y-83397648D01*
X109599500Y-83602351D01*
X109631522Y-83804534D01*
X109694781Y-83999223D01*
X109787715Y-84181613D01*
X109908028Y-84347213D01*
X110052786Y-84491971D01*
X110207749Y-84604556D01*
X110218390Y-84612287D01*
X110334607Y-84671503D01*
X110400776Y-84705218D01*
X110400778Y-84705218D01*
X110400781Y-84705220D01*
X110505137Y-84739127D01*
X110595465Y-84768477D01*
X110696557Y-84784488D01*
X110797648Y-84800500D01*
X110797649Y-84800500D01*
X111002351Y-84800500D01*
X111002352Y-84800500D01*
X111204534Y-84768477D01*
X111399219Y-84705220D01*
X111581610Y-84612287D01*
X111674590Y-84544732D01*
X111747213Y-84491971D01*
X111747215Y-84491968D01*
X111747219Y-84491966D01*
X111891966Y-84347219D01*
X111891968Y-84347215D01*
X111891971Y-84347213D01*
X111944732Y-84274590D01*
X112012287Y-84181610D01*
X112105220Y-83999219D01*
X112168477Y-83804534D01*
X112200500Y-83602352D01*
X112200500Y-83397648D01*
X112168477Y-83195466D01*
X112105220Y-83000781D01*
X112105218Y-83000778D01*
X112105218Y-83000776D01*
X112071503Y-82934607D01*
X112012287Y-82818390D01*
X112004556Y-82807749D01*
X111891971Y-82652786D01*
X111747213Y-82508028D01*
X111581613Y-82387715D01*
X111581612Y-82387714D01*
X111581610Y-82387713D01*
X111524653Y-82358691D01*
X111399223Y-82294781D01*
X111204534Y-82231522D01*
X111029995Y-82203878D01*
X111002352Y-82199500D01*
X110797648Y-82199500D01*
X110773329Y-82203351D01*
X110595465Y-82231522D01*
X110400776Y-82294781D01*
X110218386Y-82387715D01*
X110052786Y-82508028D01*
X109908028Y-82652786D01*
X109787715Y-82818386D01*
X109694781Y-83000776D01*
X109631522Y-83195465D01*
X109599500Y-83397648D01*
X105200500Y-83397648D01*
X105168477Y-83195466D01*
X105105220Y-83000781D01*
X105105218Y-83000778D01*
X105105218Y-83000776D01*
X105071503Y-82934607D01*
X105012287Y-82818390D01*
X105004556Y-82807749D01*
X104891971Y-82652786D01*
X104747213Y-82508028D01*
X104581613Y-82387715D01*
X104581612Y-82387714D01*
X104581610Y-82387713D01*
X104524653Y-82358691D01*
X104399223Y-82294781D01*
X104204534Y-82231522D01*
X104029995Y-82203878D01*
X104002352Y-82199500D01*
X103797648Y-82199500D01*
X103773329Y-82203351D01*
X103595465Y-82231522D01*
X103400776Y-82294781D01*
X103218386Y-82387715D01*
X103052786Y-82508028D01*
X102908028Y-82652786D01*
X102787715Y-82818386D01*
X102694781Y-83000776D01*
X102631522Y-83195465D01*
X102599500Y-83397648D01*
X100500500Y-83397648D01*
X100500500Y-81198543D01*
X103999499Y-81198543D01*
X104037947Y-81391829D01*
X104037950Y-81391839D01*
X104113364Y-81573907D01*
X104113371Y-81573920D01*
X104222860Y-81737781D01*
X104222863Y-81737785D01*
X104362214Y-81877136D01*
X104362218Y-81877139D01*
X104526079Y-81986628D01*
X104526092Y-81986635D01*
X104708160Y-82062049D01*
X104708165Y-82062051D01*
X104708169Y-82062051D01*
X104708170Y-82062052D01*
X104901456Y-82100500D01*
X104901459Y-82100500D01*
X106098543Y-82100500D01*
X106228582Y-82074632D01*
X106291835Y-82062051D01*
X106473914Y-81986632D01*
X106637782Y-81877139D01*
X106777139Y-81737782D01*
X106886632Y-81573914D01*
X106886634Y-81573907D01*
X106889502Y-81568544D01*
X106891310Y-81569510D01*
X106929272Y-81522397D01*
X106995564Y-81500326D01*
X107063265Y-81517600D01*
X107110879Y-81568734D01*
X107112522Y-81572331D01*
X107113371Y-81573920D01*
X107222860Y-81737781D01*
X107222863Y-81737785D01*
X107362214Y-81877136D01*
X107362218Y-81877139D01*
X107526079Y-81986628D01*
X107526092Y-81986635D01*
X107708160Y-82062049D01*
X107708165Y-82062051D01*
X107708169Y-82062051D01*
X107708170Y-82062052D01*
X107901456Y-82100500D01*
X107901459Y-82100500D01*
X109098543Y-82100500D01*
X109228582Y-82074632D01*
X109291835Y-82062051D01*
X109473914Y-81986632D01*
X109637782Y-81877139D01*
X109777139Y-81737782D01*
X109886632Y-81573914D01*
X109962051Y-81391835D01*
X109974632Y-81328582D01*
X110000500Y-81198543D01*
X110999499Y-81198543D01*
X111037947Y-81391829D01*
X111037950Y-81391839D01*
X111113364Y-81573907D01*
X111113371Y-81573920D01*
X111222860Y-81737781D01*
X111222863Y-81737785D01*
X111362214Y-81877136D01*
X111362218Y-81877139D01*
X111526079Y-81986628D01*
X111526092Y-81986635D01*
X111708160Y-82062049D01*
X111708165Y-82062051D01*
X111708169Y-82062051D01*
X111708170Y-82062052D01*
X111901456Y-82100500D01*
X111901459Y-82100500D01*
X113098543Y-82100500D01*
X113228582Y-82074632D01*
X113291835Y-82062051D01*
X113473914Y-81986632D01*
X113637782Y-81877139D01*
X113777139Y-81737782D01*
X113886632Y-81573914D01*
X113962051Y-81391835D01*
X113974632Y-81328582D01*
X114000500Y-81198543D01*
X114000500Y-81001456D01*
X113962052Y-80808170D01*
X113962051Y-80808169D01*
X113962051Y-80808165D01*
X113962049Y-80808160D01*
X113886635Y-80626092D01*
X113886628Y-80626079D01*
X113777139Y-80462218D01*
X113777136Y-80462214D01*
X113637785Y-80322863D01*
X113637781Y-80322860D01*
X113473920Y-80213371D01*
X113473907Y-80213364D01*
X113291839Y-80137950D01*
X113291829Y-80137947D01*
X113098543Y-80099500D01*
X113098541Y-80099500D01*
X111901459Y-80099500D01*
X111901457Y-80099500D01*
X111708170Y-80137947D01*
X111708160Y-80137950D01*
X111526092Y-80213364D01*
X111526079Y-80213371D01*
X111362218Y-80322860D01*
X111362214Y-80322863D01*
X111222863Y-80462214D01*
X111222860Y-80462218D01*
X111113371Y-80626079D01*
X111113364Y-80626092D01*
X111037950Y-80808160D01*
X111037947Y-80808170D01*
X110999500Y-81001456D01*
X110999500Y-81001459D01*
X110999500Y-81198541D01*
X110999500Y-81198543D01*
X110999499Y-81198543D01*
X110000500Y-81198543D01*
X110000500Y-81001456D01*
X109962052Y-80808170D01*
X109962051Y-80808169D01*
X109962051Y-80808165D01*
X109962049Y-80808160D01*
X109886635Y-80626092D01*
X109886628Y-80626079D01*
X109777139Y-80462218D01*
X109777136Y-80462214D01*
X109637785Y-80322863D01*
X109637781Y-80322860D01*
X109473920Y-80213371D01*
X109473907Y-80213364D01*
X109291839Y-80137950D01*
X109291829Y-80137947D01*
X109098543Y-80099500D01*
X109098541Y-80099500D01*
X107901459Y-80099500D01*
X107901457Y-80099500D01*
X107708170Y-80137947D01*
X107708160Y-80137950D01*
X107526092Y-80213364D01*
X107526079Y-80213371D01*
X107362218Y-80322860D01*
X107362214Y-80322863D01*
X107222863Y-80462214D01*
X107222860Y-80462218D01*
X107113371Y-80626079D01*
X107110498Y-80631456D01*
X107108691Y-80630490D01*
X107070715Y-80677612D01*
X107004420Y-80699673D01*
X106936721Y-80682391D01*
X106889113Y-80631251D01*
X106887473Y-80627660D01*
X106886628Y-80626079D01*
X106777139Y-80462218D01*
X106777136Y-80462214D01*
X106637785Y-80322863D01*
X106637781Y-80322860D01*
X106473920Y-80213371D01*
X106473907Y-80213364D01*
X106291839Y-80137950D01*
X106291829Y-80137947D01*
X106098543Y-80099500D01*
X106098541Y-80099500D01*
X104901459Y-80099500D01*
X104901457Y-80099500D01*
X104708170Y-80137947D01*
X104708160Y-80137950D01*
X104526092Y-80213364D01*
X104526079Y-80213371D01*
X104362218Y-80322860D01*
X104362214Y-80322863D01*
X104222863Y-80462214D01*
X104222860Y-80462218D01*
X104113371Y-80626079D01*
X104113364Y-80626092D01*
X104037950Y-80808160D01*
X104037947Y-80808170D01*
X103999500Y-81001456D01*
X103999500Y-81001459D01*
X103999500Y-81198541D01*
X103999500Y-81198543D01*
X103999499Y-81198543D01*
X100500500Y-81198543D01*
X100500500Y-66921153D01*
X108624500Y-66921153D01*
X108624500Y-67078846D01*
X108655261Y-67233489D01*
X108655264Y-67233501D01*
X108715602Y-67379172D01*
X108715609Y-67379185D01*
X108803210Y-67510288D01*
X108803213Y-67510292D01*
X108914707Y-67621786D01*
X108914711Y-67621789D01*
X109045814Y-67709390D01*
X109045827Y-67709397D01*
X109191498Y-67769735D01*
X109191503Y-67769737D01*
X109346153Y-67800499D01*
X109346156Y-67800500D01*
X109346158Y-67800500D01*
X109542060Y-67800500D01*
X109609099Y-67820185D01*
X109629741Y-67836819D01*
X113303211Y-71510289D01*
X113414708Y-71621786D01*
X113414712Y-71621790D01*
X113545814Y-71709390D01*
X113545827Y-71709397D01*
X113691498Y-71769735D01*
X113691503Y-71769737D01*
X113691507Y-71769737D01*
X113691508Y-71769738D01*
X113846154Y-71800500D01*
X113846157Y-71800500D01*
X130078844Y-71800500D01*
X130078845Y-71800499D01*
X130233497Y-71769737D01*
X130379179Y-71709394D01*
X130510289Y-71621789D01*
X130621789Y-71510289D01*
X130709394Y-71379179D01*
X130769737Y-71233497D01*
X130800500Y-71078842D01*
X130800500Y-70921158D01*
X130800500Y-70921155D01*
X130800499Y-70921153D01*
X130769738Y-70766510D01*
X130769737Y-70766503D01*
X130756062Y-70733489D01*
X130709397Y-70620827D01*
X130709390Y-70620814D01*
X130621789Y-70489711D01*
X130621786Y-70489707D01*
X130510292Y-70378213D01*
X130510288Y-70378210D01*
X130379185Y-70290609D01*
X130379172Y-70290602D01*
X130233501Y-70230264D01*
X130233489Y-70230261D01*
X130078845Y-70199500D01*
X130078842Y-70199500D01*
X114307940Y-70199500D01*
X114240901Y-70179815D01*
X114220259Y-70163181D01*
X110435292Y-66378213D01*
X110435288Y-66378210D01*
X110304185Y-66290609D01*
X110304172Y-66290602D01*
X110158501Y-66230264D01*
X110158489Y-66230261D01*
X110003845Y-66199500D01*
X110003842Y-66199500D01*
X109346158Y-66199500D01*
X109346155Y-66199500D01*
X109191510Y-66230261D01*
X109191498Y-66230264D01*
X109045827Y-66290602D01*
X109045814Y-66290609D01*
X108914711Y-66378210D01*
X108914707Y-66378213D01*
X108803213Y-66489707D01*
X108803210Y-66489711D01*
X108715609Y-66620814D01*
X108715602Y-66620827D01*
X108655264Y-66766498D01*
X108655261Y-66766510D01*
X108624500Y-66921153D01*
X100500500Y-66921153D01*
X100500500Y-64921153D01*
X112199500Y-64921153D01*
X112199500Y-65078846D01*
X112230261Y-65233489D01*
X112230264Y-65233501D01*
X112290602Y-65379172D01*
X112290609Y-65379185D01*
X112378210Y-65510288D01*
X112378213Y-65510292D01*
X112489707Y-65621786D01*
X112489711Y-65621789D01*
X112620814Y-65709390D01*
X112620827Y-65709397D01*
X112766498Y-65769735D01*
X112766503Y-65769737D01*
X112921153Y-65800499D01*
X112921156Y-65800500D01*
X112921158Y-65800500D01*
X113078844Y-65800500D01*
X113078845Y-65800499D01*
X113233497Y-65769737D01*
X113379179Y-65709394D01*
X113379185Y-65709390D01*
X113510875Y-65621398D01*
X113577553Y-65600520D01*
X113579766Y-65600500D01*
X121699903Y-65600500D01*
X121766942Y-65620185D01*
X121787583Y-65636818D01*
X124182284Y-68031520D01*
X124319215Y-68110577D01*
X124471943Y-68151501D01*
X124471946Y-68151501D01*
X124637654Y-68151501D01*
X124637670Y-68151500D01*
X143750903Y-68151500D01*
X143817942Y-68171185D01*
X143838584Y-68187819D01*
X146165425Y-70514660D01*
X146198910Y-70575983D01*
X146199361Y-70578149D01*
X146230261Y-70733491D01*
X146230264Y-70733501D01*
X146290602Y-70879172D01*
X146290609Y-70879185D01*
X146378210Y-71010288D01*
X146378213Y-71010292D01*
X146489707Y-71121786D01*
X146489711Y-71121789D01*
X146620814Y-71209390D01*
X146620827Y-71209397D01*
X146766498Y-71269735D01*
X146766503Y-71269737D01*
X146921153Y-71300499D01*
X146921156Y-71300500D01*
X146921158Y-71300500D01*
X147078844Y-71300500D01*
X147078845Y-71300499D01*
X147233497Y-71269737D01*
X147379179Y-71209394D01*
X147510289Y-71121789D01*
X147621789Y-71010289D01*
X147709394Y-70879179D01*
X147769737Y-70733497D01*
X147800500Y-70578842D01*
X147800500Y-70421158D01*
X147800500Y-70421155D01*
X147800499Y-70421153D01*
X147774531Y-70290606D01*
X147769737Y-70266503D01*
X147769735Y-70266498D01*
X147709397Y-70120827D01*
X147709390Y-70120814D01*
X147621789Y-69989711D01*
X147621786Y-69989707D01*
X147510292Y-69878213D01*
X147510288Y-69878210D01*
X147379185Y-69790609D01*
X147379172Y-69790602D01*
X147233501Y-69730264D01*
X147233491Y-69730261D01*
X147078151Y-69699362D01*
X147016241Y-69666977D01*
X147014662Y-69665426D01*
X144538590Y-67189355D01*
X144538588Y-67189352D01*
X144419717Y-67070481D01*
X144419716Y-67070480D01*
X144332904Y-67020360D01*
X144332904Y-67020359D01*
X144332900Y-67020358D01*
X144282785Y-66991423D01*
X144130057Y-66950499D01*
X143971943Y-66950499D01*
X143964347Y-66950499D01*
X143964331Y-66950500D01*
X124851098Y-66950500D01*
X124784059Y-66930815D01*
X124763417Y-66914181D01*
X122487590Y-64638355D01*
X122487588Y-64638352D01*
X122368717Y-64519481D01*
X122368716Y-64519480D01*
X122281904Y-64469360D01*
X122281904Y-64469359D01*
X122281900Y-64469358D01*
X122231785Y-64440423D01*
X122079057Y-64399499D01*
X121920943Y-64399499D01*
X121913347Y-64399499D01*
X121913331Y-64399500D01*
X113579766Y-64399500D01*
X113512727Y-64379815D01*
X113510875Y-64378602D01*
X113379185Y-64290609D01*
X113379172Y-64290602D01*
X113233501Y-64230264D01*
X113233489Y-64230261D01*
X113078845Y-64199500D01*
X113078842Y-64199500D01*
X112921158Y-64199500D01*
X112921155Y-64199500D01*
X112766510Y-64230261D01*
X112766498Y-64230264D01*
X112620827Y-64290602D01*
X112620814Y-64290609D01*
X112489711Y-64378210D01*
X112489707Y-64378213D01*
X112378213Y-64489707D01*
X112378210Y-64489711D01*
X112290609Y-64620814D01*
X112290602Y-64620827D01*
X112230264Y-64766498D01*
X112230261Y-64766510D01*
X112199500Y-64921153D01*
X100500500Y-64921153D01*
X100500500Y-63401577D01*
X101749500Y-63401577D01*
X101749500Y-63598422D01*
X101780290Y-63792826D01*
X101841117Y-63980029D01*
X101930476Y-64155405D01*
X102046172Y-64314646D01*
X102185354Y-64453828D01*
X102344595Y-64569524D01*
X102427455Y-64611743D01*
X102519970Y-64658882D01*
X102519972Y-64658882D01*
X102519975Y-64658884D01*
X102620317Y-64691487D01*
X102707173Y-64719709D01*
X102901578Y-64750500D01*
X102901583Y-64750500D01*
X103098422Y-64750500D01*
X103292826Y-64719709D01*
X103480025Y-64658884D01*
X103655405Y-64569524D01*
X103814646Y-64453828D01*
X103953828Y-64314646D01*
X104069524Y-64155405D01*
X104158884Y-63980025D01*
X104219709Y-63792826D01*
X104250500Y-63598422D01*
X104250500Y-63401577D01*
X104219709Y-63207173D01*
X104158882Y-63019970D01*
X104069523Y-62844594D01*
X103953828Y-62685354D01*
X103814646Y-62546172D01*
X103655405Y-62430476D01*
X103480029Y-62341117D01*
X103292826Y-62280290D01*
X103098422Y-62249500D01*
X103098417Y-62249500D01*
X102901583Y-62249500D01*
X102901578Y-62249500D01*
X102707173Y-62280290D01*
X102519970Y-62341117D01*
X102344594Y-62430476D01*
X102253741Y-62496485D01*
X102185354Y-62546172D01*
X102185352Y-62546174D01*
X102185351Y-62546174D01*
X102046174Y-62685351D01*
X102046174Y-62685352D01*
X102046172Y-62685354D01*
X101996485Y-62753741D01*
X101930476Y-62844594D01*
X101841117Y-63019970D01*
X101780290Y-63207173D01*
X101749500Y-63401577D01*
X100500500Y-63401577D01*
X100500500Y-60724000D01*
X100520185Y-60656961D01*
X100572989Y-60611206D01*
X100624500Y-60600000D01*
X142700000Y-60600000D01*
X142700000Y-57901577D01*
X152749500Y-57901577D01*
X152749500Y-58098422D01*
X152780290Y-58292826D01*
X152841117Y-58480029D01*
X152930476Y-58655405D01*
X153046172Y-58814646D01*
X153185354Y-58953828D01*
X153344595Y-59069524D01*
X153427455Y-59111743D01*
X153519970Y-59158882D01*
X153519972Y-59158882D01*
X153519975Y-59158884D01*
X153620317Y-59191487D01*
X153707173Y-59219709D01*
X153901578Y-59250500D01*
X153901583Y-59250500D01*
X154098422Y-59250500D01*
X154292826Y-59219709D01*
X154480025Y-59158884D01*
X154655405Y-59069524D01*
X154814646Y-58953828D01*
X154953828Y-58814646D01*
X155069524Y-58655405D01*
X155158884Y-58480025D01*
X155219709Y-58292826D01*
X155250500Y-58098422D01*
X155250500Y-57901577D01*
X155219709Y-57707173D01*
X155158882Y-57519970D01*
X155069523Y-57344594D01*
X154953828Y-57185354D01*
X154814646Y-57046172D01*
X154655405Y-56930476D01*
X154480029Y-56841117D01*
X154292826Y-56780290D01*
X154098422Y-56749500D01*
X154098417Y-56749500D01*
X153901583Y-56749500D01*
X153901578Y-56749500D01*
X153707173Y-56780290D01*
X153519970Y-56841117D01*
X153344594Y-56930476D01*
X153253741Y-56996485D01*
X153185354Y-57046172D01*
X153185352Y-57046174D01*
X153185351Y-57046174D01*
X153046174Y-57185351D01*
X153046174Y-57185352D01*
X153046172Y-57185354D01*
X152996485Y-57253741D01*
X152930476Y-57344594D01*
X152841117Y-57519970D01*
X152780290Y-57707173D01*
X152749500Y-57901577D01*
X142700000Y-57901577D01*
X142700000Y-55624500D01*
X142719685Y-55557461D01*
X142772489Y-55511706D01*
X142824000Y-55500500D01*
X156375500Y-55500500D01*
X156442539Y-55520185D01*
G37*
%TD.AperFunction*%
%TD*%
M02*
