M48
; DRILL file {KiCad 9.0.4} date 2026-05-31T13:47:20-0700
; FORMAT={-:-/ absolute / metric / decimal}
; #@! TF.CreationDate,2026-05-31T13:47:20-07:00
; #@! TF.GenerationSoftware,Kicad,Pcbnew,9.0.4
; #@! TF.FileFunction,Plated,1,2,PTH
FMAT,2
METRIC
; #@! TA.AperFunction,Plated,PTH,ViaDrill
T1C0.300
; #@! TA.AperFunction,Plated,PTH,ComponentDrill
T2C0.500
; #@! TA.AperFunction,Plated,PTH,ComponentDrill
T3C0.600
; #@! TA.AperFunction,Plated,PTH,ComponentDrill
T4C1.200
; #@! TA.AperFunction,Plated,PTH,ComponentDrill
T5C2.300
%
G90
G05
T1
X105.5Y-95.5
X109.0Y-89.0
X109.0Y-92.0
X109.425Y-67.0
X109.5Y-64.25
X110.5Y-95.0
X111.981Y-91.029
X112.0Y-90.0
X112.451Y-95.0
X112.557Y-91.722
X112.825Y-89.975
X113.0Y-63.35
X113.0Y-65.0
X113.0Y-73.5
X113.0Y-75.5
X113.59Y-91.675
X114.175Y-90.025
X114.75Y-100.75
X114.75Y-106.25
X115.073Y-91.43
X115.4Y-90.7
X116.0Y-88.0
X118.0Y-94.5
X118.5Y-83.5
X119.3Y-103.425
X120.0Y-66.75
X120.0Y-75.5
X121.0Y-75.5
X121.75Y-104.314
X122.5Y-100.0
X122.519Y-102.371
X125.7Y-103.425
X126.5Y-95.5
X127.0Y-64.0
X127.0Y-65.0
X127.0Y-75.5
X128.5Y-100.0
X129.5Y-90.5
X130.0Y-71.0
X130.5Y-100.0
X131.5Y-67.0
X132.5Y-100.0
X135.0Y-70.5
X135.65Y-92.5
X139.5Y-75.0
X140.0Y-93.0
X143.0Y-70.5
X143.0Y-93.0
X145.0Y-92.0
X145.137Y-93.95
X145.3Y-82.25
X147.0Y-66.0
X147.0Y-70.5
X147.0Y-97.5
X155.0Y-66.0
T4
X103.9Y-83.5
X110.9Y-83.5
T5
X136.93Y-100.8
X150.07Y-100.8
T2
G00X105.0Y-81.1
M15
G01X106.0Y-81.1
M16
G05
G00X108.0Y-81.1
M15
G01X109.0Y-81.1
M16
G05
G00X112.0Y-81.1
M15
G01X113.0Y-81.1
M16
G05
G00X113.0Y-85.9
M15
G01X114.0Y-85.9
M16
G05
T3
G00X118.18Y-103.45
M15
G01X118.18Y-104.55
M16
G05
G00X118.18Y-107.78
M15
G01X118.18Y-108.58
M16
G05
G00X126.82Y-103.45
M15
G01X126.82Y-104.55
M16
G05
G00X126.82Y-107.78
M15
G01X126.82Y-108.58
M16
G05
M30
