#VRML V2.0 utf8
# 3D model generated by easyeda2kicad.py (https://github.com/uPesy/easyeda2kicad.py)

Shape{
    appearance Appearance {
        material  Material 	{
            diffuseColor 0.19607843137254902 0.19607843137254902 0.19607843137254902
            specularColor 0.09803921568627451 0.09803921568627451 0.09803921568627451
            ambientIntensity 0.1961
            transparency 0.0
            shininess 0.5
        }
    }
    geometry IndexedFaceSet {
        ccw TRUE
        solid FALSE
        coord DEF co Coordinate {
            point [
                0.4331 -0.7874 0.5443, 0.4331 -0.7874 0.3474, 0.4331 -0.1575 0.5443, 0.4331 -0.1575 0.3474, 0.2129 0.3162 0.0197, 0.3725 0.3162 0.0197, 0.3725 -1.2795 0.0197, -1.748 1.0433 0.0197, -1.752 1.0433 0.0197, -1.752 1.2795 0.0197, 0.0045 0.3177 0.0197, 0.0411 0.3177 0.0197, 0.0517 0.3162 0.0197, 0.0411 0.4358 0.0197, -0.1285 0.4358 0.0197, -0.1831 0.3177 0.0197, -0.2559 0.3162 0.0197, -0.071 0.3177 0.0197, -0.0321 0.326 0.0197, -0.0083 0.3183 0.0197, -0.0826 0.3177 0.0197, -0.1715 0.3177 0.0197, -0.1005 0.3555 0.0197, -0.1541 0.3555 0.0197, -1.6693 0.6357 0.0197, -1.5749 1.0236 0.0197, -1.5749 0.7145 0.0197, -1.725 0.6588 0.0197, -1.742 0.6843 0.0197, -1.748 0.7145 0.0197, -0.0416 0.4172 0.0197, -0.0536 0.3938 0.0197, -0.127 0.4358 0.0197, -0.0559 0.3753 0.0197, -0.0492 0.3455 0.0197, -0.2559 0.9055 0.0197, -0.2649 0.9507 0.0197, 0.0517 1.2795 0.0197, -0.2905 0.989 0.0197, -0.374 1.0236 0.0197, -0.3288 1.0146 0.0197, 0.0172 0.4358 0.0197, -0.0017 0.4351 0.0197, -0.0203 0.4315 0.0197, -1.5854 0.6751 0.0197, -1.6143 0.6463 0.0197, -1.6536 0.6357 0.0197, -1.6994 0.6417 0.0197, 0.0517 -1.2795 0.0197, -1.752 -1.2795 0.0197, -1.748 -1.0433 0.0197, -1.752 -1.0433 0.0197, -1.6536 -0.6357 0.0197, -1.748 -0.7145 0.0197, -0.2649 -0.9507 0.0197, -0.2559 -0.9055 0.0197, -1.742 -0.6843 0.0197, -1.725 -0.6588 0.0197, -1.598 -0.6588 0.0197, -1.5809 -0.6843 0.0197, -1.6235 -0.6417 0.0197, -1.5749 -0.7145 0.0197, -0.374 -1.0236 0.0197, -0.3288 -1.0146 0.0197, -0.2905 -0.989 0.0197, -1.6693 -0.6357 0.0197, -1.6994 -0.6417 0.0197, -0.1732 0.1545 0.0197, -0.1732 -0.1545 0.0197, -0.1772 -0.1545 0.0197, -1.5749 -1.0236 0.0197, -0.1772 0.1545 0.0197, -0.2073 0.1605 0.0197, -0.2329 0.1775 0.0197, -0.2329 -0.1775 0.0197, -0.2073 -0.1605 0.0197, -0.2499 -0.2031 0.0197, -0.2559 -0.2332 0.0197, -0.2559 0.2332 0.0197, -0.2499 0.2031 0.0197, 0.1289 0.4358 0.0197, 0.0623 0.4358 0.0197, 0.0623 0.4237 0.0197, 0.2682 0.3774 0.0197, 0.2606 0.4076 0.0197, 0.2818 0.3298 0.0197, 0.0623 0.3752 0.0197, 0.1183 0.3752 0.0197, 0.1183 0.3298 0.0197, 0.2818 0.3177 0.0197, 0.3378 0.3177 0.0197, 0.3378 0.4358 0.0197, 0.0623 0.3298 0.0197, 0.0623 0.3177 0.0197, 0.2404 0.4289 0.0197, 0.2099 0.4386 0.0197, 0.3272 0.3298 0.0197, 0.3272 0.4358 0.0197, 0.3725 1.2795 0.0197, 0.0623 0.3873 0.0197, 0.1183 0.3873 0.0197, 0.1183 0.4237 0.0197, 0.2046 0.4388 0.0197, 0.1758 0.4328 0.0197, 0.1637 0.4253 0.0197, 0.1289 0.3177 0.0197, 0.1531 0.4141 0.0197, 0.1568 0.4188 0.0197, 0.2312 0.3195 0.0197, 0.2427 0.3257 0.0197, 0.2315 0.4202 0.0197, 0.2498 0.4037 0.0197, 0.2053 0.4267 0.0197, 0.2574 0.3814 0.0197, 0.2576 0.3766 0.0197, 0.2515 0.3523 0.0197, 0.2352 0.3352 0.0197, 0.212 0.3272 0.0197, 0.1896 0.3162 0.0197, 0.1892 0.3162 0.0197, 0.1758 0.3208 0.0197, 0.2495 0.3313 0.0197, 0.2532 0.3353 0.0197, 0.2646 0.355 0.0197, 0.1531 0.3394 0.0197, 0.1624 0.3465 0.0197, 0.1624 0.407 0.0197, 0.1812 0.3318 0.0197, 0.1815 0.4219 0.0197, 0.2046 0.3268 0.0197, 0.1927 0.4255 0.0197, 0.2004 0.4265 0.0197, 0.1986 0.3149 0.0197, 0.2045 0.3147 0.0197, 0.4331 -1.0236 0.3474, 0.4331 -1.0236 0.5443, 0.4331 -1.2509 0.3474, 0.4331 -1.2336 0.5443, 0.4331 0.1575 0.3474, 0.4331 0.7874 0.3474, 0.4331 0.1575 0.5443, 0.4331 0.7874 0.5443, 0.4331 1.2509 0.3474, 0.4331 1.2336 0.5443, 0.4331 1.0236 0.3474, 0.4331 1.0236 0.5443, -1.6728 1.2003 0.9252, 0.3725 1.2003 0.9252, -1.7365 1.0433 0.1969, -1.7365 -1.0433 0.1969, -1.6728 -1.2003 0.9252, 0.3725 -1.2003 0.9252, -0.0945 -0.2051 0.9252, 0.008 -0.1776 0.9252, -0.197 -0.1776 0.9252, -0.2721 -0.1025 0.9252, -0.2996 0.0 0.9252, -0.2721 0.1025 0.9252, -0.197 0.1776 0.9252, -0.0945 0.2051 0.9252, 0.008 0.1776 0.9252, 0.0831 0.1025 0.9252, 0.1106 0.0 0.9252, 0.0831 -0.1025 0.9252
            ]
        }
        coordIndex [
            0,1,2,-1,2,1,3,-1,4,5,6,-1,7,8,9,-1,10,11,12,-1,12,11,13,-1,14,15,16,-1,17,18,19,-1,19,10,17,-1,17,10,12,-1,17,12,20,-1,20,12,21,-1,20,21,22,-1,22,21,23,-1,24,25,26,-1,27,28,29,-1,30,31,32,-1,32,31,33,-1,32,33,17,-1,17,33,34,-1,17,34,18,-1,35,36,37,-1,37,36,38,-1,29,7,25,-1,25,7,9,-1,25,9,39,-1,39,9,37,-1,39,37,40,-1,40,37,38,-1,13,41,37,-1,37,41,42,-1,37,42,43,-1,16,35,14,-1,14,35,37,-1,14,37,32,-1,32,37,43,-1,32,43,30,-1,44,45,26,-1,26,45,46,-1,26,46,24,-1,25,24,29,-1,29,24,47,-1,29,47,27,-1,48,49,50,-1,50,49,51,-1,52,50,53,-1,48,54,55,-1,53,56,57,-1,58,59,60,-1,60,59,61,-1,62,63,48,-1,48,63,64,-1,48,64,54,-1,52,53,65,-1,65,53,57,-1,65,57,66,-1,67,12,68,-1,68,12,48,-1,68,48,69,-1,69,48,55,-1,62,48,70,-1,70,48,50,-1,70,50,61,-1,61,50,52,-1,61,52,60,-1,67,71,12,-1,12,71,72,-1,12,72,73,-1,74,75,76,-1,76,75,69,-1,76,69,77,-1,77,69,55,-1,15,21,16,-1,16,21,12,-1,16,12,78,-1,78,12,73,-1,78,73,79,-1,80,81,37,-1,13,37,12,-1,12,37,81,-1,12,81,82,-1,83,84,85,-1,86,87,88,-1,89,90,5,-1,5,90,91,-1,92,93,12,-1,85,84,37,-1,37,84,94,-1,37,94,95,-1,96,85,97,-1,97,85,37,-1,97,37,91,-1,91,37,98,-1,91,98,5,-1,88,92,86,-1,86,92,12,-1,86,12,99,-1,99,12,82,-1,99,82,100,-1,100,82,101,-1,95,102,37,-1,37,102,103,-1,37,103,104,-1,105,80,106,-1,106,80,37,-1,106,37,107,-1,107,37,104,-1,5,4,89,-1,89,4,108,-1,89,108,109,-1,110,111,112,-1,112,111,113,-1,112,113,114,-1,114,115,112,-1,112,115,116,-1,112,116,117,-1,118,105,119,-1,119,105,120,-1,109,121,89,-1,89,121,122,-1,89,122,85,-1,85,122,123,-1,85,123,83,-1,120,105,124,-1,124,105,106,-1,124,106,125,-1,125,106,126,-1,125,126,127,-1,127,126,128,-1,127,128,129,-1,129,128,130,-1,129,130,117,-1,117,130,131,-1,117,131,112,-1,93,105,12,-1,12,105,118,-1,12,118,48,-1,48,118,132,-1,48,132,6,-1,6,132,133,-1,6,133,4,-1,134,135,136,-1,136,135,137,-1,138,139,140,-1,140,139,141,-1,142,143,144,-1,144,143,145,-1,9,146,37,-1,37,146,147,-1,147,143,37,-1,37,143,142,-1,37,142,98,-1,9,8,148,-1,51,49,149,-1,149,49,150,-1,149,150,148,-1,148,150,146,-1,148,146,9,-1,150,49,151,-1,151,49,48,-1,6,136,48,-1,48,136,137,-1,48,137,151,-1,150,151,152,-1,152,151,153,-1,152,154,150,-1,150,154,155,-1,150,155,146,-1,146,155,156,-1,156,157,146,-1,146,157,158,-1,146,158,147,-1,147,158,159,-1,147,159,160,-1,160,161,147,-1,147,161,162,-1,147,162,151,-1,151,162,163,-1,151,163,153,-1,
        ]
    }
}
Shape{
    appearance Appearance {
        material  Material 	{
            diffuseColor 0.6470588235294118 0.6196078431372549 0.5882352941176471
            specularColor 0.45098039215686275 0.43529411764705883 0.4117647058823529
            ambientIntensity 0.6242
            transparency 0.0
            shininess 0.5
        }
    }
    geometry IndexedFaceSet {
        ccw TRUE
        solid FALSE
        coord DEF co Coordinate {
            point [
                0.6722 1.0236 0.5443, 0.4331 1.0236 0.5443, 0.6722 0.7874 0.5443, 0.4331 0.7874 0.5443, 0.7737 0.7874 0.5249, 0.7737 1.0236 0.5249, 0.8609 0.7874 0.4696, 0.8609 1.0236 0.4696, 0.9216 0.7874 0.3861, 0.9216 1.0236 0.3861, 0.9894 1.0236 0.242, 0.9894 0.7874 0.242, 1.0068 1.0236 0.2182, 1.0068 0.7874 0.2182, 1.0317 1.0236 0.2024, 1.0317 0.7874 0.2024, 1.0606 1.0236 0.1969, 1.0606 0.7874 0.1969, 1.5157 1.0236 0.1969, 1.5157 0.7874 0.1969, 1.5157 1.0236 0.0, 1.5157 0.7874 0.0, 1.0606 1.0236 0.0, 1.0606 0.7874 0.0, 0.9592 0.7874 0.0193, 0.9592 1.0236 0.0193, 0.872 0.7874 0.0747, 0.872 1.0236 0.0747, 0.8113 0.7874 0.1582, 0.8113 1.0236 0.1582, 0.7435 1.0236 0.3022, 0.7435 0.7874 0.3022, 0.7261 1.0236 0.3261, 0.7261 0.7874 0.3261, 0.7012 1.0236 0.3419, 0.7012 0.7874 0.3419, 0.6722 1.0236 0.3474, 0.6722 0.7874 0.3474, 0.4331 1.0236 0.3474, 0.4331 0.7874 0.3474, 0.6722 -1.0236 0.3474, 0.4331 -1.0236 0.3474, 0.6722 -0.7874 0.3474, 0.4331 -0.7874 0.3474, 0.7012 -1.0236 0.3419, 0.7012 -0.7874 0.3419, 0.7261 -1.0236 0.3261, 0.7261 -0.7874 0.3261, 0.7435 -1.0236 0.3022, 0.7435 -0.7874 0.3022, 0.8113 -1.0236 0.1582, 0.8113 -0.7874 0.1582, 0.872 -0.7874 0.0747, 0.872 -1.0236 0.0747, 0.9592 -0.7874 0.0193, 0.9592 -1.0236 0.0193, 1.0606 -0.7874 0.0, 1.0606 -1.0236 0.0, 1.5157 -1.0236 0.0, 1.5157 -0.7874 0.0, 1.5157 -1.0236 0.1969, 1.5157 -0.7874 0.1969, 1.0606 -1.0236 0.1969, 1.0606 -0.7874 0.1969, 1.0317 -1.0236 0.2024, 1.0317 -0.7874 0.2024, 1.0068 -1.0236 0.2182, 1.0068 -0.7874 0.2182, 0.9894 -1.0236 0.242, 0.9894 -0.7874 0.242, 0.9216 -1.0236 0.3861, 0.9216 -0.7874 0.3861, 0.8609 -0.7874 0.4696, 0.8609 -1.0236 0.4696, 0.7737 -0.7874 0.5249, 0.7737 -1.0236 0.5249, 0.6722 -0.7874 0.5443, 0.6722 -1.0236 0.5443, 0.4331 -1.0236 0.5443, 0.4331 -0.7874 0.5443, -2.3032 -0.9646 0.1969, -2.2244 -1.0433 0.1969, -1.7365 -1.0433 0.1969, -2.3032 0.9646 0.1969, -2.2244 1.0433 0.1969, -1.7365 1.0433 0.1969, -1.748 -1.0433 0.0, -1.748 -1.0433 0.0197, -1.752 -1.0433 0.0197, -2.2244 -1.0433 0.0, -1.748 -0.7145 0.0, -1.748 -0.7145 0.0197, -1.742 -0.6843 0.0197, -1.742 -0.6843 0.0, -1.725 -0.6588 0.0197, -1.725 -0.6588 0.0, -1.6994 -0.6417 0.0197, -1.6994 -0.6417 0.0, -1.6693 -0.6357 0.0197, -1.6693 -0.6357 0.0, -1.6536 -0.6357 0.0, -1.6536 -0.6357 0.0197, -1.6235 -0.6417 0.0197, -1.6235 -0.6417 0.0, -1.598 -0.6588 0.0197, -1.598 -0.6588 0.0, -1.5809 -0.6843 0.0197, -1.5809 -0.6843 0.0, -1.5749 -0.7145 0.0197, -1.5749 -0.7145 0.0, -1.5749 -1.0236 0.0, -1.5749 -1.0236 0.0197, -0.374 -1.0236 0.0, -0.374 -1.0236 0.0197, -0.3288 -1.0146 0.0, -0.3288 -1.0146 0.0197, -0.2905 -0.989 0.0, -0.2905 -0.989 0.0197, -0.2649 -0.9507 0.0, -0.2649 -0.9507 0.0197, -0.2559 -0.9055 0.0, -0.2559 -0.9055 0.0197, -0.2559 -0.2332 0.0, -0.2559 -0.2332 0.0197, -0.2499 -0.2031 0.0197, -0.2499 -0.2031 0.0, -0.2329 -0.1775 0.0197, -0.2329 -0.1775 0.0, -0.2073 -0.1605 0.0197, -0.2073 -0.1605 0.0, -0.1772 -0.1545 0.0197, -0.1772 -0.1545 0.0, -0.1732 -0.1545 0.0, -0.1732 -0.1545 0.0197, -0.1732 0.1545 0.0, -0.1732 0.1545 0.0197, -0.1772 0.1545 0.0, -0.1772 0.1545 0.0197, -0.2073 0.1605 0.0197, -0.2073 0.1605 0.0, -0.2329 0.1775 0.0197, -0.2329 0.1775 0.0, -0.2499 0.2031 0.0197, -0.2499 0.2031 0.0, -0.2559 0.2332 0.0197, -0.2559 0.2332 0.0, -0.2559 0.3162 0.0197, -0.2559 0.9055 0.0, -0.2559 0.9055 0.0197, -0.2649 0.9507 0.0, -0.2649 0.9507 0.0197, -0.2905 0.989 0.0, -0.2905 0.989 0.0197, -0.3288 1.0146 0.0, -0.3288 1.0146 0.0197, -0.374 1.0236 0.0, -0.374 1.0236 0.0197, -1.5749 1.0236 0.0, -1.5749 1.0236 0.0197, -1.5749 0.7145 0.0, -1.5749 0.7145 0.0197, -1.5854 0.6751 0.0197, -1.5854 0.6751 0.0, -1.6143 0.6463 0.0197, -1.6143 0.6463 0.0, -1.6536 0.6357 0.0197, -1.6536 0.6357 0.0, -1.6693 0.6357 0.0, -1.6693 0.6357 0.0197, -1.6994 0.6417 0.0197, -1.6994 0.6417 0.0, -1.725 0.6588 0.0197, -1.725 0.6588 0.0, -1.742 0.6843 0.0197, -1.742 0.6843 0.0, -1.748 0.7145 0.0197, -1.748 0.7145 0.0, -1.748 1.0433 0.0, -1.748 1.0433 0.0197, -1.752 1.0433 0.0197, -2.2244 1.0433 0.0, -2.3032 0.9646 0.0, -2.3032 -0.9646 0.0
            ]
        }
        coordIndex [
            0,1,2,-1,2,1,3,-1,0,2,4,-1,0,4,5,-1,5,4,6,-1,5,6,7,-1,7,6,8,-1,7,8,9,-1,10,9,11,-1,11,9,8,-1,10,11,12,-1,12,11,13,-1,12,13,14,-1,14,13,15,-1,14,15,16,-1,16,15,17,-1,18,16,19,-1,19,16,17,-1,20,18,21,-1,21,18,19,-1,22,20,23,-1,23,20,21,-1,22,23,24,-1,22,24,25,-1,25,24,26,-1,25,26,27,-1,27,26,28,-1,27,28,29,-1,30,29,31,-1,31,29,28,-1,30,31,32,-1,32,31,33,-1,32,33,34,-1,34,33,35,-1,34,35,36,-1,36,35,37,-1,38,36,39,-1,39,36,37,-1,38,1,36,-1,36,1,0,-1,36,0,34,-1,34,0,5,-1,34,5,32,-1,32,5,7,-1,32,7,30,-1,30,7,9,-1,30,9,29,-1,29,9,10,-1,29,10,27,-1,27,10,12,-1,27,12,25,-1,25,12,14,-1,25,14,22,-1,22,14,16,-1,22,16,20,-1,20,16,18,-1,21,19,23,-1,23,19,17,-1,23,17,24,-1,24,17,15,-1,24,15,26,-1,26,15,13,-1,26,13,28,-1,28,13,11,-1,28,11,31,-1,31,11,8,-1,31,8,33,-1,33,8,6,-1,33,6,35,-1,35,6,4,-1,35,4,37,-1,37,4,2,-1,37,2,39,-1,39,2,3,-1,40,41,42,-1,42,41,43,-1,40,42,44,-1,44,42,45,-1,44,45,46,-1,46,45,47,-1,46,47,48,-1,48,47,49,-1,50,48,51,-1,51,48,49,-1,50,51,52,-1,50,52,53,-1,53,52,54,-1,53,54,55,-1,55,54,56,-1,55,56,57,-1,58,57,59,-1,59,57,56,-1,60,58,61,-1,61,58,59,-1,62,60,63,-1,63,60,61,-1,62,63,64,-1,64,63,65,-1,64,65,66,-1,66,65,67,-1,66,67,68,-1,68,67,69,-1,70,68,71,-1,71,68,69,-1,70,71,72,-1,70,72,73,-1,73,72,74,-1,73,74,75,-1,75,74,76,-1,75,76,77,-1,78,77,79,-1,79,77,76,-1,78,41,77,-1,77,41,40,-1,77,40,75,-1,75,40,44,-1,75,44,73,-1,73,44,46,-1,73,46,70,-1,70,46,48,-1,70,48,68,-1,68,48,50,-1,68,50,66,-1,66,50,53,-1,66,53,64,-1,64,53,55,-1,64,55,62,-1,62,55,57,-1,62,57,60,-1,60,57,58,-1,61,59,63,-1,63,59,56,-1,63,56,65,-1,65,56,54,-1,65,54,67,-1,67,54,52,-1,67,52,69,-1,69,52,51,-1,69,51,71,-1,71,51,49,-1,71,49,72,-1,72,49,47,-1,72,47,74,-1,74,47,45,-1,74,45,76,-1,76,45,42,-1,76,42,79,-1,79,42,43,-1,80,81,82,-1,83,80,84,-1,84,80,82,-1,84,82,85,-1,86,87,88,-1,82,81,88,-1,88,81,89,-1,88,89,86,-1,86,90,87,-1,87,90,91,-1,91,90,92,-1,92,90,93,-1,92,93,94,-1,94,93,95,-1,94,95,96,-1,96,95,97,-1,96,97,98,-1,98,97,99,-1,99,100,98,-1,98,100,101,-1,101,100,102,-1,102,100,103,-1,102,103,104,-1,104,103,105,-1,104,105,106,-1,106,105,107,-1,106,107,108,-1,108,107,109,-1,109,110,108,-1,108,110,111,-1,110,112,111,-1,111,112,113,-1,113,112,114,-1,113,114,115,-1,115,114,116,-1,115,116,117,-1,117,116,118,-1,117,118,119,-1,119,118,120,-1,119,120,121,-1,120,122,121,-1,121,122,123,-1,123,122,124,-1,124,122,125,-1,124,125,126,-1,126,125,127,-1,126,127,128,-1,128,127,129,-1,128,129,130,-1,130,129,131,-1,131,132,130,-1,130,132,133,-1,132,134,133,-1,133,134,135,-1,134,136,135,-1,135,136,137,-1,137,136,138,-1,138,136,139,-1,138,139,140,-1,140,139,141,-1,140,141,142,-1,142,141,143,-1,142,143,144,-1,144,143,145,-1,144,145,146,-1,146,145,147,-1,146,147,148,-1,148,147,149,-1,148,149,150,-1,150,149,151,-1,150,151,152,-1,152,151,153,-1,152,153,154,-1,154,153,155,-1,154,155,156,-1,155,157,156,-1,156,157,158,-1,157,159,158,-1,158,159,160,-1,160,159,161,-1,161,159,162,-1,161,162,163,-1,163,162,164,-1,163,164,165,-1,165,164,166,-1,166,167,165,-1,165,167,168,-1,168,167,169,-1,169,167,170,-1,169,170,171,-1,171,170,172,-1,171,172,173,-1,173,172,174,-1,173,174,175,-1,175,174,176,-1,176,177,175,-1,175,177,178,-1,178,177,179,-1,179,177,180,-1,179,180,85,-1,85,180,84,-1,181,83,180,-1,180,83,84,-1,182,80,181,-1,181,80,83,-1,89,81,182,-1,182,81,80,-1,114,112,164,-1,134,132,136,-1,136,132,139,-1,172,170,182,-1,162,132,131,-1,164,122,120,-1,159,145,162,-1,162,145,143,-1,162,143,132,-1,132,143,141,-1,132,141,139,-1,180,177,181,-1,181,177,176,-1,181,176,182,-1,182,176,174,-1,182,174,172,-1,86,89,90,-1,90,89,182,-1,131,129,162,-1,162,129,127,-1,162,127,164,-1,164,127,125,-1,164,125,122,-1,155,153,151,-1,110,109,112,-1,112,109,107,-1,112,107,164,-1,120,118,164,-1,164,118,116,-1,164,116,114,-1,159,157,145,-1,145,157,155,-1,145,155,147,-1,147,155,151,-1,147,151,149,-1,170,95,182,-1,182,95,93,-1,182,93,90,-1,107,105,164,-1,164,105,103,-1,164,103,166,-1,166,103,100,-1,166,100,167,-1,167,100,99,-1,167,99,170,-1,170,99,97,-1,170,97,95,-1,
        ]
    }
}
Shape{
    appearance Appearance {
        material  Material 	{
            diffuseColor 0.19607843137254902 0.19607843137254902 0.19607843137254902
            specularColor 0.09803921568627451 0.09803921568627451 0.09803921568627451
            ambientIntensity 0.1961
            transparency 0.0
            shininess 0.5
        }
    }
    geometry IndexedFaceSet {
        ccw TRUE
        solid FALSE
        coord DEF co Coordinate {
            point [
                0.4331 1.0236 0.5443, 0.4331 1.2336 0.5443, 0.3725 1.2003 0.9252, 0.3725 -1.2003 0.9252, 0.4331 -1.2336 0.5443, 0.4331 -1.0236 0.5443, 0.4331 0.7874 0.5443, 0.4331 -0.7874 0.5443, 0.4331 -0.1575 0.5443, 0.4331 0.1575 0.5443, 0.4331 -1.0236 0.3474, 0.4331 -1.2509 0.3474, 0.3725 -1.2795 0.0197, 0.4331 0.7874 0.3474, 0.3725 0.3162 0.0197, 0.4331 1.0236 0.3474, 0.3725 1.2795 0.0197, 0.4331 1.2509 0.3474, 0.4331 0.1575 0.3474, 0.4331 -0.1575 0.3474, 0.4331 -0.7874 0.3474, 0.1106 -0.0 0.9055, 0.1106 0.0 0.9252, 0.0831 0.1025 0.9055, 0.0831 0.1025 0.9252, 0.008 0.1776 0.9055, 0.008 0.1776 0.9252, -0.0945 0.2051 0.9055, -0.0945 0.2051 0.9252, -0.197 0.1776 0.9055, -0.197 0.1776 0.9252, -0.2721 0.1025 0.9055, -0.2721 0.1025 0.9252, -0.2996 0.0 0.9055, -0.2996 0.0 0.9252, -0.2721 -0.1025 0.9055, -0.2721 -0.1025 0.9252, -0.197 -0.1776 0.9055, -0.197 -0.1776 0.9252, -0.0945 -0.2051 0.9055, -0.0945 -0.2051 0.9252, 0.008 -0.1776 0.9055, 0.008 -0.1776 0.9252, 0.0831 -0.1025 0.9055, 0.0831 -0.1025 0.9252, -0.0945 0.0 0.9055
            ]
        }
        coordIndex [
            0,1,2,-1,3,4,5,-1,0,2,6,-1,5,7,3,-1,3,7,8,-1,3,8,2,-1,2,8,9,-1,2,9,6,-1,10,11,12,-1,13,14,15,-1,15,14,16,-1,15,16,17,-1,13,18,14,-1,14,18,19,-1,14,19,12,-1,12,19,20,-1,12,20,10,-1,21,22,23,-1,23,22,24,-1,23,24,25,-1,25,24,26,-1,25,26,27,-1,27,26,28,-1,27,28,29,-1,29,28,30,-1,29,30,31,-1,31,30,32,-1,31,32,33,-1,33,32,34,-1,33,34,35,-1,35,34,36,-1,35,36,37,-1,37,36,38,-1,37,38,39,-1,39,38,40,-1,39,40,41,-1,41,40,42,-1,41,42,43,-1,43,42,44,-1,43,44,21,-1,21,44,22,-1,41,43,45,-1,45,43,21,-1,45,21,23,-1,35,37,45,-1,45,37,39,-1,45,39,41,-1,29,31,45,-1,45,31,33,-1,45,33,35,-1,23,25,45,-1,45,25,27,-1,45,27,29,-1,
        ]
    }
}
Shape{
    appearance Appearance {
        material  Material 	{
            diffuseColor 0.7529411764705882 0.7529411764705882 0.7529411764705882
            specularColor 0.3764705882352941 0.3764705882352941 0.3764705882352941
            ambientIntensity 0.7529
            transparency 0.0
            shininess 0.5
        }
    }
    geometry IndexedFaceSet {
        ccw TRUE
        solid FALSE
        coord DEF co Coordinate {
            point [
                -0.127 0.4358 0.0394, -0.1285 0.4358 0.0394, -0.127 0.4358 0.0197, -0.1285 0.4358 0.0197, -0.1831 0.3177 0.0394, -0.1831 0.3177 0.0197, -0.1715 0.3177 0.0394, -0.1715 0.3177 0.0197, -0.1541 0.3555 0.0394, -0.1541 0.3555 0.0197, -0.1005 0.3555 0.0394, -0.1005 0.3555 0.0197, -0.0826 0.3177 0.0394, -0.0826 0.3177 0.0197, -0.071 0.3177 0.0394, -0.071 0.3177 0.0197, -0.1485 0.3677 0.0394, -0.1063 0.3677 0.0394, -0.1277 0.4128 0.0394, -0.1485 0.3677 0.0197, -0.1277 0.4128 0.0197, -0.1063 0.3677 0.0197, 0.0045 0.3177 0.0394, 0.0411 0.3177 0.0394, 0.0045 0.3177 0.0197, 0.0411 0.3177 0.0197, 0.0411 0.4358 0.0394, 0.0411 0.4358 0.0197, 0.0172 0.4358 0.0394, 0.0172 0.4358 0.0197, -0.0203 0.4315 0.0394, -0.0203 0.4315 0.0197, -0.0017 0.4351 0.0197, -0.0017 0.4351 0.0394, -0.0559 0.3753 0.0394, -0.0559 0.3753 0.0197, -0.0536 0.3938 0.0197, -0.0536 0.3938 0.0394, -0.0416 0.4172 0.0197, -0.0416 0.4172 0.0394, -0.0083 0.3183 0.0197, -0.0083 0.3183 0.0394, -0.0321 0.326 0.0197, -0.0321 0.326 0.0394, -0.0492 0.3455 0.0197, -0.0492 0.3455 0.0394, -0.0434 0.3606 0.0394, -0.0337 0.3433 0.0394, -0.0169 0.3328 0.0394, -0.0001 0.3303 0.0394, 0.0169 0.3298 0.0394, 0.0305 0.3298 0.0394, 0.0305 0.4237 0.0394, 0.0221 0.4237 0.0394, 0.0039 0.4231 0.0394, -0.0141 0.4204 0.0394, -0.0272 0.4141 0.0394, -0.0401 0.3989 0.0394, -0.0453 0.3753 0.0394, 0.0305 0.4237 0.0197, 0.0305 0.3298 0.0197, 0.0221 0.4237 0.0197, 0.0039 0.4231 0.0197, -0.0141 0.4204 0.0197, -0.0272 0.4141 0.0197, -0.0401 0.3989 0.0197, -0.0453 0.3753 0.0197, -0.0434 0.3606 0.0197, -0.0337 0.3433 0.0197, -0.0169 0.3328 0.0197, -0.0001 0.3303 0.0197, 0.0169 0.3298 0.0197, 0.1289 0.3177 0.0394, 0.1289 0.4358 0.0394, 0.1289 0.3177 0.0197, 0.1289 0.4358 0.0197, 0.0623 0.4358 0.0394, 0.0623 0.4358 0.0197, 0.0623 0.4237 0.0394, 0.0623 0.4237 0.0197, 0.1183 0.4237 0.0394, 0.1183 0.4237 0.0197, 0.1183 0.3873 0.0394, 0.1183 0.3873 0.0197, 0.0623 0.3873 0.0394, 0.0623 0.3873 0.0197, 0.0623 0.3752 0.0394, 0.0623 0.3752 0.0197, 0.1183 0.3752 0.0394, 0.1183 0.3752 0.0197, 0.1183 0.3298 0.0394, 0.1183 0.3298 0.0197, 0.0623 0.3298 0.0394, 0.0623 0.3298 0.0197, 0.0623 0.3177 0.0394, 0.0623 0.3177 0.0197, 0.1531 0.4141 0.0394, 0.1531 0.4141 0.0197, 0.1568 0.4188 0.0197, 0.1568 0.4188 0.0394, 0.1637 0.4253 0.0197, 0.1637 0.4253 0.0394, 0.1758 0.4328 0.0197, 0.1758 0.4328 0.0394, 0.2046 0.4388 0.0197, 0.2046 0.4388 0.0394, 0.1624 0.407 0.0394, 0.1624 0.407 0.0197, 0.2053 0.4267 0.0394, 0.2053 0.4267 0.0197, 0.2004 0.4265 0.0197, 0.2004 0.4265 0.0394, 0.1927 0.4255 0.0197, 0.1927 0.4255 0.0394, 0.1815 0.4219 0.0197, 0.1815 0.4219 0.0394, 0.2576 0.3766 0.0394, 0.2576 0.3766 0.0197, 0.2574 0.3814 0.0197, 0.2574 0.3814 0.0394, 0.2498 0.4037 0.0197, 0.2498 0.4037 0.0394, 0.2315 0.4202 0.0197, 0.2315 0.4202 0.0394, 0.2046 0.3268 0.0394, 0.2046 0.3268 0.0197, 0.212 0.3272 0.0197, 0.212 0.3272 0.0394, 0.2352 0.3352 0.0197, 0.2352 0.3352 0.0394, 0.2515 0.3523 0.0197, 0.2515 0.3523 0.0394, 0.1624 0.3465 0.0394, 0.1624 0.3465 0.0197, 0.1812 0.3318 0.0197, 0.1812 0.3318 0.0394, 0.1531 0.3394 0.0394, 0.1531 0.3394 0.0197, 0.2045 0.3147 0.0394, 0.2045 0.3147 0.0197, 0.1986 0.3149 0.0197, 0.1986 0.3149 0.0394, 0.1896 0.3162 0.0197, 0.1892 0.3162 0.0394, 0.1892 0.3162 0.0197, 0.1758 0.3208 0.0197, 0.1758 0.3208 0.0394, 0.2129 0.3162 0.0197, 0.2312 0.3195 0.0394, 0.2312 0.3195 0.0197, 0.2427 0.3257 0.0394, 0.2427 0.3257 0.0197, 0.2495 0.3313 0.0394, 0.2495 0.3313 0.0197, 0.2532 0.3353 0.0394, 0.2532 0.3353 0.0197, 0.2682 0.3774 0.0394, 0.2682 0.3774 0.0197, 0.2646 0.355 0.0197, 0.2646 0.355 0.0394, 0.2099 0.4386 0.0197, 0.2099 0.4386 0.0394, 0.2404 0.4289 0.0197, 0.2404 0.4289 0.0394, 0.2606 0.4076 0.0197, 0.2606 0.4076 0.0394, 0.3378 0.3177 0.0394, 0.3378 0.4358 0.0394, 0.3378 0.3177 0.0197, 0.3378 0.4358 0.0197, 0.3272 0.4358 0.0394, 0.3272 0.4358 0.0197, 0.3272 0.3298 0.0394, 0.3272 0.3298 0.0197, 0.2818 0.3298 0.0394, 0.2818 0.3298 0.0197, 0.2818 0.3177 0.0394, 0.2818 0.3177 0.0197
            ]
        }
        coordIndex [
            0,1,2,-1,2,1,3,-1,1,4,3,-1,3,4,5,-1,4,6,5,-1,5,6,7,-1,6,8,7,-1,7,8,9,-1,8,10,9,-1,9,10,11,-1,10,12,11,-1,11,12,13,-1,12,14,13,-1,13,14,15,-1,14,0,15,-1,15,0,2,-1,16,4,1,-1,0,17,1,-1,1,17,18,-1,1,18,16,-1,14,12,10,-1,6,4,8,-1,8,4,16,-1,8,16,10,-1,10,16,17,-1,10,17,14,-1,14,17,0,-1,16,18,19,-1,19,18,20,-1,17,16,21,-1,21,16,19,-1,18,17,20,-1,20,17,21,-1,22,23,24,-1,24,23,25,-1,23,26,25,-1,25,26,27,-1,26,28,27,-1,27,28,29,-1,30,31,32,-1,30,32,33,-1,33,32,29,-1,33,29,28,-1,34,35,36,-1,34,36,37,-1,37,36,38,-1,37,38,39,-1,39,38,31,-1,39,31,30,-1,22,24,40,-1,22,40,41,-1,41,40,42,-1,41,42,43,-1,43,42,44,-1,43,44,45,-1,45,44,35,-1,45,35,34,-1,46,47,43,-1,43,47,48,-1,43,48,41,-1,41,48,49,-1,41,49,22,-1,22,49,50,-1,22,50,23,-1,23,50,51,-1,23,51,26,-1,26,51,52,-1,26,52,28,-1,28,52,53,-1,28,53,33,-1,33,53,54,-1,33,54,30,-1,30,54,55,-1,30,55,39,-1,39,55,56,-1,39,56,37,-1,37,56,57,-1,37,57,34,-1,34,57,58,-1,34,58,45,-1,45,58,46,-1,45,46,43,-1,52,51,59,-1,59,51,60,-1,53,52,61,-1,61,52,59,-1,53,61,62,-1,53,62,54,-1,54,62,63,-1,54,63,55,-1,55,63,64,-1,55,64,56,-1,56,64,65,-1,56,65,57,-1,57,65,66,-1,57,66,58,-1,58,66,67,-1,58,67,46,-1,46,67,68,-1,46,68,47,-1,47,68,69,-1,47,69,48,-1,48,69,70,-1,48,70,49,-1,49,70,71,-1,49,71,50,-1,51,50,60,-1,60,50,71,-1,72,73,74,-1,74,73,75,-1,73,76,75,-1,75,76,77,-1,76,78,77,-1,77,78,79,-1,78,80,79,-1,79,80,81,-1,80,82,81,-1,81,82,83,-1,82,84,83,-1,83,84,85,-1,84,86,85,-1,85,86,87,-1,86,88,87,-1,87,88,89,-1,88,90,89,-1,89,90,91,-1,90,92,91,-1,91,92,93,-1,92,94,93,-1,93,94,95,-1,94,72,95,-1,95,72,74,-1,72,94,92,-1,92,90,72,-1,72,90,88,-1,72,88,73,-1,78,76,80,-1,80,76,73,-1,80,73,82,-1,82,73,88,-1,82,88,84,-1,84,88,86,-1,96,97,98,-1,96,98,99,-1,99,98,100,-1,99,100,101,-1,101,100,102,-1,101,102,103,-1,103,102,104,-1,103,104,105,-1,96,106,97,-1,97,106,107,-1,108,109,110,-1,108,110,111,-1,111,110,112,-1,111,112,113,-1,113,112,114,-1,113,114,115,-1,115,114,107,-1,115,107,106,-1,116,117,118,-1,116,118,119,-1,119,118,120,-1,119,120,121,-1,121,120,122,-1,121,122,123,-1,123,122,109,-1,123,109,108,-1,124,125,126,-1,124,126,127,-1,127,126,128,-1,127,128,129,-1,129,128,130,-1,129,130,131,-1,131,130,117,-1,131,117,116,-1,132,133,134,-1,132,134,135,-1,135,134,125,-1,135,125,124,-1,132,136,133,-1,133,136,137,-1,138,139,140,-1,138,140,141,-1,141,140,142,-1,141,142,143,-1,142,144,143,-1,143,144,145,-1,143,145,146,-1,146,145,137,-1,146,137,136,-1,139,138,147,-1,147,138,148,-1,147,148,149,-1,149,148,150,-1,149,150,151,-1,151,150,152,-1,151,152,153,-1,153,152,154,-1,153,154,155,-1,156,157,158,-1,156,158,159,-1,159,158,155,-1,159,155,154,-1,105,104,160,-1,105,160,161,-1,161,160,162,-1,161,162,163,-1,163,162,164,-1,163,164,165,-1,165,164,157,-1,165,157,156,-1,136,132,146,-1,146,132,135,-1,156,159,131,-1,131,159,129,-1,129,159,154,-1,129,154,152,-1,106,96,99,-1,106,99,115,-1,115,99,101,-1,115,101,103,-1,152,150,129,-1,129,150,148,-1,129,148,127,-1,127,148,138,-1,127,138,124,-1,124,138,141,-1,124,141,135,-1,135,141,143,-1,135,143,146,-1,131,116,156,-1,156,116,119,-1,156,119,165,-1,165,119,121,-1,165,121,163,-1,163,121,123,-1,163,123,161,-1,161,123,108,-1,161,108,105,-1,105,108,111,-1,105,111,103,-1,103,111,113,-1,103,113,115,-1,166,167,168,-1,168,167,169,-1,167,170,169,-1,169,170,171,-1,170,172,171,-1,171,172,173,-1,172,174,173,-1,173,174,175,-1,174,176,175,-1,175,176,177,-1,176,166,177,-1,177,166,168,-1,170,167,172,-1,172,167,166,-1,172,166,174,-1,174,166,176,-1,
        ]
    }
}
Shape{
    appearance Appearance {
        material  Material 	{
            diffuseColor 0.19607843137254902 0.19607843137254902 0.19607843137254902
            specularColor 0.09803921568627451 0.09803921568627451 0.09803921568627451
            ambientIntensity 0.1961
            transparency 0.0
            shininess 0.5
        }
    }
    geometry IndexedFaceSet {
        ccw TRUE
        solid FALSE
        coord DEF co Coordinate {
            point [
                -0.1277 0.4128 0.0197, -0.1063 0.3677 0.0197, -0.1485 0.3677 0.0197, 0.0305 0.4237 0.0197, 0.0305 0.3298 0.0197, 0.0221 0.4237 0.0197, 0.0169 0.3298 0.0197, 0.0039 0.4231 0.0197, -0.0001 0.3303 0.0197, -0.0141 0.4204 0.0197, -0.0169 0.3328 0.0197, -0.0337 0.3433 0.0197, -0.0434 0.3606 0.0197, -0.0453 0.3753 0.0197, -0.0401 0.3989 0.0197, -0.0272 0.4141 0.0197
            ]
        }
        coordIndex [
            0,1,2,-1,3,4,5,-1,5,4,6,-1,5,6,7,-1,7,6,8,-1,7,8,9,-1,10,11,8,-1,8,11,12,-1,8,12,13,-1,13,14,8,-1,8,14,15,-1,8,15,9,-1,
        ]
    }
}
Shape{
    appearance Appearance {
        material  Material 	{
            diffuseColor 0.6470588235294118 0.6196078431372549 0.5882352941176471
            specularColor 0.45098039215686275 0.43529411764705883 0.4117647058823529
            ambientIntensity 0.6242
            transparency 0.0
            shininess 0.5
        }
    }
    geometry IndexedFaceSet {
        ccw TRUE
        solid FALSE
        coord DEF co Coordinate {
            point [
                0.4331 0.1575 0.3474, 0.6722 0.1575 0.3474, 0.4331 -0.1575 0.3474, 0.6722 -0.1575 0.3474, 0.6722 0.1575 0.5443, 0.4331 0.1575 0.5443, 0.6722 -0.1575 0.5443, 0.4331 -0.1575 0.5443
            ]
        }
        coordIndex [
            0,1,2,-1,2,1,3,-1,4,5,6,-1,6,5,7,-1,1,4,3,-1,3,4,6,-1,5,4,0,-1,0,4,1,-1,6,7,3,-1,3,7,2,-1,
        ]
    }
}