ISO-10303-21;
HEADER;
FILE_DESCRIPTION(('KiCad electronic assembly'),'2;1');
FILE_NAME('octave-flex.step','2026-05-31T11:58:26',('Pcbnew'),('Kicad'),
  'Open CASCADE STEP processor 7.9','KiCad to STEP converter','Unknown'
  );
FILE_SCHEMA(('AUTOMOTIVE_DESIGN { 1 0 10303 214 1 1 1 1 }'));
ENDSEC;
DATA;
#1 = APPLICATION_PROTOCOL_DEFINITION('international standard',
  'automotive_design',2000,#2);
#2 = APPLICATION_CONTEXT(
  'core data for automotive mechanical design processes');
#3 = SHAPE_DEFINITION_REPRESENTATION(#4,#10);
#4 = PRODUCT_DEFINITION_SHAPE('','',#5);
#5 = PRODUCT_DEFINITION('design','',#6,#9);
#6 = PRODUCT_DEFINITION_FORMATION('','',#7);
#7 = PRODUCT('octave-flex 1','octave-flex 1','',(#8));
#8 = PRODUCT_CONTEXT('',#2,'mechanical');
#9 = PRODUCT_DEFINITION_CONTEXT('part definition',#2,'design');
#10 = SHAPE_REPRESENTATION('',(#11,#15,#19,#23,#27,#31,#35,#39,#43,#47,
    #51,#55,#59,#63,#67,#71,#75,#79,#83,#87,#91,#95,#99,#103,#107,#111,
    #115,#119,#123,#127,#131,#135,#139,#143,#147,#151,#155,#159,#163,
    #167,#171,#175,#179,#183,#187,#191,#195,#199,#203,#207,#211,#215,
    #219,#223,#227,#231,#235,#239,#243,#247,#251,#255),#259);
#11 = AXIS2_PLACEMENT_3D('',#12,#13,#14);
#12 = CARTESIAN_POINT('',(0.,0.,0.));
#13 = DIRECTION('',(0.,0.,1.));
#14 = DIRECTION('',(1.,0.,-0.));
#15 = AXIS2_PLACEMENT_3D('',#16,#17,#18);
#16 = CARTESIAN_POINT('',(757.525,-293.75,1.595));
#17 = DIRECTION('',(0.,0.,1.));
#18 = DIRECTION('',(1.,0.,0.));
#19 = AXIS2_PLACEMENT_3D('',#20,#21,#22);
#20 = CARTESIAN_POINT('',(853.775,-293.75,1.595));
#21 = DIRECTION('',(0.,0.,1.));
#22 = DIRECTION('',(1.,0.,0.));
#23 = AXIS2_PLACEMENT_3D('',#24,#25,#26);
#24 = CARTESIAN_POINT('',(180.25,-293.75,1.595));
#25 = DIRECTION('',(0.,0.,1.));
#26 = DIRECTION('',(1.,0.,0.));
#27 = AXIS2_PLACEMENT_3D('',#28,#29,#30);
#28 = CARTESIAN_POINT('',(139.05,-293.75,1.595));
#29 = DIRECTION('',(0.,0.,1.));
#30 = DIRECTION('',(1.,0.,0.));
#31 = AXIS2_PLACEMENT_3D('',#32,#33,#34);
#32 = CARTESIAN_POINT('',(675.025,-293.75,1.595));
#33 = DIRECTION('',(0.,0.,1.));
#34 = DIRECTION('',(1.,0.,0.));
#35 = AXIS2_PLACEMENT_3D('',#36,#37,#38);
#36 = CARTESIAN_POINT('',(620.025,-293.75,1.595));
#37 = DIRECTION('',(0.,0.,1.));
#38 = DIRECTION('',(1.,0.,0.));
#39 = AXIS2_PLACEMENT_3D('',#40,#41,#42);
#40 = CARTESIAN_POINT('',(207.8,-293.75,1.595));
#41 = DIRECTION('',(0.,0.,1.));
#42 = DIRECTION('',(1.,0.,0.));
#43 = AXIS2_PLACEMENT_3D('',#44,#45,#46);
#44 = CARTESIAN_POINT('',(235.3,-293.75,1.595));
#45 = DIRECTION('',(0.,0.,1.));
#46 = DIRECTION('',(1.,0.,0.));
#47 = AXIS2_PLACEMENT_3D('',#48,#49,#50);
#48 = CARTESIAN_POINT('',(812.525,-293.75,1.595));
#49 = DIRECTION('',(0.,0.,1.));
#50 = DIRECTION('',(1.,0.,0.));
#51 = AXIS2_PLACEMENT_3D('',#52,#53,#54);
#52 = CARTESIAN_POINT('',(551.275,-293.75,1.595));
#53 = DIRECTION('',(0.,0.,1.));
#54 = DIRECTION('',(1.,0.,0.));
#55 = AXIS2_PLACEMENT_3D('',#56,#57,#58);
#56 = CARTESIAN_POINT('',(455.25,-293.65,1.595));
#57 = DIRECTION('',(0.,0.,1.));
#58 = DIRECTION('',(1.,0.,0.));
#59 = AXIS2_PLACEMENT_3D('',#60,#61,#62);
#60 = CARTESIAN_POINT('',(469.,-293.65,1.595));
#61 = DIRECTION('',(0.,0.,1.));
#62 = DIRECTION('',(1.,0.,0.));
#63 = AXIS2_PLACEMENT_3D('',#64,#65,#66);
#64 = CARTESIAN_POINT('',(359.025,-293.75,1.595));
#65 = DIRECTION('',(0.,0.,1.));
#66 = DIRECTION('',(1.,0.,0.));
#67 = AXIS2_PLACEMENT_3D('',#68,#69,#70);
#68 = CARTESIAN_POINT('',(826.275,-293.75,1.595));
#69 = DIRECTION('',(0.,0.,1.));
#70 = DIRECTION('',(1.,0.,0.));
#71 = AXIS2_PLACEMENT_3D('',#72,#73,#74);
#72 = CARTESIAN_POINT('',(194.05,-293.75,1.595));
#73 = DIRECTION('',(0.,0.,1.));
#74 = DIRECTION('',(1.,0.,0.));
#75 = AXIS2_PLACEMENT_3D('',#76,#77,#78);
#76 = CARTESIAN_POINT('',(647.525,-293.75,1.595));
#77 = DIRECTION('',(0.,0.,1.));
#78 = DIRECTION('',(1.,0.,0.));
#79 = AXIS2_PLACEMENT_3D('',#80,#81,#82);
#80 = CARTESIAN_POINT('',(895.025,-293.75,1.595));
#81 = DIRECTION('',(0.,0.,1.));
#82 = DIRECTION('',(1.,0.,0.));
#83 = AXIS2_PLACEMENT_3D('',#84,#85,#86);
#84 = CARTESIAN_POINT('',(441.5,-293.65,1.595));
#85 = DIRECTION('',(0.,0.,1.));
#86 = DIRECTION('',(1.,0.,0.));
#87 = AXIS2_PLACEMENT_3D('',#88,#89,#90);
#88 = CARTESIAN_POINT('',(290.275,-293.75,1.595));
#89 = DIRECTION('',(0.,0.,1.));
#90 = DIRECTION('',(1.,0.,0.));
#91 = AXIS2_PLACEMENT_3D('',#92,#93,#94);
#92 = CARTESIAN_POINT('',(537.75,-293.65,1.595));
#93 = DIRECTION('',(0.,0.,1.));
#94 = DIRECTION('',(1.,0.,0.));
#95 = AXIS2_PLACEMENT_3D('',#96,#97,#98);
#96 = CARTESIAN_POINT('',(785.025,-293.75,1.595));
#97 = DIRECTION('',(0.,0.,1.));
#98 = DIRECTION('',(1.,0.,0.));
#99 = AXIS2_PLACEMENT_3D('',#100,#101,#102);
#100 = CARTESIAN_POINT('',(221.55,-293.75,1.595));
#101 = DIRECTION('',(0.,0.,1.));
#102 = DIRECTION('',(1.,0.,0.));
#103 = AXIS2_PLACEMENT_3D('',#104,#105,#106);
#104 = CARTESIAN_POINT('',(661.275,-293.75,1.595));
#105 = DIRECTION('',(0.,0.,1.));
#106 = DIRECTION('',(1.,0.,0.));
#107 = AXIS2_PLACEMENT_3D('',#108,#109,#110);
#108 = CARTESIAN_POINT('',(427.75,-293.65,1.595));
#109 = DIRECTION('',(0.,0.,1.));
#110 = DIRECTION('',(1.,0.,0.));
#111 = AXIS2_PLACEMENT_3D('',#112,#113,#114);
#112 = CARTESIAN_POINT('',(908.775,-293.75,1.595));
#113 = DIRECTION('',(0.,0.,1.));
#114 = DIRECTION('',(1.,0.,0.));
#115 = AXIS2_PLACEMENT_3D('',#116,#117,#118);
#116 = CARTESIAN_POINT('',(262.8,-293.75,1.595));
#117 = DIRECTION('',(0.,0.,1.));
#118 = DIRECTION('',(1.,0.,0.));
#119 = AXIS2_PLACEMENT_3D('',#120,#121,#122);
#120 = CARTESIAN_POINT('',(524.,-293.65,1.595));
#121 = DIRECTION('',(0.,0.,1.));
#122 = DIRECTION('',(1.,0.,0.));
#123 = AXIS2_PLACEMENT_3D('',#124,#125,#126);
#124 = CARTESIAN_POINT('',(317.775,-293.75,1.595));
#125 = DIRECTION('',(0.,0.,1.));
#126 = DIRECTION('',(1.,0.,0.));
#127 = AXIS2_PLACEMENT_3D('',#128,#129,#130);
#128 = CARTESIAN_POINT('',(345.275,-293.75,1.595));
#129 = DIRECTION('',(0.,0.,1.));
#130 = DIRECTION('',(1.,0.,0.));
#131 = AXIS2_PLACEMENT_3D('',#132,#133,#134);
#132 = CARTESIAN_POINT('',(414.,-293.65,1.595));
#133 = DIRECTION('',(0.,0.,1.));
#134 = DIRECTION('',(1.,0.,0.));
#135 = AXIS2_PLACEMENT_3D('',#136,#137,#138);
#136 = CARTESIAN_POINT('',(730.025,-293.75,1.595));
#137 = DIRECTION('',(0.,0.,1.));
#138 = DIRECTION('',(1.,0.,0.));
#139 = AXIS2_PLACEMENT_3D('',#140,#141,#142);
#140 = CARTESIAN_POINT('',(771.275,-293.75,1.595));
#141 = DIRECTION('',(0.,0.,1.));
#142 = DIRECTION('',(1.,0.,0.));
#143 = AXIS2_PLACEMENT_3D('',#144,#145,#146);
#144 = CARTESIAN_POINT('',(482.75,-293.65,1.595));
#145 = DIRECTION('',(0.,0.,1.));
#146 = DIRECTION('',(1.,0.,0.));
#147 = AXIS2_PLACEMENT_3D('',#148,#149,#150);
#148 = CARTESIAN_POINT('',(386.525,-293.75,1.595));
#149 = DIRECTION('',(0.,0.,1.));
#150 = DIRECTION('',(1.,0.,0.));
#151 = AXIS2_PLACEMENT_3D('',#152,#153,#154);
#152 = CARTESIAN_POINT('',(372.775,-293.75,1.595));
#153 = DIRECTION('',(0.,0.,1.));
#154 = DIRECTION('',(1.,0.,0.));
#155 = AXIS2_PLACEMENT_3D('',#156,#157,#158);
#156 = CARTESIAN_POINT('',(304.025,-293.75,1.595));
#157 = DIRECTION('',(0.,0.,1.));
#158 = DIRECTION('',(1.,0.,0.));
#159 = AXIS2_PLACEMENT_3D('',#160,#161,#162);
#160 = CARTESIAN_POINT('',(166.5,-293.75,1.595));
#161 = DIRECTION('',(0.,0.,1.));
#162 = DIRECTION('',(1.,0.,0.));
#163 = AXIS2_PLACEMENT_3D('',#164,#165,#166);
#164 = CARTESIAN_POINT('',(798.775,-293.75,1.595));
#165 = DIRECTION('',(0.,0.,1.));
#166 = DIRECTION('',(1.,0.,0.));
#167 = AXIS2_PLACEMENT_3D('',#168,#169,#170);
#168 = CARTESIAN_POINT('',(867.525,-293.75,1.595));
#169 = DIRECTION('',(0.,0.,1.));
#170 = DIRECTION('',(1.,0.,0.));
#171 = AXIS2_PLACEMENT_3D('',#172,#173,#174);
#172 = CARTESIAN_POINT('',(716.275,-293.75,1.595));
#173 = DIRECTION('',(0.,0.,1.));
#174 = DIRECTION('',(1.,0.,0.));
#175 = AXIS2_PLACEMENT_3D('',#176,#177,#178);
#176 = CARTESIAN_POINT('',(702.525,-293.75,1.595));
#177 = DIRECTION('',(0.,0.,1.));
#178 = DIRECTION('',(1.,0.,0.));
#179 = AXIS2_PLACEMENT_3D('',#180,#181,#182);
#180 = CARTESIAN_POINT('',(922.525,-293.75,1.595));
#181 = DIRECTION('',(0.,0.,1.));
#182 = DIRECTION('',(1.,0.,0.));
#183 = AXIS2_PLACEMENT_3D('',#184,#185,#186);
#184 = CARTESIAN_POINT('',(881.275,-293.75,1.595));
#185 = DIRECTION('',(0.,0.,1.));
#186 = DIRECTION('',(1.,0.,0.));
#187 = AXIS2_PLACEMENT_3D('',#188,#189,#190);
#188 = CARTESIAN_POINT('',(331.525,-293.75,1.595));
#189 = DIRECTION('',(0.,0.,1.));
#190 = DIRECTION('',(1.,0.,0.));
#191 = AXIS2_PLACEMENT_3D('',#192,#193,#194);
#192 = CARTESIAN_POINT('',(592.525,-293.75,1.595));
#193 = DIRECTION('',(0.,0.,1.));
#194 = DIRECTION('',(1.,0.,0.));
#195 = AXIS2_PLACEMENT_3D('',#196,#197,#198);
#196 = CARTESIAN_POINT('',(111.5,-293.75,1.595));
#197 = DIRECTION('',(0.,0.,1.));
#198 = DIRECTION('',(1.,0.,0.));
#199 = AXIS2_PLACEMENT_3D('',#200,#201,#202);
#200 = CARTESIAN_POINT('',(688.775,-293.75,1.595));
#201 = DIRECTION('',(0.,0.,1.));
#202 = DIRECTION('',(1.,0.,0.));
#203 = AXIS2_PLACEMENT_3D('',#204,#205,#206);
#204 = CARTESIAN_POINT('',(840.025,-293.75,1.595));
#205 = DIRECTION('',(0.,0.,1.));
#206 = DIRECTION('',(1.,0.,0.));
#207 = AXIS2_PLACEMENT_3D('',#208,#209,#210);
#208 = CARTESIAN_POINT('',(633.775,-293.75,1.595));
#209 = DIRECTION('',(0.,0.,1.));
#210 = DIRECTION('',(1.,0.,0.));
#211 = AXIS2_PLACEMENT_3D('',#212,#213,#214);
#212 = CARTESIAN_POINT('',(400.25,-293.65,1.595));
#213 = DIRECTION('',(0.,0.,1.));
#214 = DIRECTION('',(1.,0.,0.));
#215 = AXIS2_PLACEMENT_3D('',#216,#217,#218);
#216 = CARTESIAN_POINT('',(578.775,-293.75,1.595));
#217 = DIRECTION('',(0.,0.,1.));
#218 = DIRECTION('',(1.,0.,0.));
#219 = AXIS2_PLACEMENT_3D('',#220,#221,#222);
#220 = CARTESIAN_POINT('',(249.05,-293.75,1.595));
#221 = DIRECTION('',(0.,0.,1.));
#222 = DIRECTION('',(1.,0.,0.));
#223 = AXIS2_PLACEMENT_3D('',#224,#225,#226);
#224 = CARTESIAN_POINT('',(743.775,-293.75,1.595));
#225 = DIRECTION('',(0.,0.,1.));
#226 = DIRECTION('',(1.,0.,0.));
#227 = AXIS2_PLACEMENT_3D('',#228,#229,#230);
#228 = CARTESIAN_POINT('',(510.25,-293.65,1.595));
#229 = DIRECTION('',(0.,0.,1.));
#230 = DIRECTION('',(1.,0.,0.));
#231 = AXIS2_PLACEMENT_3D('',#232,#233,#234);
#232 = CARTESIAN_POINT('',(152.75,-293.75,1.595));
#233 = DIRECTION('',(0.,0.,1.));
#234 = DIRECTION('',(1.,0.,0.));
#235 = AXIS2_PLACEMENT_3D('',#236,#237,#238);
#236 = CARTESIAN_POINT('',(606.275,-293.75,1.595));
#237 = DIRECTION('',(0.,0.,1.));
#238 = DIRECTION('',(1.,0.,0.));
#239 = AXIS2_PLACEMENT_3D('',#240,#241,#242);
#240 = CARTESIAN_POINT('',(565.025,-293.75,1.595));
#241 = DIRECTION('',(0.,0.,1.));
#242 = DIRECTION('',(1.,0.,0.));
#243 = AXIS2_PLACEMENT_3D('',#244,#245,#246);
#244 = CARTESIAN_POINT('',(276.55,-293.75,1.595));
#245 = DIRECTION('',(0.,0.,1.));
#246 = DIRECTION('',(1.,0.,0.));
#247 = AXIS2_PLACEMENT_3D('',#248,#249,#250);
#248 = CARTESIAN_POINT('',(496.5,-293.65,1.595));
#249 = DIRECTION('',(0.,0.,1.));
#250 = DIRECTION('',(1.,0.,0.));
#251 = AXIS2_PLACEMENT_3D('',#252,#253,#254);
#252 = CARTESIAN_POINT('',(125.25,-293.75,1.595));
#253 = DIRECTION('',(0.,0.,1.));
#254 = DIRECTION('',(1.,0.,0.));
#255 = AXIS2_PLACEMENT_3D('',#256,#257,#258);
#256 = CARTESIAN_POINT('',(0.,0.,0.));
#257 = DIRECTION('',(0.,0.,1.));
#258 = DIRECTION('',(1.,0.,-0.));
#259 = ( GEOMETRIC_REPRESENTATION_CONTEXT(3) 
GLOBAL_UNCERTAINTY_ASSIGNED_CONTEXT((#263)) GLOBAL_UNIT_ASSIGNED_CONTEXT
((#260,#261,#262)) REPRESENTATION_CONTEXT('Context #1',
  '3D Context with UNIT and UNCERTAINTY') );
#260 = ( LENGTH_UNIT() NAMED_UNIT(*) SI_UNIT(.MILLI.,.METRE.) );
#261 = ( NAMED_UNIT(*) PLANE_ANGLE_UNIT() SI_UNIT($,.RADIAN.) );
#262 = ( NAMED_UNIT(*) SI_UNIT($,.STERADIAN.) SOLID_ANGLE_UNIT() );
#263 = UNCERTAINTY_MEASURE_WITH_UNIT(LENGTH_MEASURE(1.E-07),#260,
  'distance_accuracy_value','confusion accuracy');
#264 = PRODUCT_RELATED_PRODUCT_CATEGORY('part',$,(#7));
#265 = SHAPE_DEFINITION_REPRESENTATION(#266,#272);
#266 = PRODUCT_DEFINITION_SHAPE('','',#267);
#267 = PRODUCT_DEFINITION('design','',#268,#271);
#268 = PRODUCT_DEFINITION_FORMATION('','',#269);
#269 = PRODUCT('C_0603_1608Metric','C_0603_1608Metric','',(#270));
#270 = PRODUCT_CONTEXT('',#2,'mechanical');
#271 = PRODUCT_DEFINITION_CONTEXT('part definition',#2,'design');
#272 = ADVANCED_BREP_SHAPE_REPRESENTATION('',(#11,#273),#1127);
#273 = MANIFOLD_SOLID_BREP('',#274);
#274 = CLOSED_SHELL('',(#275,#351,#382,#407,#432,#456,#480,#505,#530,
    #547,#633,#665,#689,#714,#738,#763,#787,#812,#829,#915,#946,#971,
    #996,#1020,#1044,#1069,#1094,#1111));
#275 = ADVANCED_FACE('',(#276),#346,.F.);
#276 = FACE_BOUND('',#277,.F.);
#277 = EDGE_LOOP('',(#278,#288,#297,#305,#314,#322,#331,#339));
#278 = ORIENTED_EDGE('',*,*,#279,.F.);
#279 = EDGE_CURVE('',#280,#282,#284,.T.);
#280 = VERTEX_POINT('',#281);
#281 = CARTESIAN_POINT('',(-0.8,-0.4,3.E-02));
#282 = VERTEX_POINT('',#283);
#283 = CARTESIAN_POINT('',(-0.8,-0.4,0.77));
#284 = LINE('',#285,#286);
#285 = CARTESIAN_POINT('',(-0.8,-0.4,0.));
#286 = VECTOR('',#287,1.);
#287 = DIRECTION('',(0.,0.,1.));
#288 = ORIENTED_EDGE('',*,*,#289,.T.);
#289 = EDGE_CURVE('',#280,#290,#292,.T.);
#290 = VERTEX_POINT('',#291);
#291 = CARTESIAN_POINT('',(-0.8,-0.37,0.));
#292 = CIRCLE('',#293,3.E-02);
#293 = AXIS2_PLACEMENT_3D('',#294,#295,#296);
#294 = CARTESIAN_POINT('',(-0.8,-0.37,3.E-02));
#295 = DIRECTION('',(1.,0.,-0.));
#296 = DIRECTION('',(0.,0.,1.));
#297 = ORIENTED_EDGE('',*,*,#298,.T.);
#298 = EDGE_CURVE('',#290,#299,#301,.T.);
#299 = VERTEX_POINT('',#300);
#300 = CARTESIAN_POINT('',(-0.8,0.37,0.));
#301 = LINE('',#302,#303);
#302 = CARTESIAN_POINT('',(-0.8,-0.4,0.));
#303 = VECTOR('',#304,1.);
#304 = DIRECTION('',(0.,1.,0.));
#305 = ORIENTED_EDGE('',*,*,#306,.F.);
#306 = EDGE_CURVE('',#307,#299,#309,.T.);
#307 = VERTEX_POINT('',#308);
#308 = CARTESIAN_POINT('',(-0.8,0.4,3.E-02));
#309 = CIRCLE('',#310,3.E-02);
#310 = AXIS2_PLACEMENT_3D('',#311,#312,#313);
#311 = CARTESIAN_POINT('',(-0.8,0.37,3.E-02));
#312 = DIRECTION('',(-1.,0.,0.));
#313 = DIRECTION('',(0.,0.,1.));
#314 = ORIENTED_EDGE('',*,*,#315,.T.);
#315 = EDGE_CURVE('',#307,#316,#318,.T.);
#316 = VERTEX_POINT('',#317);
#317 = CARTESIAN_POINT('',(-0.8,0.4,0.77));
#318 = LINE('',#319,#320);
#319 = CARTESIAN_POINT('',(-0.8,0.4,0.));
#320 = VECTOR('',#321,1.);
#321 = DIRECTION('',(0.,0.,1.));
#322 = ORIENTED_EDGE('',*,*,#323,.T.);
#323 = EDGE_CURVE('',#316,#324,#326,.T.);
#324 = VERTEX_POINT('',#325);
#325 = CARTESIAN_POINT('',(-0.8,0.37,0.8));
#326 = CIRCLE('',#327,3.E-02);
#327 = AXIS2_PLACEMENT_3D('',#328,#329,#330);
#328 = CARTESIAN_POINT('',(-0.8,0.37,0.77));
#329 = DIRECTION('',(1.,0.,-0.));
#330 = DIRECTION('',(0.,0.,1.));
#331 = ORIENTED_EDGE('',*,*,#332,.F.);
#332 = EDGE_CURVE('',#333,#324,#335,.T.);
#333 = VERTEX_POINT('',#334);
#334 = CARTESIAN_POINT('',(-0.8,-0.37,0.8));
#335 = LINE('',#336,#337);
#336 = CARTESIAN_POINT('',(-0.8,-0.4,0.8));
#337 = VECTOR('',#338,1.);
#338 = DIRECTION('',(0.,1.,0.));
#339 = ORIENTED_EDGE('',*,*,#340,.F.);
#340 = EDGE_CURVE('',#282,#333,#341,.T.);
#341 = CIRCLE('',#342,3.E-02);
#342 = AXIS2_PLACEMENT_3D('',#343,#344,#345);
#343 = CARTESIAN_POINT('',(-0.8,-0.37,0.77));
#344 = DIRECTION('',(-1.,0.,0.));
#345 = DIRECTION('',(0.,0.,1.));
#346 = PLANE('',#347);
#347 = AXIS2_PLACEMENT_3D('',#348,#349,#350);
#348 = CARTESIAN_POINT('',(-0.8,-0.4,0.));
#349 = DIRECTION('',(1.,0.,0.));
#350 = DIRECTION('',(0.,0.,1.));
#351 = ADVANCED_FACE('',(#352),#377,.F.);
#352 = FACE_BOUND('',#353,.F.);
#353 = EDGE_LOOP('',(#354,#364,#370,#371));
#354 = ORIENTED_EDGE('',*,*,#355,.F.);
#355 = EDGE_CURVE('',#356,#358,#360,.T.);
#356 = VERTEX_POINT('',#357);
#357 = CARTESIAN_POINT('',(-0.5,-0.4,3.E-02));
#358 = VERTEX_POINT('',#359);
#359 = CARTESIAN_POINT('',(-0.5,-0.4,0.77));
#360 = LINE('',#361,#362);
#361 = CARTESIAN_POINT('',(-0.5,-0.4,0.));
#362 = VECTOR('',#363,1.);
#363 = DIRECTION('',(0.,0.,1.));
#364 = ORIENTED_EDGE('',*,*,#365,.F.);
#365 = EDGE_CURVE('',#280,#356,#366,.T.);
#366 = LINE('',#367,#368);
#367 = CARTESIAN_POINT('',(-0.8,-0.4,3.E-02));
#368 = VECTOR('',#369,1.);
#369 = DIRECTION('',(1.,0.,0.));
#370 = ORIENTED_EDGE('',*,*,#279,.T.);
#371 = ORIENTED_EDGE('',*,*,#372,.T.);
#372 = EDGE_CURVE('',#282,#358,#373,.T.);
#373 = LINE('',#374,#375);
#374 = CARTESIAN_POINT('',(-0.8,-0.4,0.77));
#375 = VECTOR('',#376,1.);
#376 = DIRECTION('',(1.,0.,0.));
#377 = PLANE('',#378);
#378 = AXIS2_PLACEMENT_3D('',#379,#380,#381);
#379 = CARTESIAN_POINT('',(-0.8,-0.4,0.));
#380 = DIRECTION('',(0.,1.,0.));
#381 = DIRECTION('',(0.,-0.,1.));
#382 = ADVANCED_FACE('',(#383),#402,.T.);
#383 = FACE_BOUND('',#384,.T.);
#384 = EDGE_LOOP('',(#385,#386,#394,#401));
#385 = ORIENTED_EDGE('',*,*,#289,.T.);
#386 = ORIENTED_EDGE('',*,*,#387,.T.);
#387 = EDGE_CURVE('',#290,#388,#390,.T.);
#388 = VERTEX_POINT('',#389);
#389 = CARTESIAN_POINT('',(-0.5,-0.37,0.));
#390 = LINE('',#391,#392);
#391 = CARTESIAN_POINT('',(-0.8,-0.37,0.));
#392 = VECTOR('',#393,1.);
#393 = DIRECTION('',(1.,0.,0.));
#394 = ORIENTED_EDGE('',*,*,#395,.F.);
#395 = EDGE_CURVE('',#356,#388,#396,.T.);
#396 = CIRCLE('',#397,3.E-02);
#397 = AXIS2_PLACEMENT_3D('',#398,#399,#400);
#398 = CARTESIAN_POINT('',(-0.5,-0.37,3.E-02));
#399 = DIRECTION('',(1.,0.,-0.));
#400 = DIRECTION('',(0.,0.,1.));
#401 = ORIENTED_EDGE('',*,*,#365,.F.);
#402 = CYLINDRICAL_SURFACE('',#403,3.E-02);
#403 = AXIS2_PLACEMENT_3D('',#404,#405,#406);
#404 = CARTESIAN_POINT('',(-0.8,-0.37,3.E-02));
#405 = DIRECTION('',(1.,0.,0.));
#406 = DIRECTION('',(0.,-1.,0.));
#407 = ADVANCED_FACE('',(#408),#427,.T.);
#408 = FACE_BOUND('',#409,.T.);
#409 = EDGE_LOOP('',(#410,#411,#420,#426));
#410 = ORIENTED_EDGE('',*,*,#372,.T.);
#411 = ORIENTED_EDGE('',*,*,#412,.T.);
#412 = EDGE_CURVE('',#358,#413,#415,.T.);
#413 = VERTEX_POINT('',#414);
#414 = CARTESIAN_POINT('',(-0.5,-0.37,0.8));
#415 = CIRCLE('',#416,3.E-02);
#416 = AXIS2_PLACEMENT_3D('',#417,#418,#419);
#417 = CARTESIAN_POINT('',(-0.5,-0.37,0.77));
#418 = DIRECTION('',(-1.,0.,0.));
#419 = DIRECTION('',(0.,0.,1.));
#420 = ORIENTED_EDGE('',*,*,#421,.F.);
#421 = EDGE_CURVE('',#333,#413,#422,.T.);
#422 = LINE('',#423,#424);
#423 = CARTESIAN_POINT('',(-0.8,-0.37,0.8));
#424 = VECTOR('',#425,1.);
#425 = DIRECTION('',(1.,0.,0.));
#426 = ORIENTED_EDGE('',*,*,#340,.F.);
#427 = CYLINDRICAL_SURFACE('',#428,3.E-02);
#428 = AXIS2_PLACEMENT_3D('',#429,#430,#431);
#429 = CARTESIAN_POINT('',(-0.8,-0.37,0.77));
#430 = DIRECTION('',(1.,0.,0.));
#431 = DIRECTION('',(0.,-1.,0.));
#432 = ADVANCED_FACE('',(#433),#451,.F.);
#433 = FACE_BOUND('',#434,.F.);
#434 = EDGE_LOOP('',(#435,#436,#437,#445));
#435 = ORIENTED_EDGE('',*,*,#298,.F.);
#436 = ORIENTED_EDGE('',*,*,#387,.T.);
#437 = ORIENTED_EDGE('',*,*,#438,.T.);
#438 = EDGE_CURVE('',#388,#439,#441,.T.);
#439 = VERTEX_POINT('',#440);
#440 = CARTESIAN_POINT('',(-0.5,0.37,0.));
#441 = LINE('',#442,#443);
#442 = CARTESIAN_POINT('',(-0.5,-0.4,0.));
#443 = VECTOR('',#444,1.);
#444 = DIRECTION('',(0.,1.,0.));
#445 = ORIENTED_EDGE('',*,*,#446,.F.);
#446 = EDGE_CURVE('',#299,#439,#447,.T.);
#447 = LINE('',#448,#449);
#448 = CARTESIAN_POINT('',(-0.8,0.37,0.));
#449 = VECTOR('',#450,1.);
#450 = DIRECTION('',(1.,0.,0.));
#451 = PLANE('',#452);
#452 = AXIS2_PLACEMENT_3D('',#453,#454,#455);
#453 = CARTESIAN_POINT('',(-0.8,-0.4,0.));
#454 = DIRECTION('',(0.,0.,1.));
#455 = DIRECTION('',(1.,0.,-0.));
#456 = ADVANCED_FACE('',(#457),#475,.T.);
#457 = FACE_BOUND('',#458,.T.);
#458 = EDGE_LOOP('',(#459,#460,#461,#469));
#459 = ORIENTED_EDGE('',*,*,#332,.F.);
#460 = ORIENTED_EDGE('',*,*,#421,.T.);
#461 = ORIENTED_EDGE('',*,*,#462,.T.);
#462 = EDGE_CURVE('',#413,#463,#465,.T.);
#463 = VERTEX_POINT('',#464);
#464 = CARTESIAN_POINT('',(-0.5,0.37,0.8));
#465 = LINE('',#466,#467);
#466 = CARTESIAN_POINT('',(-0.5,-0.4,0.8));
#467 = VECTOR('',#468,1.);
#468 = DIRECTION('',(0.,1.,0.));
#469 = ORIENTED_EDGE('',*,*,#470,.F.);
#470 = EDGE_CURVE('',#324,#463,#471,.T.);
#471 = LINE('',#472,#473);
#472 = CARTESIAN_POINT('',(-0.8,0.37,0.8));
#473 = VECTOR('',#474,1.);
#474 = DIRECTION('',(1.,0.,0.));
#475 = PLANE('',#476);
#476 = AXIS2_PLACEMENT_3D('',#477,#478,#479);
#477 = CARTESIAN_POINT('',(-0.8,-0.4,0.8));
#478 = DIRECTION('',(0.,0.,1.));
#479 = DIRECTION('',(1.,0.,-0.));
#480 = ADVANCED_FACE('',(#481),#500,.T.);
#481 = FACE_BOUND('',#482,.T.);
#482 = EDGE_LOOP('',(#483,#491,#498,#499));
#483 = ORIENTED_EDGE('',*,*,#484,.T.);
#484 = EDGE_CURVE('',#307,#485,#487,.T.);
#485 = VERTEX_POINT('',#486);
#486 = CARTESIAN_POINT('',(-0.5,0.4,3.E-02));
#487 = LINE('',#488,#489);
#488 = CARTESIAN_POINT('',(-0.8,0.4,3.E-02));
#489 = VECTOR('',#490,1.);
#490 = DIRECTION('',(1.,0.,0.));
#491 = ORIENTED_EDGE('',*,*,#492,.T.);
#492 = EDGE_CURVE('',#485,#439,#493,.T.);
#493 = CIRCLE('',#494,3.E-02);
#494 = AXIS2_PLACEMENT_3D('',#495,#496,#497);
#495 = CARTESIAN_POINT('',(-0.5,0.37,3.E-02));
#496 = DIRECTION('',(-1.,0.,0.));
#497 = DIRECTION('',(0.,0.,1.));
#498 = ORIENTED_EDGE('',*,*,#446,.F.);
#499 = ORIENTED_EDGE('',*,*,#306,.F.);
#500 = CYLINDRICAL_SURFACE('',#501,3.E-02);
#501 = AXIS2_PLACEMENT_3D('',#502,#503,#504);
#502 = CARTESIAN_POINT('',(-0.8,0.37,3.E-02));
#503 = DIRECTION('',(1.,0.,0.));
#504 = DIRECTION('',(-0.,1.,0.));
#505 = ADVANCED_FACE('',(#506),#525,.T.);
#506 = FACE_BOUND('',#507,.T.);
#507 = EDGE_LOOP('',(#508,#509,#510,#519));
#508 = ORIENTED_EDGE('',*,*,#323,.T.);
#509 = ORIENTED_EDGE('',*,*,#470,.T.);
#510 = ORIENTED_EDGE('',*,*,#511,.F.);
#511 = EDGE_CURVE('',#512,#463,#514,.T.);
#512 = VERTEX_POINT('',#513);
#513 = CARTESIAN_POINT('',(-0.5,0.4,0.77));
#514 = CIRCLE('',#515,3.E-02);
#515 = AXIS2_PLACEMENT_3D('',#516,#517,#518);
#516 = CARTESIAN_POINT('',(-0.5,0.37,0.77));
#517 = DIRECTION('',(1.,0.,-0.));
#518 = DIRECTION('',(0.,0.,1.));
#519 = ORIENTED_EDGE('',*,*,#520,.F.);
#520 = EDGE_CURVE('',#316,#512,#521,.T.);
#521 = LINE('',#522,#523);
#522 = CARTESIAN_POINT('',(-0.8,0.4,0.77));
#523 = VECTOR('',#524,1.);
#524 = DIRECTION('',(1.,0.,0.));
#525 = CYLINDRICAL_SURFACE('',#526,3.E-02);
#526 = AXIS2_PLACEMENT_3D('',#527,#528,#529);
#527 = CARTESIAN_POINT('',(-0.8,0.37,0.77));
#528 = DIRECTION('',(1.,0.,0.));
#529 = DIRECTION('',(-0.,1.,0.));
#530 = ADVANCED_FACE('',(#531),#542,.T.);
#531 = FACE_BOUND('',#532,.T.);
#532 = EDGE_LOOP('',(#533,#539,#540,#541));
#533 = ORIENTED_EDGE('',*,*,#534,.F.);
#534 = EDGE_CURVE('',#485,#512,#535,.T.);
#535 = LINE('',#536,#537);
#536 = CARTESIAN_POINT('',(-0.5,0.4,0.));
#537 = VECTOR('',#538,1.);
#538 = DIRECTION('',(0.,0.,1.));
#539 = ORIENTED_EDGE('',*,*,#484,.F.);
#540 = ORIENTED_EDGE('',*,*,#315,.T.);
#541 = ORIENTED_EDGE('',*,*,#520,.T.);
#542 = PLANE('',#543);
#543 = AXIS2_PLACEMENT_3D('',#544,#545,#546);
#544 = CARTESIAN_POINT('',(-0.8,0.4,0.));
#545 = DIRECTION('',(0.,1.,0.));
#546 = DIRECTION('',(0.,-0.,1.));
#547 = ADVANCED_FACE('',(#548,#558),#628,.T.);
#548 = FACE_BOUND('',#549,.T.);
#549 = EDGE_LOOP('',(#550,#551,#552,#553,#554,#555,#556,#557));
#550 = ORIENTED_EDGE('',*,*,#355,.F.);
#551 = ORIENTED_EDGE('',*,*,#395,.T.);
#552 = ORIENTED_EDGE('',*,*,#438,.T.);
#553 = ORIENTED_EDGE('',*,*,#492,.F.);
#554 = ORIENTED_EDGE('',*,*,#534,.T.);
#555 = ORIENTED_EDGE('',*,*,#511,.T.);
#556 = ORIENTED_EDGE('',*,*,#462,.F.);
#557 = ORIENTED_EDGE('',*,*,#412,.F.);
#558 = FACE_BOUND('',#559,.T.);
#559 = EDGE_LOOP('',(#560,#571,#579,#588,#596,#605,#613,#622));
#560 = ORIENTED_EDGE('',*,*,#561,.F.);
#561 = EDGE_CURVE('',#562,#564,#566,.T.);
#562 = VERTEX_POINT('',#563);
#563 = CARTESIAN_POINT('',(-0.5,-0.37,6.E-02));
#564 = VERTEX_POINT('',#565);
#565 = CARTESIAN_POINT('',(-0.5,-0.34,3.E-02));
#566 = CIRCLE('',#567,3.E-02);
#567 = AXIS2_PLACEMENT_3D('',#568,#569,#570);
#568 = CARTESIAN_POINT('',(-0.5,-0.34,6.E-02));
#569 = DIRECTION('',(1.,0.,-0.));
#570 = DIRECTION('',(0.,0.,1.));
#571 = ORIENTED_EDGE('',*,*,#572,.T.);
#572 = EDGE_CURVE('',#562,#573,#575,.T.);
#573 = VERTEX_POINT('',#574);
#574 = CARTESIAN_POINT('',(-0.5,-0.37,0.74));
#575 = LINE('',#576,#577);
#576 = CARTESIAN_POINT('',(-0.5,-0.37,3.E-02));
#577 = VECTOR('',#578,1.);
#578 = DIRECTION('',(0.,0.,1.));
#579 = ORIENTED_EDGE('',*,*,#580,.T.);
#580 = EDGE_CURVE('',#573,#581,#583,.T.);
#581 = VERTEX_POINT('',#582);
#582 = CARTESIAN_POINT('',(-0.5,-0.34,0.77));
#583 = CIRCLE('',#584,3.E-02);
#584 = AXIS2_PLACEMENT_3D('',#585,#586,#587);
#585 = CARTESIAN_POINT('',(-0.5,-0.34,0.74));
#586 = DIRECTION('',(-1.,0.,0.));
#587 = DIRECTION('',(0.,0.,1.));
#588 = ORIENTED_EDGE('',*,*,#589,.T.);
#589 = EDGE_CURVE('',#581,#590,#592,.T.);
#590 = VERTEX_POINT('',#591);
#591 = CARTESIAN_POINT('',(-0.5,0.34,0.77));
#592 = LINE('',#593,#594);
#593 = CARTESIAN_POINT('',(-0.5,-0.37,0.77));
#594 = VECTOR('',#595,1.);
#595 = DIRECTION('',(0.,1.,0.));
#596 = ORIENTED_EDGE('',*,*,#597,.F.);
#597 = EDGE_CURVE('',#598,#590,#600,.T.);
#598 = VERTEX_POINT('',#599);
#599 = CARTESIAN_POINT('',(-0.5,0.37,0.74));
#600 = CIRCLE('',#601,3.E-02);
#601 = AXIS2_PLACEMENT_3D('',#602,#603,#604);
#602 = CARTESIAN_POINT('',(-0.5,0.34,0.74));
#603 = DIRECTION('',(1.,0.,-0.));
#604 = DIRECTION('',(0.,0.,1.));
#605 = ORIENTED_EDGE('',*,*,#606,.F.);
#606 = EDGE_CURVE('',#607,#598,#609,.T.);
#607 = VERTEX_POINT('',#608);
#608 = CARTESIAN_POINT('',(-0.5,0.37,6.E-02));
#609 = LINE('',#610,#611);
#610 = CARTESIAN_POINT('',(-0.5,0.37,3.E-02));
#611 = VECTOR('',#612,1.);
#612 = DIRECTION('',(0.,0.,1.));
#613 = ORIENTED_EDGE('',*,*,#614,.T.);
#614 = EDGE_CURVE('',#607,#615,#617,.T.);
#615 = VERTEX_POINT('',#616);
#616 = CARTESIAN_POINT('',(-0.5,0.34,3.E-02));
#617 = CIRCLE('',#618,3.E-02);
#618 = AXIS2_PLACEMENT_3D('',#619,#620,#621);
#619 = CARTESIAN_POINT('',(-0.5,0.34,6.E-02));
#620 = DIRECTION('',(-1.,0.,0.));
#621 = DIRECTION('',(0.,0.,1.));
#622 = ORIENTED_EDGE('',*,*,#623,.F.);
#623 = EDGE_CURVE('',#564,#615,#624,.T.);
#624 = LINE('',#625,#626);
#625 = CARTESIAN_POINT('',(-0.5,-0.37,3.E-02));
#626 = VECTOR('',#627,1.);
#627 = DIRECTION('',(0.,1.,0.));
#628 = PLANE('',#629);
#629 = AXIS2_PLACEMENT_3D('',#630,#631,#632);
#630 = CARTESIAN_POINT('',(-0.5,-0.4,0.));
#631 = DIRECTION('',(1.,0.,0.));
#632 = DIRECTION('',(0.,0.,1.));
#633 = ADVANCED_FACE('',(#634),#660,.T.);
#634 = FACE_BOUND('',#635,.T.);
#635 = EDGE_LOOP('',(#636,#637,#645,#654));
#636 = ORIENTED_EDGE('',*,*,#561,.T.);
#637 = ORIENTED_EDGE('',*,*,#638,.T.);
#638 = EDGE_CURVE('',#564,#639,#641,.T.);
#639 = VERTEX_POINT('',#640);
#640 = CARTESIAN_POINT('',(0.5,-0.34,3.E-02));
#641 = LINE('',#642,#643);
#642 = CARTESIAN_POINT('',(-0.5,-0.34,3.E-02));
#643 = VECTOR('',#644,1.);
#644 = DIRECTION('',(1.,0.,0.));
#645 = ORIENTED_EDGE('',*,*,#646,.F.);
#646 = EDGE_CURVE('',#647,#639,#649,.T.);
#647 = VERTEX_POINT('',#648);
#648 = CARTESIAN_POINT('',(0.5,-0.37,6.E-02));
#649 = CIRCLE('',#650,3.E-02);
#650 = AXIS2_PLACEMENT_3D('',#651,#652,#653);
#651 = CARTESIAN_POINT('',(0.5,-0.34,6.E-02));
#652 = DIRECTION('',(1.,0.,-0.));
#653 = DIRECTION('',(0.,0.,1.));
#654 = ORIENTED_EDGE('',*,*,#655,.F.);
#655 = EDGE_CURVE('',#562,#647,#656,.T.);
#656 = LINE('',#657,#658);
#657 = CARTESIAN_POINT('',(-0.5,-0.37,6.E-02));
#658 = VECTOR('',#659,1.);
#659 = DIRECTION('',(1.,0.,0.));
#660 = CYLINDRICAL_SURFACE('',#661,3.E-02);
#661 = AXIS2_PLACEMENT_3D('',#662,#663,#664);
#662 = CARTESIAN_POINT('',(-0.5,-0.34,6.E-02));
#663 = DIRECTION('',(1.,0.,0.));
#664 = DIRECTION('',(0.,-1.,0.));
#665 = ADVANCED_FACE('',(#666),#684,.F.);
#666 = FACE_BOUND('',#667,.F.);
#667 = EDGE_LOOP('',(#668,#669,#670,#678));
#668 = ORIENTED_EDGE('',*,*,#623,.F.);
#669 = ORIENTED_EDGE('',*,*,#638,.T.);
#670 = ORIENTED_EDGE('',*,*,#671,.T.);
#671 = EDGE_CURVE('',#639,#672,#674,.T.);
#672 = VERTEX_POINT('',#673);
#673 = CARTESIAN_POINT('',(0.5,0.34,3.E-02));
#674 = LINE('',#675,#676);
#675 = CARTESIAN_POINT('',(0.5,-0.37,3.E-02));
#676 = VECTOR('',#677,1.);
#677 = DIRECTION('',(0.,1.,0.));
#678 = ORIENTED_EDGE('',*,*,#679,.F.);
#679 = EDGE_CURVE('',#615,#672,#680,.T.);
#680 = LINE('',#681,#682);
#681 = CARTESIAN_POINT('',(-0.5,0.34,3.E-02));
#682 = VECTOR('',#683,1.);
#683 = DIRECTION('',(1.,0.,0.));
#684 = PLANE('',#685);
#685 = AXIS2_PLACEMENT_3D('',#686,#687,#688);
#686 = CARTESIAN_POINT('',(-0.5,-0.37,3.E-02));
#687 = DIRECTION('',(0.,0.,1.));
#688 = DIRECTION('',(1.,0.,-0.));
#689 = ADVANCED_FACE('',(#690),#709,.T.);
#690 = FACE_BOUND('',#691,.T.);
#691 = EDGE_LOOP('',(#692,#700,#707,#708));
#692 = ORIENTED_EDGE('',*,*,#693,.T.);
#693 = EDGE_CURVE('',#607,#694,#696,.T.);
#694 = VERTEX_POINT('',#695);
#695 = CARTESIAN_POINT('',(0.5,0.37,6.E-02));
#696 = LINE('',#697,#698);
#697 = CARTESIAN_POINT('',(-0.5,0.37,6.E-02));
#698 = VECTOR('',#699,1.);
#699 = DIRECTION('',(1.,0.,0.));
#700 = ORIENTED_EDGE('',*,*,#701,.T.);
#701 = EDGE_CURVE('',#694,#672,#702,.T.);
#702 = CIRCLE('',#703,3.E-02);
#703 = AXIS2_PLACEMENT_3D('',#704,#705,#706);
#704 = CARTESIAN_POINT('',(0.5,0.34,6.E-02));
#705 = DIRECTION('',(-1.,0.,0.));
#706 = DIRECTION('',(0.,0.,1.));
#707 = ORIENTED_EDGE('',*,*,#679,.F.);
#708 = ORIENTED_EDGE('',*,*,#614,.F.);
#709 = CYLINDRICAL_SURFACE('',#710,3.E-02);
#710 = AXIS2_PLACEMENT_3D('',#711,#712,#713);
#711 = CARTESIAN_POINT('',(-0.5,0.34,6.E-02));
#712 = DIRECTION('',(1.,0.,0.));
#713 = DIRECTION('',(-0.,1.,0.));
#714 = ADVANCED_FACE('',(#715),#733,.T.);
#715 = FACE_BOUND('',#716,.T.);
#716 = EDGE_LOOP('',(#717,#725,#726,#727));
#717 = ORIENTED_EDGE('',*,*,#718,.F.);
#718 = EDGE_CURVE('',#694,#719,#721,.T.);
#719 = VERTEX_POINT('',#720);
#720 = CARTESIAN_POINT('',(0.5,0.37,0.74));
#721 = LINE('',#722,#723);
#722 = CARTESIAN_POINT('',(0.5,0.37,3.E-02));
#723 = VECTOR('',#724,1.);
#724 = DIRECTION('',(0.,0.,1.));
#725 = ORIENTED_EDGE('',*,*,#693,.F.);
#726 = ORIENTED_EDGE('',*,*,#606,.T.);
#727 = ORIENTED_EDGE('',*,*,#728,.T.);
#728 = EDGE_CURVE('',#598,#719,#729,.T.);
#729 = LINE('',#730,#731);
#730 = CARTESIAN_POINT('',(-0.5,0.37,0.74));
#731 = VECTOR('',#732,1.);
#732 = DIRECTION('',(1.,0.,0.));
#733 = PLANE('',#734);
#734 = AXIS2_PLACEMENT_3D('',#735,#736,#737);
#735 = CARTESIAN_POINT('',(-0.5,0.37,3.E-02));
#736 = DIRECTION('',(0.,1.,0.));
#737 = DIRECTION('',(0.,-0.,1.));
#738 = ADVANCED_FACE('',(#739),#758,.T.);
#739 = FACE_BOUND('',#740,.T.);
#740 = EDGE_LOOP('',(#741,#742,#750,#757));
#741 = ORIENTED_EDGE('',*,*,#597,.T.);
#742 = ORIENTED_EDGE('',*,*,#743,.T.);
#743 = EDGE_CURVE('',#590,#744,#746,.T.);
#744 = VERTEX_POINT('',#745);
#745 = CARTESIAN_POINT('',(0.5,0.34,0.77));
#746 = LINE('',#747,#748);
#747 = CARTESIAN_POINT('',(-0.5,0.34,0.77));
#748 = VECTOR('',#749,1.);
#749 = DIRECTION('',(1.,0.,0.));
#750 = ORIENTED_EDGE('',*,*,#751,.F.);
#751 = EDGE_CURVE('',#719,#744,#752,.T.);
#752 = CIRCLE('',#753,3.E-02);
#753 = AXIS2_PLACEMENT_3D('',#754,#755,#756);
#754 = CARTESIAN_POINT('',(0.5,0.34,0.74));
#755 = DIRECTION('',(1.,0.,-0.));
#756 = DIRECTION('',(0.,0.,1.));
#757 = ORIENTED_EDGE('',*,*,#728,.F.);
#758 = CYLINDRICAL_SURFACE('',#759,3.E-02);
#759 = AXIS2_PLACEMENT_3D('',#760,#761,#762);
#760 = CARTESIAN_POINT('',(-0.5,0.34,0.74));
#761 = DIRECTION('',(1.,0.,0.));
#762 = DIRECTION('',(-0.,1.,0.));
#763 = ADVANCED_FACE('',(#764),#782,.T.);
#764 = FACE_BOUND('',#765,.T.);
#765 = EDGE_LOOP('',(#766,#767,#775,#781));
#766 = ORIENTED_EDGE('',*,*,#589,.F.);
#767 = ORIENTED_EDGE('',*,*,#768,.T.);
#768 = EDGE_CURVE('',#581,#769,#771,.T.);
#769 = VERTEX_POINT('',#770);
#770 = CARTESIAN_POINT('',(0.5,-0.34,0.77));
#771 = LINE('',#772,#773);
#772 = CARTESIAN_POINT('',(-0.5,-0.34,0.77));
#773 = VECTOR('',#774,1.);
#774 = DIRECTION('',(1.,0.,0.));
#775 = ORIENTED_EDGE('',*,*,#776,.T.);
#776 = EDGE_CURVE('',#769,#744,#777,.T.);
#777 = LINE('',#778,#779);
#778 = CARTESIAN_POINT('',(0.5,-0.37,0.77));
#779 = VECTOR('',#780,1.);
#780 = DIRECTION('',(0.,1.,0.));
#781 = ORIENTED_EDGE('',*,*,#743,.F.);
#782 = PLANE('',#783);
#783 = AXIS2_PLACEMENT_3D('',#784,#785,#786);
#784 = CARTESIAN_POINT('',(-0.5,-0.37,0.77));
#785 = DIRECTION('',(0.,0.,1.));
#786 = DIRECTION('',(1.,0.,-0.));
#787 = ADVANCED_FACE('',(#788),#807,.T.);
#788 = FACE_BOUND('',#789,.T.);
#789 = EDGE_LOOP('',(#790,#798,#805,#806));
#790 = ORIENTED_EDGE('',*,*,#791,.T.);
#791 = EDGE_CURVE('',#573,#792,#794,.T.);
#792 = VERTEX_POINT('',#793);
#793 = CARTESIAN_POINT('',(0.5,-0.37,0.74));
#794 = LINE('',#795,#796);
#795 = CARTESIAN_POINT('',(-0.5,-0.37,0.74));
#796 = VECTOR('',#797,1.);
#797 = DIRECTION('',(1.,0.,0.));
#798 = ORIENTED_EDGE('',*,*,#799,.T.);
#799 = EDGE_CURVE('',#792,#769,#800,.T.);
#800 = CIRCLE('',#801,3.E-02);
#801 = AXIS2_PLACEMENT_3D('',#802,#803,#804);
#802 = CARTESIAN_POINT('',(0.5,-0.34,0.74));
#803 = DIRECTION('',(-1.,0.,0.));
#804 = DIRECTION('',(0.,0.,1.));
#805 = ORIENTED_EDGE('',*,*,#768,.F.);
#806 = ORIENTED_EDGE('',*,*,#580,.F.);
#807 = CYLINDRICAL_SURFACE('',#808,3.E-02);
#808 = AXIS2_PLACEMENT_3D('',#809,#810,#811);
#809 = CARTESIAN_POINT('',(-0.5,-0.34,0.74));
#810 = DIRECTION('',(1.,0.,0.));
#811 = DIRECTION('',(0.,-1.,0.));
#812 = ADVANCED_FACE('',(#813),#824,.F.);
#813 = FACE_BOUND('',#814,.F.);
#814 = EDGE_LOOP('',(#815,#821,#822,#823));
#815 = ORIENTED_EDGE('',*,*,#816,.F.);
#816 = EDGE_CURVE('',#647,#792,#817,.T.);
#817 = LINE('',#818,#819);
#818 = CARTESIAN_POINT('',(0.5,-0.37,3.E-02));
#819 = VECTOR('',#820,1.);
#820 = DIRECTION('',(0.,0.,1.));
#821 = ORIENTED_EDGE('',*,*,#655,.F.);
#822 = ORIENTED_EDGE('',*,*,#572,.T.);
#823 = ORIENTED_EDGE('',*,*,#791,.T.);
#824 = PLANE('',#825);
#825 = AXIS2_PLACEMENT_3D('',#826,#827,#828);
#826 = CARTESIAN_POINT('',(-0.5,-0.37,3.E-02));
#827 = DIRECTION('',(0.,1.,0.));
#828 = DIRECTION('',(0.,-0.,1.));
#829 = ADVANCED_FACE('',(#830,#900),#910,.F.);
#830 = FACE_BOUND('',#831,.F.);
#831 = EDGE_LOOP('',(#832,#842,#851,#859,#868,#876,#885,#893));
#832 = ORIENTED_EDGE('',*,*,#833,.F.);
#833 = EDGE_CURVE('',#834,#836,#838,.T.);
#834 = VERTEX_POINT('',#835);
#835 = CARTESIAN_POINT('',(0.5,-0.4,3.E-02));
#836 = VERTEX_POINT('',#837);
#837 = CARTESIAN_POINT('',(0.5,-0.4,0.77));
#838 = LINE('',#839,#840);
#839 = CARTESIAN_POINT('',(0.5,-0.4,0.));
#840 = VECTOR('',#841,1.);
#841 = DIRECTION('',(0.,0.,1.));
#842 = ORIENTED_EDGE('',*,*,#843,.T.);
#843 = EDGE_CURVE('',#834,#844,#846,.T.);
#844 = VERTEX_POINT('',#845);
#845 = CARTESIAN_POINT('',(0.5,-0.37,0.));
#846 = CIRCLE('',#847,3.E-02);
#847 = AXIS2_PLACEMENT_3D('',#848,#849,#850);
#848 = CARTESIAN_POINT('',(0.5,-0.37,3.E-02));
#849 = DIRECTION('',(1.,0.,-0.));
#850 = DIRECTION('',(0.,0.,1.));
#851 = ORIENTED_EDGE('',*,*,#852,.T.);
#852 = EDGE_CURVE('',#844,#853,#855,.T.);
#853 = VERTEX_POINT('',#854);
#854 = CARTESIAN_POINT('',(0.5,0.37,0.));
#855 = LINE('',#856,#857);
#856 = CARTESIAN_POINT('',(0.5,-0.4,0.));
#857 = VECTOR('',#858,1.);
#858 = DIRECTION('',(0.,1.,0.));
#859 = ORIENTED_EDGE('',*,*,#860,.F.);
#860 = EDGE_CURVE('',#861,#853,#863,.T.);
#861 = VERTEX_POINT('',#862);
#862 = CARTESIAN_POINT('',(0.5,0.4,3.E-02));
#863 = CIRCLE('',#864,3.E-02);
#864 = AXIS2_PLACEMENT_3D('',#865,#866,#867);
#865 = CARTESIAN_POINT('',(0.5,0.37,3.E-02));
#866 = DIRECTION('',(-1.,0.,0.));
#867 = DIRECTION('',(0.,0.,1.));
#868 = ORIENTED_EDGE('',*,*,#869,.T.);
#869 = EDGE_CURVE('',#861,#870,#872,.T.);
#870 = VERTEX_POINT('',#871);
#871 = CARTESIAN_POINT('',(0.5,0.4,0.77));
#872 = LINE('',#873,#874);
#873 = CARTESIAN_POINT('',(0.5,0.4,0.));
#874 = VECTOR('',#875,1.);
#875 = DIRECTION('',(0.,0.,1.));
#876 = ORIENTED_EDGE('',*,*,#877,.T.);
#877 = EDGE_CURVE('',#870,#878,#880,.T.);
#878 = VERTEX_POINT('',#879);
#879 = CARTESIAN_POINT('',(0.5,0.37,0.8));
#880 = CIRCLE('',#881,3.E-02);
#881 = AXIS2_PLACEMENT_3D('',#882,#883,#884);
#882 = CARTESIAN_POINT('',(0.5,0.37,0.77));
#883 = DIRECTION('',(1.,0.,-0.));
#884 = DIRECTION('',(0.,0.,1.));
#885 = ORIENTED_EDGE('',*,*,#886,.F.);
#886 = EDGE_CURVE('',#887,#878,#889,.T.);
#887 = VERTEX_POINT('',#888);
#888 = CARTESIAN_POINT('',(0.5,-0.37,0.8));
#889 = LINE('',#890,#891);
#890 = CARTESIAN_POINT('',(0.5,-0.4,0.8));
#891 = VECTOR('',#892,1.);
#892 = DIRECTION('',(0.,1.,0.));
#893 = ORIENTED_EDGE('',*,*,#894,.F.);
#894 = EDGE_CURVE('',#836,#887,#895,.T.);
#895 = CIRCLE('',#896,3.E-02);
#896 = AXIS2_PLACEMENT_3D('',#897,#898,#899);
#897 = CARTESIAN_POINT('',(0.5,-0.37,0.77));
#898 = DIRECTION('',(-1.,0.,0.));
#899 = DIRECTION('',(0.,0.,1.));
#900 = FACE_BOUND('',#901,.F.);
#901 = EDGE_LOOP('',(#902,#903,#904,#905,#906,#907,#908,#909));
#902 = ORIENTED_EDGE('',*,*,#646,.F.);
#903 = ORIENTED_EDGE('',*,*,#816,.T.);
#904 = ORIENTED_EDGE('',*,*,#799,.T.);
#905 = ORIENTED_EDGE('',*,*,#776,.T.);
#906 = ORIENTED_EDGE('',*,*,#751,.F.);
#907 = ORIENTED_EDGE('',*,*,#718,.F.);
#908 = ORIENTED_EDGE('',*,*,#701,.T.);
#909 = ORIENTED_EDGE('',*,*,#671,.F.);
#910 = PLANE('',#911);
#911 = AXIS2_PLACEMENT_3D('',#912,#913,#914);
#912 = CARTESIAN_POINT('',(0.5,-0.4,0.));
#913 = DIRECTION('',(1.,0.,0.));
#914 = DIRECTION('',(0.,0.,1.));
#915 = ADVANCED_FACE('',(#916),#941,.F.);
#916 = FACE_BOUND('',#917,.F.);
#917 = EDGE_LOOP('',(#918,#928,#934,#935));
#918 = ORIENTED_EDGE('',*,*,#919,.F.);
#919 = EDGE_CURVE('',#920,#922,#924,.T.);
#920 = VERTEX_POINT('',#921);
#921 = CARTESIAN_POINT('',(0.8,-0.4,3.E-02));
#922 = VERTEX_POINT('',#923);
#923 = CARTESIAN_POINT('',(0.8,-0.4,0.77));
#924 = LINE('',#925,#926);
#925 = CARTESIAN_POINT('',(0.8,-0.4,0.));
#926 = VECTOR('',#927,1.);
#927 = DIRECTION('',(0.,0.,1.));
#928 = ORIENTED_EDGE('',*,*,#929,.F.);
#929 = EDGE_CURVE('',#834,#920,#930,.T.);
#930 = LINE('',#931,#932);
#931 = CARTESIAN_POINT('',(0.5,-0.4,3.E-02));
#932 = VECTOR('',#933,1.);
#933 = DIRECTION('',(1.,0.,0.));
#934 = ORIENTED_EDGE('',*,*,#833,.T.);
#935 = ORIENTED_EDGE('',*,*,#936,.T.);
#936 = EDGE_CURVE('',#836,#922,#937,.T.);
#937 = LINE('',#938,#939);
#938 = CARTESIAN_POINT('',(0.5,-0.4,0.77));
#939 = VECTOR('',#940,1.);
#940 = DIRECTION('',(1.,0.,0.));
#941 = PLANE('',#942);
#942 = AXIS2_PLACEMENT_3D('',#943,#944,#945);
#943 = CARTESIAN_POINT('',(0.5,-0.4,0.));
#944 = DIRECTION('',(0.,1.,0.));
#945 = DIRECTION('',(0.,-0.,1.));
#946 = ADVANCED_FACE('',(#947),#966,.T.);
#947 = FACE_BOUND('',#948,.T.);
#948 = EDGE_LOOP('',(#949,#950,#958,#965));
#949 = ORIENTED_EDGE('',*,*,#843,.T.);
#950 = ORIENTED_EDGE('',*,*,#951,.T.);
#951 = EDGE_CURVE('',#844,#952,#954,.T.);
#952 = VERTEX_POINT('',#953);
#953 = CARTESIAN_POINT('',(0.8,-0.37,0.));
#954 = LINE('',#955,#956);
#955 = CARTESIAN_POINT('',(0.5,-0.37,0.));
#956 = VECTOR('',#957,1.);
#957 = DIRECTION('',(1.,0.,0.));
#958 = ORIENTED_EDGE('',*,*,#959,.F.);
#959 = EDGE_CURVE('',#920,#952,#960,.T.);
#960 = CIRCLE('',#961,3.E-02);
#961 = AXIS2_PLACEMENT_3D('',#962,#963,#964);
#962 = CARTESIAN_POINT('',(0.8,-0.37,3.E-02));
#963 = DIRECTION('',(1.,0.,-0.));
#964 = DIRECTION('',(0.,0.,1.));
#965 = ORIENTED_EDGE('',*,*,#929,.F.);
#966 = CYLINDRICAL_SURFACE('',#967,3.E-02);
#967 = AXIS2_PLACEMENT_3D('',#968,#969,#970);
#968 = CARTESIAN_POINT('',(0.5,-0.37,3.E-02));
#969 = DIRECTION('',(1.,0.,0.));
#970 = DIRECTION('',(0.,-1.,0.));
#971 = ADVANCED_FACE('',(#972),#991,.T.);
#972 = FACE_BOUND('',#973,.T.);
#973 = EDGE_LOOP('',(#974,#975,#984,#990));
#974 = ORIENTED_EDGE('',*,*,#936,.T.);
#975 = ORIENTED_EDGE('',*,*,#976,.T.);
#976 = EDGE_CURVE('',#922,#977,#979,.T.);
#977 = VERTEX_POINT('',#978);
#978 = CARTESIAN_POINT('',(0.8,-0.37,0.8));
#979 = CIRCLE('',#980,3.E-02);
#980 = AXIS2_PLACEMENT_3D('',#981,#982,#983);
#981 = CARTESIAN_POINT('',(0.8,-0.37,0.77));
#982 = DIRECTION('',(-1.,0.,0.));
#983 = DIRECTION('',(0.,0.,1.));
#984 = ORIENTED_EDGE('',*,*,#985,.F.);
#985 = EDGE_CURVE('',#887,#977,#986,.T.);
#986 = LINE('',#987,#988);
#987 = CARTESIAN_POINT('',(0.5,-0.37,0.8));
#988 = VECTOR('',#989,1.);
#989 = DIRECTION('',(1.,0.,0.));
#990 = ORIENTED_EDGE('',*,*,#894,.F.);
#991 = CYLINDRICAL_SURFACE('',#992,3.E-02);
#992 = AXIS2_PLACEMENT_3D('',#993,#994,#995);
#993 = CARTESIAN_POINT('',(0.5,-0.37,0.77));
#994 = DIRECTION('',(1.,0.,0.));
#995 = DIRECTION('',(0.,-1.,0.));
#996 = ADVANCED_FACE('',(#997),#1015,.F.);
#997 = FACE_BOUND('',#998,.F.);
#998 = EDGE_LOOP('',(#999,#1000,#1001,#1009));
#999 = ORIENTED_EDGE('',*,*,#852,.F.);
#1000 = ORIENTED_EDGE('',*,*,#951,.T.);
#1001 = ORIENTED_EDGE('',*,*,#1002,.T.);
#1002 = EDGE_CURVE('',#952,#1003,#1005,.T.);
#1003 = VERTEX_POINT('',#1004);
#1004 = CARTESIAN_POINT('',(0.8,0.37,0.));
#1005 = LINE('',#1006,#1007);
#1006 = CARTESIAN_POINT('',(0.8,-0.4,0.));
#1007 = VECTOR('',#1008,1.);
#1008 = DIRECTION('',(0.,1.,0.));
#1009 = ORIENTED_EDGE('',*,*,#1010,.F.);
#1010 = EDGE_CURVE('',#853,#1003,#1011,.T.);
#1011 = LINE('',#1012,#1013);
#1012 = CARTESIAN_POINT('',(0.5,0.37,0.));
#1013 = VECTOR('',#1014,1.);
#1014 = DIRECTION('',(1.,0.,0.));
#1015 = PLANE('',#1016);
#1016 = AXIS2_PLACEMENT_3D('',#1017,#1018,#1019);
#1017 = CARTESIAN_POINT('',(0.5,-0.4,0.));
#1018 = DIRECTION('',(0.,0.,1.));
#1019 = DIRECTION('',(1.,0.,-0.));
#1020 = ADVANCED_FACE('',(#1021),#1039,.T.);
#1021 = FACE_BOUND('',#1022,.T.);
#1022 = EDGE_LOOP('',(#1023,#1024,#1025,#1033));
#1023 = ORIENTED_EDGE('',*,*,#886,.F.);
#1024 = ORIENTED_EDGE('',*,*,#985,.T.);
#1025 = ORIENTED_EDGE('',*,*,#1026,.T.);
#1026 = EDGE_CURVE('',#977,#1027,#1029,.T.);
#1027 = VERTEX_POINT('',#1028);
#1028 = CARTESIAN_POINT('',(0.8,0.37,0.8));
#1029 = LINE('',#1030,#1031);
#1030 = CARTESIAN_POINT('',(0.8,-0.4,0.8));
#1031 = VECTOR('',#1032,1.);
#1032 = DIRECTION('',(0.,1.,0.));
#1033 = ORIENTED_EDGE('',*,*,#1034,.F.);
#1034 = EDGE_CURVE('',#878,#1027,#1035,.T.);
#1035 = LINE('',#1036,#1037);
#1036 = CARTESIAN_POINT('',(0.5,0.37,0.8));
#1037 = VECTOR('',#1038,1.);
#1038 = DIRECTION('',(1.,0.,0.));
#1039 = PLANE('',#1040);
#1040 = AXIS2_PLACEMENT_3D('',#1041,#1042,#1043);
#1041 = CARTESIAN_POINT('',(0.5,-0.4,0.8));
#1042 = DIRECTION('',(0.,0.,1.));
#1043 = DIRECTION('',(1.,0.,-0.));
#1044 = ADVANCED_FACE('',(#1045),#1064,.T.);
#1045 = FACE_BOUND('',#1046,.T.);
#1046 = EDGE_LOOP('',(#1047,#1055,#1062,#1063));
#1047 = ORIENTED_EDGE('',*,*,#1048,.T.);
#1048 = EDGE_CURVE('',#861,#1049,#1051,.T.);
#1049 = VERTEX_POINT('',#1050);
#1050 = CARTESIAN_POINT('',(0.8,0.4,3.E-02));
#1051 = LINE('',#1052,#1053);
#1052 = CARTESIAN_POINT('',(0.5,0.4,3.E-02));
#1053 = VECTOR('',#1054,1.);
#1054 = DIRECTION('',(1.,0.,0.));
#1055 = ORIENTED_EDGE('',*,*,#1056,.T.);
#1056 = EDGE_CURVE('',#1049,#1003,#1057,.T.);
#1057 = CIRCLE('',#1058,3.E-02);
#1058 = AXIS2_PLACEMENT_3D('',#1059,#1060,#1061);
#1059 = CARTESIAN_POINT('',(0.8,0.37,3.E-02));
#1060 = DIRECTION('',(-1.,0.,0.));
#1061 = DIRECTION('',(0.,0.,1.));
#1062 = ORIENTED_EDGE('',*,*,#1010,.F.);
#1063 = ORIENTED_EDGE('',*,*,#860,.F.);
#1064 = CYLINDRICAL_SURFACE('',#1065,3.E-02);
#1065 = AXIS2_PLACEMENT_3D('',#1066,#1067,#1068);
#1066 = CARTESIAN_POINT('',(0.5,0.37,3.E-02));
#1067 = DIRECTION('',(1.,0.,0.));
#1068 = DIRECTION('',(-0.,1.,0.));
#1069 = ADVANCED_FACE('',(#1070),#1089,.T.);
#1070 = FACE_BOUND('',#1071,.T.);
#1071 = EDGE_LOOP('',(#1072,#1073,#1074,#1083));
#1072 = ORIENTED_EDGE('',*,*,#877,.T.);
#1073 = ORIENTED_EDGE('',*,*,#1034,.T.);
#1074 = ORIENTED_EDGE('',*,*,#1075,.F.);
#1075 = EDGE_CURVE('',#1076,#1027,#1078,.T.);
#1076 = VERTEX_POINT('',#1077);
#1077 = CARTESIAN_POINT('',(0.8,0.4,0.77));
#1078 = CIRCLE('',#1079,3.E-02);
#1079 = AXIS2_PLACEMENT_3D('',#1080,#1081,#1082);
#1080 = CARTESIAN_POINT('',(0.8,0.37,0.77));
#1081 = DIRECTION('',(1.,0.,-0.));
#1082 = DIRECTION('',(0.,0.,1.));
#1083 = ORIENTED_EDGE('',*,*,#1084,.F.);
#1084 = EDGE_CURVE('',#870,#1076,#1085,.T.);
#1085 = LINE('',#1086,#1087);
#1086 = CARTESIAN_POINT('',(0.5,0.4,0.77));
#1087 = VECTOR('',#1088,1.);
#1088 = DIRECTION('',(1.,0.,0.));
#1089 = CYLINDRICAL_SURFACE('',#1090,3.E-02);
#1090 = AXIS2_PLACEMENT_3D('',#1091,#1092,#1093);
#1091 = CARTESIAN_POINT('',(0.5,0.37,0.77));
#1092 = DIRECTION('',(1.,0.,0.));
#1093 = DIRECTION('',(-0.,1.,0.));
#1094 = ADVANCED_FACE('',(#1095),#1106,.T.);
#1095 = FACE_BOUND('',#1096,.T.);
#1096 = EDGE_LOOP('',(#1097,#1103,#1104,#1105));
#1097 = ORIENTED_EDGE('',*,*,#1098,.F.);
#1098 = EDGE_CURVE('',#1049,#1076,#1099,.T.);
#1099 = LINE('',#1100,#1101);
#1100 = CARTESIAN_POINT('',(0.8,0.4,0.));
#1101 = VECTOR('',#1102,1.);
#1102 = DIRECTION('',(0.,0.,1.));
#1103 = ORIENTED_EDGE('',*,*,#1048,.F.);
#1104 = ORIENTED_EDGE('',*,*,#869,.T.);
#1105 = ORIENTED_EDGE('',*,*,#1084,.T.);
#1106 = PLANE('',#1107);
#1107 = AXIS2_PLACEMENT_3D('',#1108,#1109,#1110);
#1108 = CARTESIAN_POINT('',(0.5,0.4,0.));
#1109 = DIRECTION('',(0.,1.,0.));
#1110 = DIRECTION('',(0.,-0.,1.));
#1111 = ADVANCED_FACE('',(#1112),#1122,.T.);
#1112 = FACE_BOUND('',#1113,.T.);
#1113 = EDGE_LOOP('',(#1114,#1115,#1116,#1117,#1118,#1119,#1120,#1121));
#1114 = ORIENTED_EDGE('',*,*,#919,.F.);
#1115 = ORIENTED_EDGE('',*,*,#959,.T.);
#1116 = ORIENTED_EDGE('',*,*,#1002,.T.);
#1117 = ORIENTED_EDGE('',*,*,#1056,.F.);
#1118 = ORIENTED_EDGE('',*,*,#1098,.T.);
#1119 = ORIENTED_EDGE('',*,*,#1075,.T.);
#1120 = ORIENTED_EDGE('',*,*,#1026,.F.);
#1121 = ORIENTED_EDGE('',*,*,#976,.F.);
#1122 = PLANE('',#1123);
#1123 = AXIS2_PLACEMENT_3D('',#1124,#1125,#1126);
#1124 = CARTESIAN_POINT('',(0.8,-0.4,0.));
#1125 = DIRECTION('',(1.,0.,0.));
#1126 = DIRECTION('',(0.,0.,1.));
#1127 = ( GEOMETRIC_REPRESENTATION_CONTEXT(3) 
GLOBAL_UNCERTAINTY_ASSIGNED_CONTEXT((#1131)) 
GLOBAL_UNIT_ASSIGNED_CONTEXT((#1128,#1129,#1130)) REPRESENTATION_CONTEXT
('Context #1','3D Context with UNIT and UNCERTAINTY') );
#1128 = ( LENGTH_UNIT() NAMED_UNIT(*) SI_UNIT(.MILLI.,.METRE.) );
#1129 = ( NAMED_UNIT(*) PLANE_ANGLE_UNIT() SI_UNIT($,.RADIAN.) );
#1130 = ( NAMED_UNIT(*) SI_UNIT($,.STERADIAN.) SOLID_ANGLE_UNIT() );
#1131 = UNCERTAINTY_MEASURE_WITH_UNIT(LENGTH_MEASURE(1.E-07),#1128,
  'distance_accuracy_value','confusion accuracy');
#1132 = CONTEXT_DEPENDENT_SHAPE_REPRESENTATION(#1133,#1135);
#1133 = ( REPRESENTATION_RELATIONSHIP('','',#272,#10) 
REPRESENTATION_RELATIONSHIP_WITH_TRANSFORMATION(#1134) 
SHAPE_REPRESENTATION_RELATIONSHIP() );
#1134 = ITEM_DEFINED_TRANSFORMATION('','',#11,#15);
#1135 = PRODUCT_DEFINITION_SHAPE('Placement','Placement of an item',
  #1136);
#1136 = NEXT_ASSEMBLY_USAGE_OCCURRENCE('1','C48','',#5,#267,$);
#1137 = PRODUCT_RELATED_PRODUCT_CATEGORY('part',$,(#269));
#1138 = CONTEXT_DEPENDENT_SHAPE_REPRESENTATION(#1139,#1141);
#1139 = ( REPRESENTATION_RELATIONSHIP('','',#272,#10) 
REPRESENTATION_RELATIONSHIP_WITH_TRANSFORMATION(#1140) 
SHAPE_REPRESENTATION_RELATIONSHIP() );
#1140 = ITEM_DEFINED_TRANSFORMATION('','',#11,#19);
#1141 = PRODUCT_DEFINITION_SHAPE('Placement','Placement of an item',
  #1142);
#1142 = NEXT_ASSEMBLY_USAGE_OCCURRENCE('2','C55','',#5,#267,$);
#1143 = CONTEXT_DEPENDENT_SHAPE_REPRESENTATION(#1144,#1146);
#1144 = ( REPRESENTATION_RELATIONSHIP('','',#272,#10) 
REPRESENTATION_RELATIONSHIP_WITH_TRANSFORMATION(#1145) 
SHAPE_REPRESENTATION_RELATIONSHIP() );
#1145 = ITEM_DEFINED_TRANSFORMATION('','',#11,#23);
#1146 = PRODUCT_DEFINITION_SHAPE('Placement','Placement of an item',
  #1147);
#1147 = NEXT_ASSEMBLY_USAGE_OCCURRENCE('3','C6','',#5,#267,$);
#1148 = CONTEXT_DEPENDENT_SHAPE_REPRESENTATION(#1149,#1151);
#1149 = ( REPRESENTATION_RELATIONSHIP('','',#272,#10) 
REPRESENTATION_RELATIONSHIP_WITH_TRANSFORMATION(#1150) 
SHAPE_REPRESENTATION_RELATIONSHIP() );
#1150 = ITEM_DEFINED_TRANSFORMATION('','',#11,#27);
#1151 = PRODUCT_DEFINITION_SHAPE('Placement','Placement of an item',
  #1152);
#1152 = NEXT_ASSEMBLY_USAGE_OCCURRENCE('4','C3','',#5,#267,$);
#1153 = CONTEXT_DEPENDENT_SHAPE_REPRESENTATION(#1154,#1156);
#1154 = ( REPRESENTATION_RELATIONSHIP('','',#272,#10) 
REPRESENTATION_RELATIONSHIP_WITH_TRANSFORMATION(#1155) 
SHAPE_REPRESENTATION_RELATIONSHIP() );
#1155 = ITEM_DEFINED_TRANSFORMATION('','',#11,#31);
#1156 = PRODUCT_DEFINITION_SHAPE('Placement','Placement of an item',
  #1157);
#1157 = NEXT_ASSEMBLY_USAGE_OCCURRENCE('5','C42','',#5,#267,$);
#1158 = CONTEXT_DEPENDENT_SHAPE_REPRESENTATION(#1159,#1161);
#1159 = ( REPRESENTATION_RELATIONSHIP('','',#272,#10) 
REPRESENTATION_RELATIONSHIP_WITH_TRANSFORMATION(#1160) 
SHAPE_REPRESENTATION_RELATIONSHIP() );
#1160 = ITEM_DEFINED_TRANSFORMATION('','',#11,#35);
#1161 = PRODUCT_DEFINITION_SHAPE('Placement','Placement of an item',
  #1162);
#1162 = NEXT_ASSEMBLY_USAGE_OCCURRENCE('6','C38','',#5,#267,$);
#1163 = CONTEXT_DEPENDENT_SHAPE_REPRESENTATION(#1164,#1166);
#1164 = ( REPRESENTATION_RELATIONSHIP('','',#272,#10) 
REPRESENTATION_RELATIONSHIP_WITH_TRANSFORMATION(#1165) 
SHAPE_REPRESENTATION_RELATIONSHIP() );
#1165 = ITEM_DEFINED_TRANSFORMATION('','',#11,#39);
#1166 = PRODUCT_DEFINITION_SHAPE('Placement','Placement of an item',
  #1167);
#1167 = NEXT_ASSEMBLY_USAGE_OCCURRENCE('7','C8','',#5,#267,$);
#1168 = CONTEXT_DEPENDENT_SHAPE_REPRESENTATION(#1169,#1171);
#1169 = ( REPRESENTATION_RELATIONSHIP('','',#272,#10) 
REPRESENTATION_RELATIONSHIP_WITH_TRANSFORMATION(#1170) 
SHAPE_REPRESENTATION_RELATIONSHIP() );
#1170 = ITEM_DEFINED_TRANSFORMATION('','',#11,#43);
#1171 = PRODUCT_DEFINITION_SHAPE('Placement','Placement of an item',
  #1172);
#1172 = NEXT_ASSEMBLY_USAGE_OCCURRENCE('8','C10','',#5,#267,$);
#1173 = CONTEXT_DEPENDENT_SHAPE_REPRESENTATION(#1174,#1176);
#1174 = ( REPRESENTATION_RELATIONSHIP('','',#272,#10) 
REPRESENTATION_RELATIONSHIP_WITH_TRANSFORMATION(#1175) 
SHAPE_REPRESENTATION_RELATIONSHIP() );
#1175 = ITEM_DEFINED_TRANSFORMATION('','',#11,#47);
#1176 = PRODUCT_DEFINITION_SHAPE('Placement','Placement of an item',
  #1177);
#1177 = NEXT_ASSEMBLY_USAGE_OCCURRENCE('9','C52','',#5,#267,$);
#1178 = CONTEXT_DEPENDENT_SHAPE_REPRESENTATION(#1179,#1181);
#1179 = ( REPRESENTATION_RELATIONSHIP('','',#272,#10) 
REPRESENTATION_RELATIONSHIP_WITH_TRANSFORMATION(#1180) 
SHAPE_REPRESENTATION_RELATIONSHIP() );
#1180 = ITEM_DEFINED_TRANSFORMATION('','',#11,#51);
#1181 = PRODUCT_DEFINITION_SHAPE('Placement','Placement of an item',
  #1182);
#1182 = NEXT_ASSEMBLY_USAGE_OCCURRENCE('10','C33','',#5,#267,$);
#1183 = CONTEXT_DEPENDENT_SHAPE_REPRESENTATION(#1184,#1186);
#1184 = ( REPRESENTATION_RELATIONSHIP('','',#272,#10) 
REPRESENTATION_RELATIONSHIP_WITH_TRANSFORMATION(#1185) 
SHAPE_REPRESENTATION_RELATIONSHIP() );
#1185 = ITEM_DEFINED_TRANSFORMATION('','',#11,#55);
#1186 = PRODUCT_DEFINITION_SHAPE('Placement','Placement of an item',
  #1187);
#1187 = NEXT_ASSEMBLY_USAGE_OCCURRENCE('11','C26','',#5,#267,$);
#1188 = CONTEXT_DEPENDENT_SHAPE_REPRESENTATION(#1189,#1191);
#1189 = ( REPRESENTATION_RELATIONSHIP('','',#272,#10) 
REPRESENTATION_RELATIONSHIP_WITH_TRANSFORMATION(#1190) 
SHAPE_REPRESENTATION_RELATIONSHIP() );
#1190 = ITEM_DEFINED_TRANSFORMATION('','',#11,#59);
#1191 = PRODUCT_DEFINITION_SHAPE('Placement','Placement of an item',
  #1192);
#1192 = NEXT_ASSEMBLY_USAGE_OCCURRENCE('12','C27','',#5,#267,$);
#1193 = CONTEXT_DEPENDENT_SHAPE_REPRESENTATION(#1194,#1196);
#1194 = ( REPRESENTATION_RELATIONSHIP('','',#272,#10) 
REPRESENTATION_RELATIONSHIP_WITH_TRANSFORMATION(#1195) 
SHAPE_REPRESENTATION_RELATIONSHIP() );
#1195 = ITEM_DEFINED_TRANSFORMATION('','',#11,#63);
#1196 = PRODUCT_DEFINITION_SHAPE('Placement','Placement of an item',
  #1197);
#1197 = NEXT_ASSEMBLY_USAGE_OCCURRENCE('13','C19','',#5,#267,$);
#1198 = CONTEXT_DEPENDENT_SHAPE_REPRESENTATION(#1199,#1201);
#1199 = ( REPRESENTATION_RELATIONSHIP('','',#272,#10) 
REPRESENTATION_RELATIONSHIP_WITH_TRANSFORMATION(#1200) 
SHAPE_REPRESENTATION_RELATIONSHIP() );
#1200 = ITEM_DEFINED_TRANSFORMATION('','',#11,#67);
#1201 = PRODUCT_DEFINITION_SHAPE('Placement','Placement of an item',
  #1202);
#1202 = NEXT_ASSEMBLY_USAGE_OCCURRENCE('14','C53','',#5,#267,$);
#1203 = CONTEXT_DEPENDENT_SHAPE_REPRESENTATION(#1204,#1206);
#1204 = ( REPRESENTATION_RELATIONSHIP('','',#272,#10) 
REPRESENTATION_RELATIONSHIP_WITH_TRANSFORMATION(#1205) 
SHAPE_REPRESENTATION_RELATIONSHIP() );
#1205 = ITEM_DEFINED_TRANSFORMATION('','',#11,#71);
#1206 = PRODUCT_DEFINITION_SHAPE('Placement','Placement of an item',
  #1207);
#1207 = NEXT_ASSEMBLY_USAGE_OCCURRENCE('15','C7','',#5,#267,$);
#1208 = CONTEXT_DEPENDENT_SHAPE_REPRESENTATION(#1209,#1211);
#1209 = ( REPRESENTATION_RELATIONSHIP('','',#272,#10) 
REPRESENTATION_RELATIONSHIP_WITH_TRANSFORMATION(#1210) 
SHAPE_REPRESENTATION_RELATIONSHIP() );
#1210 = ITEM_DEFINED_TRANSFORMATION('','',#11,#75);
#1211 = PRODUCT_DEFINITION_SHAPE('Placement','Placement of an item',
  #1212);
#1212 = NEXT_ASSEMBLY_USAGE_OCCURRENCE('16','C40','',#5,#267,$);
#1213 = CONTEXT_DEPENDENT_SHAPE_REPRESENTATION(#1214,#1216);
#1214 = ( REPRESENTATION_RELATIONSHIP('','',#272,#10) 
REPRESENTATION_RELATIONSHIP_WITH_TRANSFORMATION(#1215) 
SHAPE_REPRESENTATION_RELATIONSHIP() );
#1215 = ITEM_DEFINED_TRANSFORMATION('','',#11,#79);
#1216 = PRODUCT_DEFINITION_SHAPE('Placement','Placement of an item',
  #1217);
#1217 = NEXT_ASSEMBLY_USAGE_OCCURRENCE('17','C58','',#5,#267,$);
#1218 = CONTEXT_DEPENDENT_SHAPE_REPRESENTATION(#1219,#1221);
#1219 = ( REPRESENTATION_RELATIONSHIP('','',#272,#10) 
REPRESENTATION_RELATIONSHIP_WITH_TRANSFORMATION(#1220) 
SHAPE_REPRESENTATION_RELATIONSHIP() );
#1220 = ITEM_DEFINED_TRANSFORMATION('','',#11,#83);
#1221 = PRODUCT_DEFINITION_SHAPE('Placement','Placement of an item',
  #1222);
#1222 = NEXT_ASSEMBLY_USAGE_OCCURRENCE('18','C25','',#5,#267,$);
#1223 = CONTEXT_DEPENDENT_SHAPE_REPRESENTATION(#1224,#1226);
#1224 = ( REPRESENTATION_RELATIONSHIP('','',#272,#10) 
REPRESENTATION_RELATIONSHIP_WITH_TRANSFORMATION(#1225) 
SHAPE_REPRESENTATION_RELATIONSHIP() );
#1225 = ITEM_DEFINED_TRANSFORMATION('','',#11,#87);
#1226 = PRODUCT_DEFINITION_SHAPE('Placement','Placement of an item',
  #1227);
#1227 = NEXT_ASSEMBLY_USAGE_OCCURRENCE('19','C14','',#5,#267,$);
#1228 = CONTEXT_DEPENDENT_SHAPE_REPRESENTATION(#1229,#1231);
#1229 = ( REPRESENTATION_RELATIONSHIP('','',#272,#10) 
REPRESENTATION_RELATIONSHIP_WITH_TRANSFORMATION(#1230) 
SHAPE_REPRESENTATION_RELATIONSHIP() );
#1230 = ITEM_DEFINED_TRANSFORMATION('','',#11,#91);
#1231 = PRODUCT_DEFINITION_SHAPE('Placement','Placement of an item',
  #1232);
#1232 = NEXT_ASSEMBLY_USAGE_OCCURRENCE('20','C32','',#5,#267,$);
#1233 = CONTEXT_DEPENDENT_SHAPE_REPRESENTATION(#1234,#1236);
#1234 = ( REPRESENTATION_RELATIONSHIP('','',#272,#10) 
REPRESENTATION_RELATIONSHIP_WITH_TRANSFORMATION(#1235) 
SHAPE_REPRESENTATION_RELATIONSHIP() );
#1235 = ITEM_DEFINED_TRANSFORMATION('','',#11,#95);
#1236 = PRODUCT_DEFINITION_SHAPE('Placement','Placement of an item',
  #1237);
#1237 = NEXT_ASSEMBLY_USAGE_OCCURRENCE('21','C50','',#5,#267,$);
#1238 = CONTEXT_DEPENDENT_SHAPE_REPRESENTATION(#1239,#1241);
#1239 = ( REPRESENTATION_RELATIONSHIP('','',#272,#10) 
REPRESENTATION_RELATIONSHIP_WITH_TRANSFORMATION(#1240) 
SHAPE_REPRESENTATION_RELATIONSHIP() );
#1240 = ITEM_DEFINED_TRANSFORMATION('','',#11,#99);
#1241 = PRODUCT_DEFINITION_SHAPE('Placement','Placement of an item',
  #1242);
#1242 = NEXT_ASSEMBLY_USAGE_OCCURRENCE('22','C9','',#5,#267,$);
#1243 = CONTEXT_DEPENDENT_SHAPE_REPRESENTATION(#1244,#1246);
#1244 = ( REPRESENTATION_RELATIONSHIP('','',#272,#10) 
REPRESENTATION_RELATIONSHIP_WITH_TRANSFORMATION(#1245) 
SHAPE_REPRESENTATION_RELATIONSHIP() );
#1245 = ITEM_DEFINED_TRANSFORMATION('','',#11,#103);
#1246 = PRODUCT_DEFINITION_SHAPE('Placement','Placement of an item',
  #1247);
#1247 = NEXT_ASSEMBLY_USAGE_OCCURRENCE('23','C41','',#5,#267,$);
#1248 = CONTEXT_DEPENDENT_SHAPE_REPRESENTATION(#1249,#1251);
#1249 = ( REPRESENTATION_RELATIONSHIP('','',#272,#10) 
REPRESENTATION_RELATIONSHIP_WITH_TRANSFORMATION(#1250) 
SHAPE_REPRESENTATION_RELATIONSHIP() );
#1250 = ITEM_DEFINED_TRANSFORMATION('','',#11,#107);
#1251 = PRODUCT_DEFINITION_SHAPE('Placement','Placement of an item',
  #1252);
#1252 = NEXT_ASSEMBLY_USAGE_OCCURRENCE('24','C24','',#5,#267,$);
#1253 = CONTEXT_DEPENDENT_SHAPE_REPRESENTATION(#1254,#1256);
#1254 = ( REPRESENTATION_RELATIONSHIP('','',#272,#10) 
REPRESENTATION_RELATIONSHIP_WITH_TRANSFORMATION(#1255) 
SHAPE_REPRESENTATION_RELATIONSHIP() );
#1255 = ITEM_DEFINED_TRANSFORMATION('','',#11,#111);
#1256 = PRODUCT_DEFINITION_SHAPE('Placement','Placement of an item',
  #1257);
#1257 = NEXT_ASSEMBLY_USAGE_OCCURRENCE('25','C59','',#5,#267,$);
#1258 = CONTEXT_DEPENDENT_SHAPE_REPRESENTATION(#1259,#1261);
#1259 = ( REPRESENTATION_RELATIONSHIP('','',#272,#10) 
REPRESENTATION_RELATIONSHIP_WITH_TRANSFORMATION(#1260) 
SHAPE_REPRESENTATION_RELATIONSHIP() );
#1260 = ITEM_DEFINED_TRANSFORMATION('','',#11,#115);
#1261 = PRODUCT_DEFINITION_SHAPE('Placement','Placement of an item',
  #1262);
#1262 = NEXT_ASSEMBLY_USAGE_OCCURRENCE('26','C12','',#5,#267,$);
#1263 = CONTEXT_DEPENDENT_SHAPE_REPRESENTATION(#1264,#1266);
#1264 = ( REPRESENTATION_RELATIONSHIP('','',#272,#10) 
REPRESENTATION_RELATIONSHIP_WITH_TRANSFORMATION(#1265) 
SHAPE_REPRESENTATION_RELATIONSHIP() );
#1265 = ITEM_DEFINED_TRANSFORMATION('','',#11,#119);
#1266 = PRODUCT_DEFINITION_SHAPE('Placement','Placement of an item',
  #1267);
#1267 = NEXT_ASSEMBLY_USAGE_OCCURRENCE('27','C31','',#5,#267,$);
#1268 = CONTEXT_DEPENDENT_SHAPE_REPRESENTATION(#1269,#1271);
#1269 = ( REPRESENTATION_RELATIONSHIP('','',#272,#10) 
REPRESENTATION_RELATIONSHIP_WITH_TRANSFORMATION(#1270) 
SHAPE_REPRESENTATION_RELATIONSHIP() );
#1270 = ITEM_DEFINED_TRANSFORMATION('','',#11,#123);
#1271 = PRODUCT_DEFINITION_SHAPE('Placement','Placement of an item',
  #1272);
#1272 = NEXT_ASSEMBLY_USAGE_OCCURRENCE('28','C16','',#5,#267,$);
#1273 = CONTEXT_DEPENDENT_SHAPE_REPRESENTATION(#1274,#1276);
#1274 = ( REPRESENTATION_RELATIONSHIP('','',#272,#10) 
REPRESENTATION_RELATIONSHIP_WITH_TRANSFORMATION(#1275) 
SHAPE_REPRESENTATION_RELATIONSHIP() );
#1275 = ITEM_DEFINED_TRANSFORMATION('','',#11,#127);
#1276 = PRODUCT_DEFINITION_SHAPE('Placement','Placement of an item',
  #1277);
#1277 = NEXT_ASSEMBLY_USAGE_OCCURRENCE('29','C18','',#5,#267,$);
#1278 = CONTEXT_DEPENDENT_SHAPE_REPRESENTATION(#1279,#1281);
#1279 = ( REPRESENTATION_RELATIONSHIP('','',#272,#10) 
REPRESENTATION_RELATIONSHIP_WITH_TRANSFORMATION(#1280) 
SHAPE_REPRESENTATION_RELATIONSHIP() );
#1280 = ITEM_DEFINED_TRANSFORMATION('','',#11,#131);
#1281 = PRODUCT_DEFINITION_SHAPE('Placement','Placement of an item',
  #1282);
#1282 = NEXT_ASSEMBLY_USAGE_OCCURRENCE('30','C23','',#5,#267,$);
#1283 = CONTEXT_DEPENDENT_SHAPE_REPRESENTATION(#1284,#1286);
#1284 = ( REPRESENTATION_RELATIONSHIP('','',#272,#10) 
REPRESENTATION_RELATIONSHIP_WITH_TRANSFORMATION(#1285) 
SHAPE_REPRESENTATION_RELATIONSHIP() );
#1285 = ITEM_DEFINED_TRANSFORMATION('','',#11,#135);
#1286 = PRODUCT_DEFINITION_SHAPE('Placement','Placement of an item',
  #1287);
#1287 = NEXT_ASSEMBLY_USAGE_OCCURRENCE('31','C46','',#5,#267,$);
#1288 = CONTEXT_DEPENDENT_SHAPE_REPRESENTATION(#1289,#1291);
#1289 = ( REPRESENTATION_RELATIONSHIP('','',#272,#10) 
REPRESENTATION_RELATIONSHIP_WITH_TRANSFORMATION(#1290) 
SHAPE_REPRESENTATION_RELATIONSHIP() );
#1290 = ITEM_DEFINED_TRANSFORMATION('','',#11,#139);
#1291 = PRODUCT_DEFINITION_SHAPE('Placement','Placement of an item',
  #1292);
#1292 = NEXT_ASSEMBLY_USAGE_OCCURRENCE('32','C49','',#5,#267,$);
#1293 = CONTEXT_DEPENDENT_SHAPE_REPRESENTATION(#1294,#1296);
#1294 = ( REPRESENTATION_RELATIONSHIP('','',#272,#10) 
REPRESENTATION_RELATIONSHIP_WITH_TRANSFORMATION(#1295) 
SHAPE_REPRESENTATION_RELATIONSHIP() );
#1295 = ITEM_DEFINED_TRANSFORMATION('','',#11,#143);
#1296 = PRODUCT_DEFINITION_SHAPE('Placement','Placement of an item',
  #1297);
#1297 = NEXT_ASSEMBLY_USAGE_OCCURRENCE('33','C28','',#5,#267,$);
#1298 = CONTEXT_DEPENDENT_SHAPE_REPRESENTATION(#1299,#1301);
#1299 = ( REPRESENTATION_RELATIONSHIP('','',#272,#10) 
REPRESENTATION_RELATIONSHIP_WITH_TRANSFORMATION(#1300) 
SHAPE_REPRESENTATION_RELATIONSHIP() );
#1300 = ITEM_DEFINED_TRANSFORMATION('','',#11,#147);
#1301 = PRODUCT_DEFINITION_SHAPE('Placement','Placement of an item',
  #1302);
#1302 = NEXT_ASSEMBLY_USAGE_OCCURRENCE('34','C21','',#5,#267,$);
#1303 = CONTEXT_DEPENDENT_SHAPE_REPRESENTATION(#1304,#1306);
#1304 = ( REPRESENTATION_RELATIONSHIP('','',#272,#10) 
REPRESENTATION_RELATIONSHIP_WITH_TRANSFORMATION(#1305) 
SHAPE_REPRESENTATION_RELATIONSHIP() );
#1305 = ITEM_DEFINED_TRANSFORMATION('','',#11,#151);
#1306 = PRODUCT_DEFINITION_SHAPE('Placement','Placement of an item',
  #1307);
#1307 = NEXT_ASSEMBLY_USAGE_OCCURRENCE('35','C20','',#5,#267,$);
#1308 = CONTEXT_DEPENDENT_SHAPE_REPRESENTATION(#1309,#1311);
#1309 = ( REPRESENTATION_RELATIONSHIP('','',#272,#10) 
REPRESENTATION_RELATIONSHIP_WITH_TRANSFORMATION(#1310) 
SHAPE_REPRESENTATION_RELATIONSHIP() );
#1310 = ITEM_DEFINED_TRANSFORMATION('','',#11,#155);
#1311 = PRODUCT_DEFINITION_SHAPE('Placement','Placement of an item',
  #1312);
#1312 = NEXT_ASSEMBLY_USAGE_OCCURRENCE('36','C15','',#5,#267,$);
#1313 = CONTEXT_DEPENDENT_SHAPE_REPRESENTATION(#1314,#1316);
#1314 = ( REPRESENTATION_RELATIONSHIP('','',#272,#10) 
REPRESENTATION_RELATIONSHIP_WITH_TRANSFORMATION(#1315) 
SHAPE_REPRESENTATION_RELATIONSHIP() );
#1315 = ITEM_DEFINED_TRANSFORMATION('','',#11,#159);
#1316 = PRODUCT_DEFINITION_SHAPE('Placement','Placement of an item',
  #1317);
#1317 = NEXT_ASSEMBLY_USAGE_OCCURRENCE('37','C5','',#5,#267,$);
#1318 = CONTEXT_DEPENDENT_SHAPE_REPRESENTATION(#1319,#1321);
#1319 = ( REPRESENTATION_RELATIONSHIP('','',#272,#10) 
REPRESENTATION_RELATIONSHIP_WITH_TRANSFORMATION(#1320) 
SHAPE_REPRESENTATION_RELATIONSHIP() );
#1320 = ITEM_DEFINED_TRANSFORMATION('','',#11,#163);
#1321 = PRODUCT_DEFINITION_SHAPE('Placement','Placement of an item',
  #1322);
#1322 = NEXT_ASSEMBLY_USAGE_OCCURRENCE('38','C51','',#5,#267,$);
#1323 = CONTEXT_DEPENDENT_SHAPE_REPRESENTATION(#1324,#1326);
#1324 = ( REPRESENTATION_RELATIONSHIP('','',#272,#10) 
REPRESENTATION_RELATIONSHIP_WITH_TRANSFORMATION(#1325) 
SHAPE_REPRESENTATION_RELATIONSHIP() );
#1325 = ITEM_DEFINED_TRANSFORMATION('','',#11,#167);
#1326 = PRODUCT_DEFINITION_SHAPE('Placement','Placement of an item',
  #1327);
#1327 = NEXT_ASSEMBLY_USAGE_OCCURRENCE('39','C56','',#5,#267,$);
#1328 = CONTEXT_DEPENDENT_SHAPE_REPRESENTATION(#1329,#1331);
#1329 = ( REPRESENTATION_RELATIONSHIP('','',#272,#10) 
REPRESENTATION_RELATIONSHIP_WITH_TRANSFORMATION(#1330) 
SHAPE_REPRESENTATION_RELATIONSHIP() );
#1330 = ITEM_DEFINED_TRANSFORMATION('','',#11,#171);
#1331 = PRODUCT_DEFINITION_SHAPE('Placement','Placement of an item',
  #1332);
#1332 = NEXT_ASSEMBLY_USAGE_OCCURRENCE('40','C45','',#5,#267,$);
#1333 = CONTEXT_DEPENDENT_SHAPE_REPRESENTATION(#1334,#1336);
#1334 = ( REPRESENTATION_RELATIONSHIP('','',#272,#10) 
REPRESENTATION_RELATIONSHIP_WITH_TRANSFORMATION(#1335) 
SHAPE_REPRESENTATION_RELATIONSHIP() );
#1335 = ITEM_DEFINED_TRANSFORMATION('','',#11,#175);
#1336 = PRODUCT_DEFINITION_SHAPE('Placement','Placement of an item',
  #1337);
#1337 = NEXT_ASSEMBLY_USAGE_OCCURRENCE('41','C44','',#5,#267,$);
#1338 = CONTEXT_DEPENDENT_SHAPE_REPRESENTATION(#1339,#1341);
#1339 = ( REPRESENTATION_RELATIONSHIP('','',#272,#10) 
REPRESENTATION_RELATIONSHIP_WITH_TRANSFORMATION(#1340) 
SHAPE_REPRESENTATION_RELATIONSHIP() );
#1340 = ITEM_DEFINED_TRANSFORMATION('','',#11,#179);
#1341 = PRODUCT_DEFINITION_SHAPE('Placement','Placement of an item',
  #1342);
#1342 = NEXT_ASSEMBLY_USAGE_OCCURRENCE('42','C60','',#5,#267,$);
#1343 = CONTEXT_DEPENDENT_SHAPE_REPRESENTATION(#1344,#1346);
#1344 = ( REPRESENTATION_RELATIONSHIP('','',#272,#10) 
REPRESENTATION_RELATIONSHIP_WITH_TRANSFORMATION(#1345) 
SHAPE_REPRESENTATION_RELATIONSHIP() );
#1345 = ITEM_DEFINED_TRANSFORMATION('','',#11,#183);
#1346 = PRODUCT_DEFINITION_SHAPE('Placement','Placement of an item',
  #1347);
#1347 = NEXT_ASSEMBLY_USAGE_OCCURRENCE('43','C57','',#5,#267,$);
#1348 = CONTEXT_DEPENDENT_SHAPE_REPRESENTATION(#1349,#1351);
#1349 = ( REPRESENTATION_RELATIONSHIP('','',#272,#10) 
REPRESENTATION_RELATIONSHIP_WITH_TRANSFORMATION(#1350) 
SHAPE_REPRESENTATION_RELATIONSHIP() );
#1350 = ITEM_DEFINED_TRANSFORMATION('','',#11,#187);
#1351 = PRODUCT_DEFINITION_SHAPE('Placement','Placement of an item',
  #1352);
#1352 = NEXT_ASSEMBLY_USAGE_OCCURRENCE('44','C17','',#5,#267,$);
#1353 = CONTEXT_DEPENDENT_SHAPE_REPRESENTATION(#1354,#1356);
#1354 = ( REPRESENTATION_RELATIONSHIP('','',#272,#10) 
REPRESENTATION_RELATIONSHIP_WITH_TRANSFORMATION(#1355) 
SHAPE_REPRESENTATION_RELATIONSHIP() );
#1355 = ITEM_DEFINED_TRANSFORMATION('','',#11,#191);
#1356 = PRODUCT_DEFINITION_SHAPE('Placement','Placement of an item',
  #1357);
#1357 = NEXT_ASSEMBLY_USAGE_OCCURRENCE('45','C36','',#5,#267,$);
#1358 = CONTEXT_DEPENDENT_SHAPE_REPRESENTATION(#1359,#1361);
#1359 = ( REPRESENTATION_RELATIONSHIP('','',#272,#10) 
REPRESENTATION_RELATIONSHIP_WITH_TRANSFORMATION(#1360) 
SHAPE_REPRESENTATION_RELATIONSHIP() );
#1360 = ITEM_DEFINED_TRANSFORMATION('','',#11,#195);
#1361 = PRODUCT_DEFINITION_SHAPE('Placement','Placement of an item',
  #1362);
#1362 = NEXT_ASSEMBLY_USAGE_OCCURRENCE('46','C1','',#5,#267,$);
#1363 = CONTEXT_DEPENDENT_SHAPE_REPRESENTATION(#1364,#1366);
#1364 = ( REPRESENTATION_RELATIONSHIP('','',#272,#10) 
REPRESENTATION_RELATIONSHIP_WITH_TRANSFORMATION(#1365) 
SHAPE_REPRESENTATION_RELATIONSHIP() );
#1365 = ITEM_DEFINED_TRANSFORMATION('','',#11,#199);
#1366 = PRODUCT_DEFINITION_SHAPE('Placement','Placement of an item',
  #1367);
#1367 = NEXT_ASSEMBLY_USAGE_OCCURRENCE('47','C43','',#5,#267,$);
#1368 = CONTEXT_DEPENDENT_SHAPE_REPRESENTATION(#1369,#1371);
#1369 = ( REPRESENTATION_RELATIONSHIP('','',#272,#10) 
REPRESENTATION_RELATIONSHIP_WITH_TRANSFORMATION(#1370) 
SHAPE_REPRESENTATION_RELATIONSHIP() );
#1370 = ITEM_DEFINED_TRANSFORMATION('','',#11,#203);
#1371 = PRODUCT_DEFINITION_SHAPE('Placement','Placement of an item',
  #1372);
#1372 = NEXT_ASSEMBLY_USAGE_OCCURRENCE('48','C54','',#5,#267,$);
#1373 = CONTEXT_DEPENDENT_SHAPE_REPRESENTATION(#1374,#1376);
#1374 = ( REPRESENTATION_RELATIONSHIP('','',#272,#10) 
REPRESENTATION_RELATIONSHIP_WITH_TRANSFORMATION(#1375) 
SHAPE_REPRESENTATION_RELATIONSHIP() );
#1375 = ITEM_DEFINED_TRANSFORMATION('','',#11,#207);
#1376 = PRODUCT_DEFINITION_SHAPE('Placement','Placement of an item',
  #1377);
#1377 = NEXT_ASSEMBLY_USAGE_OCCURRENCE('49','C39','',#5,#267,$);
#1378 = CONTEXT_DEPENDENT_SHAPE_REPRESENTATION(#1379,#1381);
#1379 = ( REPRESENTATION_RELATIONSHIP('','',#272,#10) 
REPRESENTATION_RELATIONSHIP_WITH_TRANSFORMATION(#1380) 
SHAPE_REPRESENTATION_RELATIONSHIP() );
#1380 = ITEM_DEFINED_TRANSFORMATION('','',#11,#211);
#1381 = PRODUCT_DEFINITION_SHAPE('Placement','Placement of an item',
  #1382);
#1382 = NEXT_ASSEMBLY_USAGE_OCCURRENCE('50','C22','',#5,#267,$);
#1383 = CONTEXT_DEPENDENT_SHAPE_REPRESENTATION(#1384,#1386);
#1384 = ( REPRESENTATION_RELATIONSHIP('','',#272,#10) 
REPRESENTATION_RELATIONSHIP_WITH_TRANSFORMATION(#1385) 
SHAPE_REPRESENTATION_RELATIONSHIP() );
#1385 = ITEM_DEFINED_TRANSFORMATION('','',#11,#215);
#1386 = PRODUCT_DEFINITION_SHAPE('Placement','Placement of an item',
  #1387);
#1387 = NEXT_ASSEMBLY_USAGE_OCCURRENCE('51','C35','',#5,#267,$);
#1388 = CONTEXT_DEPENDENT_SHAPE_REPRESENTATION(#1389,#1391);
#1389 = ( REPRESENTATION_RELATIONSHIP('','',#272,#10) 
REPRESENTATION_RELATIONSHIP_WITH_TRANSFORMATION(#1390) 
SHAPE_REPRESENTATION_RELATIONSHIP() );
#1390 = ITEM_DEFINED_TRANSFORMATION('','',#11,#219);
#1391 = PRODUCT_DEFINITION_SHAPE('Placement','Placement of an item',
  #1392);
#1392 = NEXT_ASSEMBLY_USAGE_OCCURRENCE('52','C11','',#5,#267,$);
#1393 = CONTEXT_DEPENDENT_SHAPE_REPRESENTATION(#1394,#1396);
#1394 = ( REPRESENTATION_RELATIONSHIP('','',#272,#10) 
REPRESENTATION_RELATIONSHIP_WITH_TRANSFORMATION(#1395) 
SHAPE_REPRESENTATION_RELATIONSHIP() );
#1395 = ITEM_DEFINED_TRANSFORMATION('','',#11,#223);
#1396 = PRODUCT_DEFINITION_SHAPE('Placement','Placement of an item',
  #1397);
#1397 = NEXT_ASSEMBLY_USAGE_OCCURRENCE('53','C47','',#5,#267,$);
#1398 = CONTEXT_DEPENDENT_SHAPE_REPRESENTATION(#1399,#1401);
#1399 = ( REPRESENTATION_RELATIONSHIP('','',#272,#10) 
REPRESENTATION_RELATIONSHIP_WITH_TRANSFORMATION(#1400) 
SHAPE_REPRESENTATION_RELATIONSHIP() );
#1400 = ITEM_DEFINED_TRANSFORMATION('','',#11,#227);
#1401 = PRODUCT_DEFINITION_SHAPE('Placement','Placement of an item',
  #1402);
#1402 = NEXT_ASSEMBLY_USAGE_OCCURRENCE('54','C30','',#5,#267,$);
#1403 = CONTEXT_DEPENDENT_SHAPE_REPRESENTATION(#1404,#1406);
#1404 = ( REPRESENTATION_RELATIONSHIP('','',#272,#10) 
REPRESENTATION_RELATIONSHIP_WITH_TRANSFORMATION(#1405) 
SHAPE_REPRESENTATION_RELATIONSHIP() );
#1405 = ITEM_DEFINED_TRANSFORMATION('','',#11,#231);
#1406 = PRODUCT_DEFINITION_SHAPE('Placement','Placement of an item',
  #1407);
#1407 = NEXT_ASSEMBLY_USAGE_OCCURRENCE('55','C4','',#5,#267,$);
#1408 = CONTEXT_DEPENDENT_SHAPE_REPRESENTATION(#1409,#1411);
#1409 = ( REPRESENTATION_RELATIONSHIP('','',#272,#10) 
REPRESENTATION_RELATIONSHIP_WITH_TRANSFORMATION(#1410) 
SHAPE_REPRESENTATION_RELATIONSHIP() );
#1410 = ITEM_DEFINED_TRANSFORMATION('','',#11,#235);
#1411 = PRODUCT_DEFINITION_SHAPE('Placement','Placement of an item',
  #1412);
#1412 = NEXT_ASSEMBLY_USAGE_OCCURRENCE('56','C37','',#5,#267,$);
#1413 = CONTEXT_DEPENDENT_SHAPE_REPRESENTATION(#1414,#1416);
#1414 = ( REPRESENTATION_RELATIONSHIP('','',#272,#10) 
REPRESENTATION_RELATIONSHIP_WITH_TRANSFORMATION(#1415) 
SHAPE_REPRESENTATION_RELATIONSHIP() );
#1415 = ITEM_DEFINED_TRANSFORMATION('','',#11,#239);
#1416 = PRODUCT_DEFINITION_SHAPE('Placement','Placement of an item',
  #1417);
#1417 = NEXT_ASSEMBLY_USAGE_OCCURRENCE('57','C34','',#5,#267,$);
#1418 = CONTEXT_DEPENDENT_SHAPE_REPRESENTATION(#1419,#1421);
#1419 = ( REPRESENTATION_RELATIONSHIP('','',#272,#10) 
REPRESENTATION_RELATIONSHIP_WITH_TRANSFORMATION(#1420) 
SHAPE_REPRESENTATION_RELATIONSHIP() );
#1420 = ITEM_DEFINED_TRANSFORMATION('','',#11,#243);
#1421 = PRODUCT_DEFINITION_SHAPE('Placement','Placement of an item',
  #1422);
#1422 = NEXT_ASSEMBLY_USAGE_OCCURRENCE('58','C13','',#5,#267,$);
#1423 = CONTEXT_DEPENDENT_SHAPE_REPRESENTATION(#1424,#1426);
#1424 = ( REPRESENTATION_RELATIONSHIP('','',#272,#10) 
REPRESENTATION_RELATIONSHIP_WITH_TRANSFORMATION(#1425) 
SHAPE_REPRESENTATION_RELATIONSHIP() );
#1425 = ITEM_DEFINED_TRANSFORMATION('','',#11,#247);
#1426 = PRODUCT_DEFINITION_SHAPE('Placement','Placement of an item',
  #1427);
#1427 = NEXT_ASSEMBLY_USAGE_OCCURRENCE('59','C29','',#5,#267,$);
#1428 = CONTEXT_DEPENDENT_SHAPE_REPRESENTATION(#1429,#1431);
#1429 = ( REPRESENTATION_RELATIONSHIP('','',#272,#10) 
REPRESENTATION_RELATIONSHIP_WITH_TRANSFORMATION(#1430) 
SHAPE_REPRESENTATION_RELATIONSHIP() );
#1430 = ITEM_DEFINED_TRANSFORMATION('','',#11,#251);
#1431 = PRODUCT_DEFINITION_SHAPE('Placement','Placement of an item',
  #1432);
#1432 = NEXT_ASSEMBLY_USAGE_OCCURRENCE('60','C2','',#5,#267,$);
#1433 = SHAPE_DEFINITION_REPRESENTATION(#1434,#1440);
#1434 = PRODUCT_DEFINITION_SHAPE('','',#1435);
#1435 = PRODUCT_DEFINITION('design','',#1436,#1439);
#1436 = PRODUCT_DEFINITION_FORMATION('','',#1437);
#1437 = PRODUCT('octave-flex_PCB','octave-flex_PCB','',(#1438));
#1438 = PRODUCT_CONTEXT('',#2,'mechanical');
#1439 = PRODUCT_DEFINITION_CONTEXT('part definition',#2,'design');
#1440 = ADVANCED_BREP_SHAPE_REPRESENTATION('',(#11,#1441),#1591);
#1441 = MANIFOLD_SOLID_BREP('',#1442);
#1442 = CLOSED_SHELL('',(#1443,#1483,#1514,#1545,#1567,#1579));
#1443 = ADVANCED_FACE('',(#1444),#1478,.T.);
#1444 = FACE_BOUND('',#1445,.T.);
#1445 = EDGE_LOOP('',(#1446,#1456,#1464,#1472));
#1446 = ORIENTED_EDGE('',*,*,#1447,.T.);
#1447 = EDGE_CURVE('',#1448,#1450,#1452,.T.);
#1448 = VERTEX_POINT('',#1449);
#1449 = CARTESIAN_POINT('',(927.3,-300.1,0.));
#1450 = VERTEX_POINT('',#1451);
#1451 = CARTESIAN_POINT('',(927.3,-300.1,1.51));
#1452 = LINE('',#1453,#1454);
#1453 = CARTESIAN_POINT('',(927.3,-300.1,0.));
#1454 = VECTOR('',#1455,1.);
#1455 = DIRECTION('',(0.,0.,1.));
#1456 = ORIENTED_EDGE('',*,*,#1457,.T.);
#1457 = EDGE_CURVE('',#1450,#1458,#1460,.T.);
#1458 = VERTEX_POINT('',#1459);
#1459 = CARTESIAN_POINT('',(100.8,-300.1,1.51));
#1460 = LINE('',#1461,#1462);
#1461 = CARTESIAN_POINT('',(927.3,-300.1,1.51));
#1462 = VECTOR('',#1463,1.);
#1463 = DIRECTION('',(-1.,0.,0.));
#1464 = ORIENTED_EDGE('',*,*,#1465,.F.);
#1465 = EDGE_CURVE('',#1466,#1458,#1468,.T.);
#1466 = VERTEX_POINT('',#1467);
#1467 = CARTESIAN_POINT('',(100.8,-300.1,0.));
#1468 = LINE('',#1469,#1470);
#1469 = CARTESIAN_POINT('',(100.8,-300.1,0.));
#1470 = VECTOR('',#1471,1.);
#1471 = DIRECTION('',(0.,0.,1.));
#1472 = ORIENTED_EDGE('',*,*,#1473,.F.);
#1473 = EDGE_CURVE('',#1448,#1466,#1474,.T.);
#1474 = LINE('',#1475,#1476);
#1475 = CARTESIAN_POINT('',(927.3,-300.1,0.));
#1476 = VECTOR('',#1477,1.);
#1477 = DIRECTION('',(-1.,0.,0.));
#1478 = PLANE('',#1479);
#1479 = AXIS2_PLACEMENT_3D('',#1480,#1481,#1482);
#1480 = CARTESIAN_POINT('',(927.3,-300.1,0.));
#1481 = DIRECTION('',(0.,-1.,0.));
#1482 = DIRECTION('',(-1.,0.,0.));
#1483 = ADVANCED_FACE('',(#1484),#1509,.T.);
#1484 = FACE_BOUND('',#1485,.T.);
#1485 = EDGE_LOOP('',(#1486,#1487,#1495,#1503));
#1486 = ORIENTED_EDGE('',*,*,#1465,.T.);
#1487 = ORIENTED_EDGE('',*,*,#1488,.T.);
#1488 = EDGE_CURVE('',#1458,#1489,#1491,.T.);
#1489 = VERTEX_POINT('',#1490);
#1490 = CARTESIAN_POINT('',(100.8,-291.15,1.51));
#1491 = LINE('',#1492,#1493);
#1492 = CARTESIAN_POINT('',(100.8,-300.1,1.51));
#1493 = VECTOR('',#1494,1.);
#1494 = DIRECTION('',(0.,1.,0.));
#1495 = ORIENTED_EDGE('',*,*,#1496,.F.);
#1496 = EDGE_CURVE('',#1497,#1489,#1499,.T.);
#1497 = VERTEX_POINT('',#1498);
#1498 = CARTESIAN_POINT('',(100.8,-291.15,0.));
#1499 = LINE('',#1500,#1501);
#1500 = CARTESIAN_POINT('',(100.8,-291.15,0.));
#1501 = VECTOR('',#1502,1.);
#1502 = DIRECTION('',(0.,0.,1.));
#1503 = ORIENTED_EDGE('',*,*,#1504,.F.);
#1504 = EDGE_CURVE('',#1466,#1497,#1505,.T.);
#1505 = LINE('',#1506,#1507);
#1506 = CARTESIAN_POINT('',(100.8,-300.1,0.));
#1507 = VECTOR('',#1508,1.);
#1508 = DIRECTION('',(0.,1.,0.));
#1509 = PLANE('',#1510);
#1510 = AXIS2_PLACEMENT_3D('',#1511,#1512,#1513);
#1511 = CARTESIAN_POINT('',(100.8,-300.1,0.));
#1512 = DIRECTION('',(-1.,0.,0.));
#1513 = DIRECTION('',(0.,1.,0.));
#1514 = ADVANCED_FACE('',(#1515),#1540,.T.);
#1515 = FACE_BOUND('',#1516,.T.);
#1516 = EDGE_LOOP('',(#1517,#1518,#1526,#1534));
#1517 = ORIENTED_EDGE('',*,*,#1496,.T.);
#1518 = ORIENTED_EDGE('',*,*,#1519,.T.);
#1519 = EDGE_CURVE('',#1489,#1520,#1522,.T.);
#1520 = VERTEX_POINT('',#1521);
#1521 = CARTESIAN_POINT('',(927.3,-291.15,1.51));
#1522 = LINE('',#1523,#1524);
#1523 = CARTESIAN_POINT('',(100.8,-291.15,1.51));
#1524 = VECTOR('',#1525,1.);
#1525 = DIRECTION('',(1.,0.,0.));
#1526 = ORIENTED_EDGE('',*,*,#1527,.F.);
#1527 = EDGE_CURVE('',#1528,#1520,#1530,.T.);
#1528 = VERTEX_POINT('',#1529);
#1529 = CARTESIAN_POINT('',(927.3,-291.15,0.));
#1530 = LINE('',#1531,#1532);
#1531 = CARTESIAN_POINT('',(927.3,-291.15,0.));
#1532 = VECTOR('',#1533,1.);
#1533 = DIRECTION('',(0.,0.,1.));
#1534 = ORIENTED_EDGE('',*,*,#1535,.F.);
#1535 = EDGE_CURVE('',#1497,#1528,#1536,.T.);
#1536 = LINE('',#1537,#1538);
#1537 = CARTESIAN_POINT('',(100.8,-291.15,0.));
#1538 = VECTOR('',#1539,1.);
#1539 = DIRECTION('',(1.,0.,0.));
#1540 = PLANE('',#1541);
#1541 = AXIS2_PLACEMENT_3D('',#1542,#1543,#1544);
#1542 = CARTESIAN_POINT('',(100.8,-291.15,0.));
#1543 = DIRECTION('',(0.,1.,0.));
#1544 = DIRECTION('',(1.,0.,0.));
#1545 = ADVANCED_FACE('',(#1546),#1562,.T.);
#1546 = FACE_BOUND('',#1547,.T.);
#1547 = EDGE_LOOP('',(#1548,#1549,#1555,#1556));
#1548 = ORIENTED_EDGE('',*,*,#1527,.T.);
#1549 = ORIENTED_EDGE('',*,*,#1550,.T.);
#1550 = EDGE_CURVE('',#1520,#1450,#1551,.T.);
#1551 = LINE('',#1552,#1553);
#1552 = CARTESIAN_POINT('',(927.3,-291.15,1.51));
#1553 = VECTOR('',#1554,1.);
#1554 = DIRECTION('',(0.,-1.,0.));
#1555 = ORIENTED_EDGE('',*,*,#1447,.F.);
#1556 = ORIENTED_EDGE('',*,*,#1557,.F.);
#1557 = EDGE_CURVE('',#1528,#1448,#1558,.T.);
#1558 = LINE('',#1559,#1560);
#1559 = CARTESIAN_POINT('',(927.3,-291.15,0.));
#1560 = VECTOR('',#1561,1.);
#1561 = DIRECTION('',(0.,-1.,0.));
#1562 = PLANE('',#1563);
#1563 = AXIS2_PLACEMENT_3D('',#1564,#1565,#1566);
#1564 = CARTESIAN_POINT('',(927.3,-291.15,0.));
#1565 = DIRECTION('',(1.,0.,-0.));
#1566 = DIRECTION('',(0.,-1.,0.));
#1567 = ADVANCED_FACE('',(#1568),#1574,.F.);
#1568 = FACE_BOUND('',#1569,.T.);
#1569 = EDGE_LOOP('',(#1570,#1571,#1572,#1573));
#1570 = ORIENTED_EDGE('',*,*,#1473,.T.);
#1571 = ORIENTED_EDGE('',*,*,#1504,.T.);
#1572 = ORIENTED_EDGE('',*,*,#1535,.T.);
#1573 = ORIENTED_EDGE('',*,*,#1557,.T.);
#1574 = PLANE('',#1575);
#1575 = AXIS2_PLACEMENT_3D('',#1576,#1577,#1578);
#1576 = CARTESIAN_POINT('',(0.,0.,0.));
#1577 = DIRECTION('',(0.,0.,1.));
#1578 = DIRECTION('',(1.,0.,-0.));
#1579 = ADVANCED_FACE('',(#1580),#1586,.T.);
#1580 = FACE_BOUND('',#1581,.F.);
#1581 = EDGE_LOOP('',(#1582,#1583,#1584,#1585));
#1582 = ORIENTED_EDGE('',*,*,#1457,.T.);
#1583 = ORIENTED_EDGE('',*,*,#1488,.T.);
#1584 = ORIENTED_EDGE('',*,*,#1519,.T.);
#1585 = ORIENTED_EDGE('',*,*,#1550,.T.);
#1586 = PLANE('',#1587);
#1587 = AXIS2_PLACEMENT_3D('',#1588,#1589,#1590);
#1588 = CARTESIAN_POINT('',(0.,0.,1.51));
#1589 = DIRECTION('',(0.,0.,1.));
#1590 = DIRECTION('',(1.,0.,-0.));
#1591 = ( GEOMETRIC_REPRESENTATION_CONTEXT(3) 
GLOBAL_UNCERTAINTY_ASSIGNED_CONTEXT((#1595)) 
GLOBAL_UNIT_ASSIGNED_CONTEXT((#1592,#1593,#1594)) REPRESENTATION_CONTEXT
('Context #1','3D Context with UNIT and UNCERTAINTY') );
#1592 = ( LENGTH_UNIT() NAMED_UNIT(*) SI_UNIT(.MILLI.,.METRE.) );
#1593 = ( NAMED_UNIT(*) PLANE_ANGLE_UNIT() SI_UNIT($,.RADIAN.) );
#1594 = ( NAMED_UNIT(*) SI_UNIT($,.STERADIAN.) SOLID_ANGLE_UNIT() );
#1595 = UNCERTAINTY_MEASURE_WITH_UNIT(LENGTH_MEASURE(1.E-07),#1592,
  'distance_accuracy_value','confusion accuracy');
#1596 = CONTEXT_DEPENDENT_SHAPE_REPRESENTATION(#1597,#1599);
#1597 = ( REPRESENTATION_RELATIONSHIP('','',#1440,#10) 
REPRESENTATION_RELATIONSHIP_WITH_TRANSFORMATION(#1598) 
SHAPE_REPRESENTATION_RELATIONSHIP() );
#1598 = ITEM_DEFINED_TRANSFORMATION('','',#11,#255);
#1599 = PRODUCT_DEFINITION_SHAPE('Placement','Placement of an item',
  #1600);
#1600 = NEXT_ASSEMBLY_USAGE_OCCURRENCE('61','=>[0:1:1:3]','',#5,#1435,$
  );
#1601 = PRODUCT_RELATED_PRODUCT_CATEGORY('part',$,(#1437));
#1602 = MECHANICAL_DESIGN_GEOMETRIC_PRESENTATION_REPRESENTATION('',(
    #1603),#1591);
#1603 = STYLED_ITEM('color',(#1604),#1441);
#1604 = PRESENTATION_STYLE_ASSIGNMENT((#1605));
#1605 = SURFACE_STYLE_USAGE(.BOTH.,#1606);
#1606 = SURFACE_SIDE_STYLE('',(#1607));
#1607 = SURFACE_STYLE_FILL_AREA(#1608);
#1608 = FILL_AREA_STYLE('',(#1609));
#1609 = FILL_AREA_STYLE_COLOUR('',#1610);
#1610 = COLOUR_RGB('',0.313304153717,0.484529207832,0.410020903123);
#1611 = MECHANICAL_DESIGN_GEOMETRIC_PRESENTATION_REPRESENTATION('',(
    #1612,#1620,#1627,#1634,#1641,#1648,#1655,#1662,#1669,#1676,#1683,
    #1691,#1698,#1705,#1712,#1719,#1726,#1733,#1740,#1747,#1754,#1761,
    #1768,#1775,#1782,#1789,#1796,#1803),#1127);
#1612 = STYLED_ITEM('color',(#1613),#275);
#1613 = PRESENTATION_STYLE_ASSIGNMENT((#1614));
#1614 = SURFACE_STYLE_USAGE(.BOTH.,#1615);
#1615 = SURFACE_SIDE_STYLE('',(#1616));
#1616 = SURFACE_STYLE_FILL_AREA(#1617);
#1617 = FILL_AREA_STYLE('',(#1618));
#1618 = FILL_AREA_STYLE_COLOUR('',#1619);
#1619 = COLOUR_RGB('',0.823999987314,0.819999987296,0.781000009244);
#1620 = STYLED_ITEM('color',(#1621),#351);
#1621 = PRESENTATION_STYLE_ASSIGNMENT((#1622));
#1622 = SURFACE_STYLE_USAGE(.BOTH.,#1623);
#1623 = SURFACE_SIDE_STYLE('',(#1624));
#1624 = SURFACE_STYLE_FILL_AREA(#1625);
#1625 = FILL_AREA_STYLE('',(#1626));
#1626 = FILL_AREA_STYLE_COLOUR('',#1619);
#1627 = STYLED_ITEM('color',(#1628),#382);
#1628 = PRESENTATION_STYLE_ASSIGNMENT((#1629));
#1629 = SURFACE_STYLE_USAGE(.BOTH.,#1630);
#1630 = SURFACE_SIDE_STYLE('',(#1631));
#1631 = SURFACE_STYLE_FILL_AREA(#1632);
#1632 = FILL_AREA_STYLE('',(#1633));
#1633 = FILL_AREA_STYLE_COLOUR('',#1619);
#1634 = STYLED_ITEM('color',(#1635),#407);
#1635 = PRESENTATION_STYLE_ASSIGNMENT((#1636));
#1636 = SURFACE_STYLE_USAGE(.BOTH.,#1637);
#1637 = SURFACE_SIDE_STYLE('',(#1638));
#1638 = SURFACE_STYLE_FILL_AREA(#1639);
#1639 = FILL_AREA_STYLE('',(#1640));
#1640 = FILL_AREA_STYLE_COLOUR('',#1619);
#1641 = STYLED_ITEM('color',(#1642),#432);
#1642 = PRESENTATION_STYLE_ASSIGNMENT((#1643));
#1643 = SURFACE_STYLE_USAGE(.BOTH.,#1644);
#1644 = SURFACE_SIDE_STYLE('',(#1645));
#1645 = SURFACE_STYLE_FILL_AREA(#1646);
#1646 = FILL_AREA_STYLE('',(#1647));
#1647 = FILL_AREA_STYLE_COLOUR('',#1619);
#1648 = STYLED_ITEM('color',(#1649),#456);
#1649 = PRESENTATION_STYLE_ASSIGNMENT((#1650));
#1650 = SURFACE_STYLE_USAGE(.BOTH.,#1651);
#1651 = SURFACE_SIDE_STYLE('',(#1652));
#1652 = SURFACE_STYLE_FILL_AREA(#1653);
#1653 = FILL_AREA_STYLE('',(#1654));
#1654 = FILL_AREA_STYLE_COLOUR('',#1619);
#1655 = STYLED_ITEM('color',(#1656),#480);
#1656 = PRESENTATION_STYLE_ASSIGNMENT((#1657));
#1657 = SURFACE_STYLE_USAGE(.BOTH.,#1658);
#1658 = SURFACE_SIDE_STYLE('',(#1659));
#1659 = SURFACE_STYLE_FILL_AREA(#1660);
#1660 = FILL_AREA_STYLE('',(#1661));
#1661 = FILL_AREA_STYLE_COLOUR('',#1619);
#1662 = STYLED_ITEM('color',(#1663),#505);
#1663 = PRESENTATION_STYLE_ASSIGNMENT((#1664));
#1664 = SURFACE_STYLE_USAGE(.BOTH.,#1665);
#1665 = SURFACE_SIDE_STYLE('',(#1666));
#1666 = SURFACE_STYLE_FILL_AREA(#1667);
#1667 = FILL_AREA_STYLE('',(#1668));
#1668 = FILL_AREA_STYLE_COLOUR('',#1619);
#1669 = STYLED_ITEM('color',(#1670),#530);
#1670 = PRESENTATION_STYLE_ASSIGNMENT((#1671));
#1671 = SURFACE_STYLE_USAGE(.BOTH.,#1672);
#1672 = SURFACE_SIDE_STYLE('',(#1673));
#1673 = SURFACE_STYLE_FILL_AREA(#1674);
#1674 = FILL_AREA_STYLE('',(#1675));
#1675 = FILL_AREA_STYLE_COLOUR('',#1619);
#1676 = STYLED_ITEM('color',(#1677),#547);
#1677 = PRESENTATION_STYLE_ASSIGNMENT((#1678));
#1678 = SURFACE_STYLE_USAGE(.BOTH.,#1679);
#1679 = SURFACE_SIDE_STYLE('',(#1680));
#1680 = SURFACE_STYLE_FILL_AREA(#1681);
#1681 = FILL_AREA_STYLE('',(#1682));
#1682 = FILL_AREA_STYLE_COLOUR('',#1619);
#1683 = STYLED_ITEM('color',(#1684),#633);
#1684 = PRESENTATION_STYLE_ASSIGNMENT((#1685));
#1685 = SURFACE_STYLE_USAGE(.BOTH.,#1686);
#1686 = SURFACE_SIDE_STYLE('',(#1687));
#1687 = SURFACE_STYLE_FILL_AREA(#1688);
#1688 = FILL_AREA_STYLE('',(#1689));
#1689 = FILL_AREA_STYLE_COLOUR('',#1690);
#1690 = COLOUR_RGB('',0.379000005575,0.270000008848,0.214999999939);
#1691 = STYLED_ITEM('color',(#1692),#665);
#1692 = PRESENTATION_STYLE_ASSIGNMENT((#1693));
#1693 = SURFACE_STYLE_USAGE(.BOTH.,#1694);
#1694 = SURFACE_SIDE_STYLE('',(#1695));
#1695 = SURFACE_STYLE_FILL_AREA(#1696);
#1696 = FILL_AREA_STYLE('',(#1697));
#1697 = FILL_AREA_STYLE_COLOUR('',#1690);
#1698 = STYLED_ITEM('color',(#1699),#689);
#1699 = PRESENTATION_STYLE_ASSIGNMENT((#1700));
#1700 = SURFACE_STYLE_USAGE(.BOTH.,#1701);
#1701 = SURFACE_SIDE_STYLE('',(#1702));
#1702 = SURFACE_STYLE_FILL_AREA(#1703);
#1703 = FILL_AREA_STYLE('',(#1704));
#1704 = FILL_AREA_STYLE_COLOUR('',#1690);
#1705 = STYLED_ITEM('color',(#1706),#714);
#1706 = PRESENTATION_STYLE_ASSIGNMENT((#1707));
#1707 = SURFACE_STYLE_USAGE(.BOTH.,#1708);
#1708 = SURFACE_SIDE_STYLE('',(#1709));
#1709 = SURFACE_STYLE_FILL_AREA(#1710);
#1710 = FILL_AREA_STYLE('',(#1711));
#1711 = FILL_AREA_STYLE_COLOUR('',#1690);
#1712 = STYLED_ITEM('color',(#1713),#738);
#1713 = PRESENTATION_STYLE_ASSIGNMENT((#1714));
#1714 = SURFACE_STYLE_USAGE(.BOTH.,#1715);
#1715 = SURFACE_SIDE_STYLE('',(#1716));
#1716 = SURFACE_STYLE_FILL_AREA(#1717);
#1717 = FILL_AREA_STYLE('',(#1718));
#1718 = FILL_AREA_STYLE_COLOUR('',#1690);
#1719 = STYLED_ITEM('color',(#1720),#763);
#1720 = PRESENTATION_STYLE_ASSIGNMENT((#1721));
#1721 = SURFACE_STYLE_USAGE(.BOTH.,#1722);
#1722 = SURFACE_SIDE_STYLE('',(#1723));
#1723 = SURFACE_STYLE_FILL_AREA(#1724);
#1724 = FILL_AREA_STYLE('',(#1725));
#1725 = FILL_AREA_STYLE_COLOUR('',#1690);
#1726 = STYLED_ITEM('color',(#1727),#787);
#1727 = PRESENTATION_STYLE_ASSIGNMENT((#1728));
#1728 = SURFACE_STYLE_USAGE(.BOTH.,#1729);
#1729 = SURFACE_SIDE_STYLE('',(#1730));
#1730 = SURFACE_STYLE_FILL_AREA(#1731);
#1731 = FILL_AREA_STYLE('',(#1732));
#1732 = FILL_AREA_STYLE_COLOUR('',#1690);
#1733 = STYLED_ITEM('color',(#1734),#812);
#1734 = PRESENTATION_STYLE_ASSIGNMENT((#1735));
#1735 = SURFACE_STYLE_USAGE(.BOTH.,#1736);
#1736 = SURFACE_SIDE_STYLE('',(#1737));
#1737 = SURFACE_STYLE_FILL_AREA(#1738);
#1738 = FILL_AREA_STYLE('',(#1739));
#1739 = FILL_AREA_STYLE_COLOUR('',#1690);
#1740 = STYLED_ITEM('color',(#1741),#829);
#1741 = PRESENTATION_STYLE_ASSIGNMENT((#1742));
#1742 = SURFACE_STYLE_USAGE(.BOTH.,#1743);
#1743 = SURFACE_SIDE_STYLE('',(#1744));
#1744 = SURFACE_STYLE_FILL_AREA(#1745);
#1745 = FILL_AREA_STYLE('',(#1746));
#1746 = FILL_AREA_STYLE_COLOUR('',#1619);
#1747 = STYLED_ITEM('color',(#1748),#915);
#1748 = PRESENTATION_STYLE_ASSIGNMENT((#1749));
#1749 = SURFACE_STYLE_USAGE(.BOTH.,#1750);
#1750 = SURFACE_SIDE_STYLE('',(#1751));
#1751 = SURFACE_STYLE_FILL_AREA(#1752);
#1752 = FILL_AREA_STYLE('',(#1753));
#1753 = FILL_AREA_STYLE_COLOUR('',#1619);
#1754 = STYLED_ITEM('color',(#1755),#946);
#1755 = PRESENTATION_STYLE_ASSIGNMENT((#1756));
#1756 = SURFACE_STYLE_USAGE(.BOTH.,#1757);
#1757 = SURFACE_SIDE_STYLE('',(#1758));
#1758 = SURFACE_STYLE_FILL_AREA(#1759);
#1759 = FILL_AREA_STYLE('',(#1760));
#1760 = FILL_AREA_STYLE_COLOUR('',#1619);
#1761 = STYLED_ITEM('color',(#1762),#971);
#1762 = PRESENTATION_STYLE_ASSIGNMENT((#1763));
#1763 = SURFACE_STYLE_USAGE(.BOTH.,#1764);
#1764 = SURFACE_SIDE_STYLE('',(#1765));
#1765 = SURFACE_STYLE_FILL_AREA(#1766);
#1766 = FILL_AREA_STYLE('',(#1767));
#1767 = FILL_AREA_STYLE_COLOUR('',#1619);
#1768 = STYLED_ITEM('color',(#1769),#996);
#1769 = PRESENTATION_STYLE_ASSIGNMENT((#1770));
#1770 = SURFACE_STYLE_USAGE(.BOTH.,#1771);
#1771 = SURFACE_SIDE_STYLE('',(#1772));
#1772 = SURFACE_STYLE_FILL_AREA(#1773);
#1773 = FILL_AREA_STYLE('',(#1774));
#1774 = FILL_AREA_STYLE_COLOUR('',#1619);
#1775 = STYLED_ITEM('color',(#1776),#1020);
#1776 = PRESENTATION_STYLE_ASSIGNMENT((#1777));
#1777 = SURFACE_STYLE_USAGE(.BOTH.,#1778);
#1778 = SURFACE_SIDE_STYLE('',(#1779));
#1779 = SURFACE_STYLE_FILL_AREA(#1780);
#1780 = FILL_AREA_STYLE('',(#1781));
#1781 = FILL_AREA_STYLE_COLOUR('',#1619);
#1782 = STYLED_ITEM('color',(#1783),#1044);
#1783 = PRESENTATION_STYLE_ASSIGNMENT((#1784));
#1784 = SURFACE_STYLE_USAGE(.BOTH.,#1785);
#1785 = SURFACE_SIDE_STYLE('',(#1786));
#1786 = SURFACE_STYLE_FILL_AREA(#1787);
#1787 = FILL_AREA_STYLE('',(#1788));
#1788 = FILL_AREA_STYLE_COLOUR('',#1619);
#1789 = STYLED_ITEM('color',(#1790),#1069);
#1790 = PRESENTATION_STYLE_ASSIGNMENT((#1791));
#1791 = SURFACE_STYLE_USAGE(.BOTH.,#1792);
#1792 = SURFACE_SIDE_STYLE('',(#1793));
#1793 = SURFACE_STYLE_FILL_AREA(#1794);
#1794 = FILL_AREA_STYLE('',(#1795));
#1795 = FILL_AREA_STYLE_COLOUR('',#1619);
#1796 = STYLED_ITEM('color',(#1797),#1094);
#1797 = PRESENTATION_STYLE_ASSIGNMENT((#1798));
#1798 = SURFACE_STYLE_USAGE(.BOTH.,#1799);
#1799 = SURFACE_SIDE_STYLE('',(#1800));
#1800 = SURFACE_STYLE_FILL_AREA(#1801);
#1801 = FILL_AREA_STYLE('',(#1802));
#1802 = FILL_AREA_STYLE_COLOUR('',#1619);
#1803 = STYLED_ITEM('color',(#1804),#1111);
#1804 = PRESENTATION_STYLE_ASSIGNMENT((#1805));
#1805 = SURFACE_STYLE_USAGE(.BOTH.,#1806);
#1806 = SURFACE_SIDE_STYLE('',(#1807));
#1807 = SURFACE_STYLE_FILL_AREA(#1808);
#1808 = FILL_AREA_STYLE('',(#1809));
#1809 = FILL_AREA_STYLE_COLOUR('',#1619);
ENDSEC;
END-ISO-10303-21;
